<svg xmlns="http://www.w3.org/2000/svg" width="16.443" height="16.443" viewBox="0 0 16.443 16.443">
  <g id="_1827996" data-name="1827996" transform="translate(0 -0.001)">
    <path id="Path_4583" data-name="Path 4583" d="M163.5,10.966a.748.748,0,0,1-.529-1.277L164.966,7.7a3.583,3.583,0,0,0,1.066-2.567A3.637,3.637,0,0,0,162.4,1.5a3.584,3.584,0,0,0-2.565,1.064l-2,2A.748.748,0,0,1,156.781,3.5L158.774,1.5A5.065,5.065,0,0,1,162.4,0a5.135,5.135,0,0,1,5.129,5.129,5.065,5.065,0,0,1-1.507,3.628l-1.991,1.99a.744.744,0,0,1-.528.219Zm0,0" transform="translate(-151.085 0)" fill="#3b86ff"/>
    <path id="Path_4584" data-name="Path 4584" d="M5.129,167.528A5.134,5.134,0,0,1,0,162.4a5.065,5.065,0,0,1,1.507-3.628l1.991-1.99a.748.748,0,0,1,1.058,1.058l-1.993,1.993A3.581,3.581,0,0,0,1.5,162.4a3.637,3.637,0,0,0,3.633,3.633,3.584,3.584,0,0,0,2.565-1.064l2-2a.748.748,0,1,1,1.058,1.058l-1.993,1.993a5.065,5.065,0,0,1-3.625,1.5Zm0,0" transform="translate(0 -151.084)" fill="#3b86ff"/>
    <path id="Path_4585" data-name="Path 4585" d="M128.743,135.475a.748.748,0,0,1-.529-1.277l5.984-5.984a.748.748,0,1,1,1.058,1.058l-5.984,5.984A.746.746,0,0,1,128.743,135.475Zm0,0" transform="translate(-123.514 -123.513)" fill="#3b86ff"/>
  </g>
</svg>
