<svg xmlns="http://www.w3.org/2000/svg" width="44" height="44.5" viewBox="0 0 44 44.5">
  <g id="chart" transform="translate(-1435 -627)">
    <g id="dribbble" transform="translate(1437 629)">
      <g id="Subtraction_1" data-name="Subtraction 1" transform="translate(0 0)" fill="#3b86ff">
        <path d="M 2.312406063079834 23.19963645935059 L 2.312236070632935 23.19963645935059 L 0.1504359543323517 23.19963645935059 L -0.7334740161895752 23.19963645935059 L -0.841994047164917 22.32241630554199 C -0.9468440413475037 21.47492599487305 -1.000004053115845 20.60944557189941 -1.000004053115845 19.74999618530273 C -1.000004053115845 18.34277725219727 -0.8581740260124207 16.9361572265625 -0.5784540176391602 15.56918621063232 C -0.3057440519332886 14.23648643493652 0.1011859625577927 12.92556667327881 0.6310359835624695 11.67283630371094 C 1.151175975799561 10.44308662414551 1.7949059009552 9.257076263427734 2.544355869293213 8.147746086120605 C 3.286485910415649 7.049246311187744 4.138765811920166 6.016266345977783 5.077506065368652 5.077516555786133 C 6.016255855560303 4.138776302337646 7.049235820770264 3.28649640083313 8.147746086120605 2.544356346130371 C 9.25705623626709 1.794926285743713 10.44306564331055 1.151196360588074 11.67283630371094 0.6310462951660156 C 12.92556571960449 0.1011863201856613 14.23648643493652 -0.3057436645030975 15.56919574737549 -0.5784536600112915 C 16.93615531921387 -0.858173668384552 18.34277534484863 -1.000003695487976 19.74998664855957 -1.000003695487976 C 21.25661659240723 -1.000003695487976 22.75998687744141 -0.8376536965370178 24.21832656860352 -0.5174736976623535 L 24.00387573242188 1.459266304969788 L 20.74998664855957 1.459258675575256 L 20.74998664855957 2.143346309661865 L 20.74998664855957 3.083516359329224 L 19.81159591674805 3.141446352005005 L 19.78081512451172 3.143346309661865 L 19.74755668640137 3.14349627494812 C 18.62131690979004 3.14349627494812 17.49575614929199 3.256966352462769 16.40213584899902 3.480746269226074 C 15.33633613586426 3.698846340179443 14.28800582885742 4.024266242980957 13.28628635406494 4.447956085205078 C 12.30252552032471 4.864046096801758 11.35358619689941 5.37912654876709 10.46580600738525 5.978896141052246 C 9.586236000061035 6.573116302490234 8.759096145629883 7.255566120147705 8.007346153259277 8.007306098937988 C 7.255606174468994 8.759056091308594 6.573145866394043 9.586206436157227 5.978926181793213 10.46574592590332 C 5.379166126251221 11.35350608825684 4.864086151123047 12.30244636535645 4.447986125946045 13.28622627258301 C 4.024265766143799 14.28797626495361 3.698845863342285 15.33630657196045 3.480746030807495 16.40210723876953 C 3.256855964660645 17.49620628356934 3.143336057662964 18.62259674072266 3.143336057662964 19.74999618530273 C 3.143336057662964 20.52351570129395 3.196995973587036 21.30124664306641 3.302835941314697 22.06158638000488 L 3.30474591255188 22.07528686523438 L 3.306266069412231 22.08902549743652 L 3.429656028747559 23.1994571685791 L 2.312406063079834 23.19963645935059 Z" stroke="none"/>
        <path d="M 2.312406063079834 22.19963645935059 L 2.312386035919189 22.1994571685791 C 2.20020604133606 21.39354705810547 2.143336057662964 20.56942558288574 2.143336057662964 19.74999618530273 C 2.143336057662964 18.55540657043457 2.263685941696167 17.3615665435791 2.501045942306519 16.20162582397461 C 2.732375860214233 15.07117652893066 3.077545881271362 13.95922660827637 3.526975870132446 12.8966760635376 C 3.968235969543457 11.85341644287109 4.514405727386475 10.84718608856201 5.15030574798584 9.905936241149902 C 5.780156135559082 8.97364616394043 6.503506183624268 8.096946716308594 7.300245761871338 7.300196170806885 C 8.096985816955566 6.503466129302979 8.973686218261719 5.780126094818115 9.905996322631836 5.150276184082031 C 10.84725570678711 4.514376163482666 11.85348606109619 3.968206405639648 12.89673614501953 3.52695631980896 C 13.95927619934082 3.077536344528198 15.07121562957764 2.732376337051392 16.2016658782959 2.501046419143677 C 17.3610954284668 2.263796329498291 18.55410575866699 2.14349627494812 19.74755668640137 2.14349627494812 L 19.74998664855957 2.143346309661865 L 19.74998664855957 0.4592563211917877 L 24.00387573242188 0.45926633477211 C 22.61584663391113 0.1545163244009018 21.18462562561035 -3.677673248603242e-06 19.74998664855957 -3.677673248603242e-06 C 18.40997505187988 -3.677673248603242e-06 17.0707950592041 0.1349963247776031 15.76966571807861 0.4012463092803955 C 14.50160598754883 0.6607263088226318 13.25429630279541 1.047916293144226 12.06238555908203 1.552046298980713 C 10.89210605621338 2.047036409378052 9.763385772705078 2.659676313400269 8.707555770874023 3.372976303100586 C 7.661756038665771 4.079506397247314 6.678336143493652 4.89090633392334 5.784615993499756 5.784616470336914 C 4.890895843505859 6.678346157073975 4.079495906829834 7.661766529083252 3.372976064682007 8.70755672454834 C 2.659676074981689 9.763376235961914 2.047025918960571 10.89210605621338 1.552045941352844 12.06238651275635 C 1.047915935516357 13.25429630279541 0.6607259511947632 14.50160598754883 0.4012459516525269 15.76966667175293 C 0.1349959522485733 17.07079696655273 -4.041137799504213e-06 18.40997695922852 -4.041137799504213e-06 19.74999618530273 C -4.041137799504213e-06 20.5682258605957 0.05056595802307129 21.39236640930176 0.1504359543323517 22.19963645935059 L 2.312406063079834 22.19963645935059 M 2.312406063079834 24.19963645935059 L -1.617384076118469 24.19963645935059 L -1.834434032440186 22.44518661499023 C -1.944294095039368 21.55712699890137 -2.000004053115845 20.65033721923828 -2.000004053115845 19.74999618530273 C -2.000004053115845 18.27558708190918 -1.851343989372253 16.80150604248047 -1.558153986930847 15.3687162399292 C -1.27221405506134 13.97134590148926 -0.8455340266227722 12.59680652618408 -0.2899640500545502 11.28328609466553 C 0.255325973033905 9.99406623840332 0.93013596534729 8.750766754150391 1.715735912322998 7.587936401367188 C 2.493495941162109 6.436696529388428 3.386646032333374 5.354166507720947 4.370396137237549 4.370406150817871 C 5.354156017303467 3.386656284332275 6.436686038970947 2.49350643157959 7.587935924530029 1.715726375579834 C 8.75075626373291 0.9301563501358032 9.994046211242676 0.2553463280200958 11.28327560424805 -0.2899636924266815 C 12.59680557250977 -0.8455336689949036 13.97134590148926 -1.272213697433472 15.3687162399292 -1.558153629302979 C 16.80150604248047 -1.851343631744385 18.27557563781738 -2.000003576278687 19.74998664855957 -2.000003576278687 C 21.32860565185547 -2.000003576278687 22.90412521362305 -1.829823732376099 24.43277549743652 -1.494203686714172 L 24.00387573242188 2.459266424179077 L 21.74998664855957 2.459260940551758 L 21.74998664855957 4.023696422576904 L 19.81165504455566 4.143346309661865 L 19.74755668640137 4.143496513366699 C 18.68850517272949 4.143496513366699 17.63039588928223 4.250136375427246 16.60260581970215 4.460446357727051 C 15.60148620605469 4.665306091308594 14.61676597595215 4.970986366271973 13.67584609985352 5.368966102600098 C 12.75154590606689 5.75990629196167 11.85988616943359 6.243906497955322 11.02560615539551 6.807526111602783 C 10.19877624511719 7.366116523742676 9.421195983886719 8.007686614990234 8.714446067810059 8.71441650390625 C 8.007716178894043 9.42115592956543 7.366136074066162 10.19874668121338 6.807546138763428 11.02555656433105 C 6.243936061859131 11.85980606079102 5.759935855865479 12.75146675109863 5.368986129760742 13.67577648162842 C 4.970985889434814 14.61673641204834 4.665306091308594 15.60145664215088 4.460445880889893 16.60258674621582 C 4.250025749206543 17.63085556030273 4.143335819244385 18.68979644775391 4.143335819244385 19.74999618530273 C 4.143335819244385 20.4775562286377 4.193786144256592 21.20890617370605 4.293285846710205 21.92372703552246 L 4.300156116485596 21.97859573364258 L 4.546916007995605 24.1994571685791 L 2.312406063079834 24.19963645935059 Z" stroke="none" fill="#fff"/>
      </g>
    </g>
    <g id="insta" transform="translate(1437 629.001)">
      <g id="Subtraction_2" data-name="Subtraction 2" transform="translate(0 0.5)" fill="#3b86ff">
        <path d="M 19.99992942810059 41 C 18.57575035095215 41 17.15217971801758 40.85646057128906 15.76875019073486 40.57337188720703 C 14.41996955871582 40.29737091064453 13.09327030181885 39.88552856445312 11.82548046112061 39.34930038452148 C 10.5809497833252 38.82292175292969 9.380660057067871 38.17142868041992 8.257949829101562 37.41294097900391 C 7.146220207214355 36.66186141967773 6.100790023803711 35.79930877685547 5.150720119476318 34.84925079345703 C 4.200669765472412 33.899169921875 3.338129997253418 32.85374069213867 2.587039947509766 31.74198913574219 C 1.828559994697571 30.61928939819336 1.177080035209656 29.41898918151855 0.6506800055503845 28.17440986633301 C 0.1144500002264977 26.90660095214844 -0.2973800003528595 25.57987976074219 -0.5733699798583984 24.23111915588379 C -0.8564599752426147 22.84769058227539 -1 21.42411041259766 -1 19.99991989135742 C -1 17.93976974487305 -0.7021300196647644 15.90369033813477 -0.1146500036120415 13.94824981689453 L 0.1718100011348724 12.99475955963135 L 1.126549959182739 13.27700996398926 L 3.208559989929199 13.89249992370605 L 4.172359943389893 14.17741966247559 L 3.882610082626343 15.13976955413818 C 3.410059928894043 16.70923042297363 3.170459985733032 18.34441947937012 3.170459985733032 19.99991989135742 C 3.170459985733032 21.14241027832031 3.285500049591064 22.28392028808594 3.512399911880493 23.39274024963379 C 3.733429908752441 24.47286987304688 4.063220024108887 25.53528022766113 4.492599964141846 26.55046081542969 C 4.91431999206543 27.54748916625977 5.43632984161377 28.50918006896973 6.04410982131958 29.40880966186523 C 6.646289825439453 30.3001708984375 7.337910175323486 31.1384105682373 8.099749565124512 31.90026092529297 C 8.861530303955078 32.66204071044922 9.699760437011719 33.35366058349609 10.59117031097412 33.95589065551758 C 11.49081039428711 34.56367111206055 12.45248985290527 35.08567047119141 13.44950008392334 35.50738143920898 C 14.46469974517822 35.93677139282227 15.52711009979248 36.26657104492188 16.60717964172363 36.48759078979492 C 17.71590995788574 36.71446990966797 18.85740089416504 36.82950973510742 19.99992942810059 36.82950973510742 C 21.14248085021973 36.82950973510742 22.28397941589355 36.71446990966797 23.39273071289062 36.48759078979492 C 24.47282028198242 36.26657104492188 25.53523063659668 35.93677139282227 26.5504207611084 35.50738143920898 C 27.54744911193848 35.08567047119141 28.50913047790527 34.56367111206055 29.40873908996582 33.95589065551758 C 30.30010986328125 33.35369873046875 31.13834953308105 32.66207885742188 31.90016937255859 31.90024948120117 C 32.6619987487793 31.13842010498047 33.35361099243164 30.30018043518066 33.95578002929688 29.4088191986084 C 34.56359100341797 28.5091495513916 35.08557891845703 27.54746055603027 35.50727081298828 26.55046081542969 C 35.93664932250977 25.53528022766113 36.26644134521484 24.47286987304688 36.48746871948242 23.39273071289062 C 36.71435928344727 22.28396034240723 36.82939910888672 21.1424503326416 36.82939910888672 19.99991989135742 C 36.82939910888672 18.86033058166504 36.71495056152344 17.72171974182129 36.48923873901367 16.61570930480957 C 36.26935958862305 15.53824996948242 35.94123840332031 14.47826957702637 35.51398086547852 13.46520042419434 C 35.09439086914062 12.47029972076416 34.57495880126953 11.51039028167725 33.97011184692383 10.61213970184326 C 33.3708381652832 9.722200393676758 32.68249893188477 8.884920120239258 31.9242000579834 8.123559951782227 C 31.16595077514648 7.362259864807129 30.33151054382324 6.670589923858643 29.44405937194824 6.067780017852783 C 28.54846000671387 5.459420204162598 27.59090995788574 4.936180114746094 26.59802055358887 4.512599945068359 C 25.5871696472168 4.08135986328125 24.5290699005127 3.748970031738281 23.45314979553223 3.524669885635376 C 22.34888076782227 3.294470071792603 21.21171951293945 3.175299882888794 20.07324981689453 3.17044997215271 L 19.07751083374023 3.166209936141968 L 19.07751083374023 2.170459985733032 L 19.07751083374023 0 L 19.07751083374023 -1.003769993782043 L 20.08127021789551 -0.9999899864196777 C 21.50106048583984 -0.9946500062942505 22.9199104309082 -0.8465399742126465 24.29841041564941 -0.5597800016403198 C 25.64261054992676 -0.2801499962806702 26.96454048156738 0.134550005197525 28.22747993469238 0.6728000044822693 C 29.46744918823242 1.2012699842453 30.66313934326172 1.854130029678345 31.78133010864258 2.613229990005493 C 32.88875961303711 3.365020036697388 33.92996978759766 4.227630138397217 34.87601852416992 5.177080154418945 C 35.82215118408203 6.126609802246094 36.68106842041016 7.170989990234375 37.42892074584961 8.281209945678711 C 38.18412017822266 9.402359962463379 38.83275985717773 10.60068988800049 39.3568115234375 11.84292984008789 C 39.89062118530273 13.10828018188477 40.30059051513672 14.43231010437012 40.57534027099609 15.77824020385742 C 40.85712814331055 17.15860939025879 41 18.5789909362793 41 19.99991989135742 C 41 21.4240894317627 40.85646057128906 22.84766960144043 40.57337188720703 24.23111915588379 C 40.29737091064453 25.57991027832031 39.88552856445312 26.90662956237793 39.34928894042969 28.17443084716797 C 38.82289123535156 29.41900062561035 38.1713981628418 30.61930084228516 37.41292190551758 31.74198913574219 C 36.66183090209961 32.85374069213867 35.79927825927734 33.8991813659668 34.84922027587891 34.84923934936523 C 33.89913940429688 35.79930114746094 32.85371017456055 36.66184997558594 31.7419605255127 37.41294097900391 C 30.61923980712891 38.17142868041992 29.4189395904541 38.82292175292969 28.17439079284668 39.34931182861328 C 26.90662002563477 39.88552856445312 25.57990074157715 40.29737091064453 24.23110961914062 40.57337188720703 C 22.84767913818359 40.85646057128906 21.42410087585449 41 19.99992942810059 41 Z" stroke="none"/>
        <path d="M 19.99992942810059 40 C 21.35691070556641 40 22.71303939819336 39.86328887939453 24.0306396484375 39.59366989135742 C 25.31476974487305 39.33089828491211 26.5778694152832 38.93880844116211 27.78484916687012 38.42829895019531 C 28.96994018554688 37.92705917358398 30.11296081542969 37.30664825439453 31.18214988708496 36.58432006835938 C 32.24119186401367 35.86883926391602 33.237060546875 35.04716873168945 34.14210891723633 34.14213943481445 C 35.04716110229492 33.23707962036133 35.86883163452148 32.2412109375 36.58430099487305 31.18218040466309 C 37.30662155151367 30.11301040649414 37.92702865600586 28.96998977661133 38.42829132080078 27.78487014770508 C 38.93881988525391 26.57785987854004 39.33090972900391 25.31475067138672 39.59366989135742 24.03064918518066 C 39.86328887939453 22.7130298614502 40 21.35689926147461 40 19.99991989135742 C 40 18.64606094360352 39.86392974853516 17.29297065734863 39.59555053710938 15.97824954986572 C 39.33398056030273 14.69688034057617 38.94366836547852 13.43632984161377 38.43544006347656 12.2316198348999 C 37.93643951416016 11.04876041412354 37.31874847412109 9.907609939575195 36.59952926635742 8.839889526367188 C 35.88716888427734 7.782350063323975 35.0689697265625 6.787479877471924 34.16764831542969 5.882919788360596 C 33.26641082763672 4.978439807891846 32.27455902099609 4.156720161437988 31.21965980529785 3.440589904785156 C 30.1547794342041 2.717679977416992 29.01615905761719 2.095969915390015 27.83540916442871 1.592740058898926 C 26.63301086425781 1.080289959907532 25.37446975708008 0.685479998588562 24.09473991394043 0.4192599952220917 C 22.7821102142334 0.1462000012397766 21.43057060241699 0.005090000107884407 20.07751083374023 0 L 20.07751083374023 2.170459985733032 C 21.28294944763184 2.175590038299561 22.48734092712402 2.30184006690979 23.65723037719727 2.545720100402832 C 24.79758071899414 2.78344988822937 25.91902923583984 3.135740041732788 26.99041938781738 3.59279990196228 C 28.04253959655762 4.04164981842041 29.05710983276367 4.596039772033691 30.00596046447754 5.240570068359375 C 30.9459400177002 5.879069805145264 31.82971000671387 6.611629962921143 32.63272857666016 7.417880058288574 C 33.43582153320312 8.224209785461426 34.16485977172852 9.111000061035156 34.79957962036133 10.0536003112793 C 35.4404182434082 11.00529003143311 35.99077987670898 12.02237033843994 36.43539047241211 13.07660007476807 C 36.88822937011719 14.15034008026123 37.23600006103516 15.27379035949707 37.46903991699219 16.41575050354004 C 37.70816040039062 17.58744049072266 37.82939910888672 18.7933292388916 37.82939910888672 19.99991989135742 C 37.82939910888672 21.20962905883789 37.7075309753418 22.4185905456543 37.46717071533203 23.59321022033691 C 37.23291015625 24.73798942565918 36.88338088989258 25.8640193939209 36.42827987670898 26.94001007080078 C 35.98143005371094 27.99649047851562 35.42834854125977 29.01545906066895 34.78440856933594 29.96862030029297 C 34.14659118652344 30.91274070739746 33.41410064697266 31.80052947998047 32.60728073120117 32.60736083984375 C 31.80046081542969 33.41418075561523 30.91267013549805 34.14667892456055 29.96855926513672 34.78451156616211 C 29.01540946960449 35.42845916748047 27.99645042419434 35.98152923583984 26.93997955322266 36.42837905883789 C 25.86399078369141 36.88349151611328 24.73797035217285 37.23302841186523 23.59320068359375 37.46728897094727 C 21.24397850036621 37.94800186157227 18.75594139099121 37.94801712036133 16.40670013427734 37.46728897094727 C 15.26194953918457 37.23302841186523 14.1359395980835 36.88349151611328 13.05994033813477 36.42837905883789 C 12.00349044799805 35.98152923583984 10.98453044891357 35.42845916748047 10.03135967254639 34.78451156616211 C 9.087260246276855 34.14667892456055 8.199460029602051 33.41418838500977 7.392640113830566 32.60736083984375 C 6.585800170898438 31.80051040649414 5.853300094604492 30.91271018981934 5.215489864349365 29.96862030029297 C 4.571549892425537 29.01547050476074 4.01846981048584 27.99650001525879 3.571599960327148 26.94001007080078 C 3.116489887237549 25.86400985717773 2.76695990562439 24.73797988891602 2.532700061798096 23.59321022033691 C 2.292340040206909 22.4185905456543 2.170459985733032 21.20964050292969 2.170459985733032 19.99991989135742 C 2.170459985733032 18.24653053283691 2.42438006401062 16.51440048217773 2.92507004737854 14.85146999359131 L 0.8430600166320801 14.23598003387451 C 0.2836500108242035 16.09800910949707 0 18.03727912902832 0 19.99991989135742 C 0 21.35691070556641 0.1367100030183792 22.71305084228516 0.4063299894332886 24.03064918518066 C 0.6690899729728699 25.31477928161621 1.061179995536804 26.577880859375 1.571689963340759 27.78487014770508 C 2.072930097579956 28.969970703125 2.693330049514771 30.11298942565918 3.41565990447998 31.18218040466309 C 4.131130218505859 32.2412109375 4.952789783477783 33.23707962036133 5.8578200340271 34.14213943481445 C 6.762869834899902 35.04718017578125 7.758729934692383 35.86885070800781 8.817760467529297 36.58432006835938 C 9.886940002441406 37.30664825439453 11.02995014190674 37.92705917358398 12.21504020690918 38.42829895019531 C 13.42201042175293 38.93880844116211 14.68509960174561 39.33089828491211 15.96922969818115 39.59366989135742 C 17.28681945800781 39.86328887939453 18.6429500579834 40 19.99992942810059 40 M 19.99992942810059 42 C 18.50856018066406 42 17.01753044128418 41.84962844848633 15.56828022003174 41.55307006835938 C 14.15482997894287 41.26382827758789 12.76451015472412 40.83224868774414 11.4359302520752 40.27030944824219 C 10.13193988800049 39.71878051757812 8.874360084533691 39.03620147705078 7.698140144348145 38.24156188964844 C 6.533669948577881 37.45486068725586 5.438690185546875 36.55142974853516 4.443610191345215 35.55635833740234 C 3.44854998588562 34.56127166748047 2.545130014419556 33.46628189086914 1.758419990539551 32.30179977416992 C 0.9637899994850159 31.12558937072754 0.2812199890613556 29.86800003051758 -0.270330011844635 28.56394958496094 C -0.8322700262069702 27.23535919189453 -1.263849973678589 25.84502029418945 -1.553069949150085 24.43157958984375 C -1.849629998207092 22.98233985900879 -2 21.49130058288574 -2 19.99991989135742 C -2 17.84225082397461 -1.687899947166443 15.70936965942383 -1.072370052337646 13.66053009033203 L -0.4994499981403351 11.7535400390625 L 5.419660091400146 13.5033597946167 L 4.840149879455566 15.42807960510254 C 4.395780086517334 16.90395927429199 4.170460224151611 18.4421501159668 4.170460224151611 19.99991989135742 C 4.170460224151611 21.07522010803223 4.278669834136963 22.1492805480957 4.492099761962891 23.1922607421875 C 4.699900150299072 24.20771980285645 5.009940147399902 25.20652008056641 5.413609981536865 26.16090965270996 C 5.81017017364502 27.09845924377441 6.301089763641357 28.00287055969238 6.872729778289795 28.84900093078613 C 7.439290046691895 29.68762016296387 8.090020179748535 30.47631072998047 8.806859970092773 31.19315910339355 C 9.523630142211914 31.90994071960449 10.31231021881104 32.5606689453125 11.15097999572754 33.12726974487305 C 11.99711036682129 33.69889831542969 12.90151023864746 34.1898193359375 13.83905982971191 34.58638000488281 C 14.79347038269043 34.99005889892578 15.79224967956543 35.30009841918945 16.80767059326172 35.50790023803711 C 18.89346885681152 35.93470001220703 21.10643196105957 35.9347038269043 23.1922492980957 35.50788879394531 C 24.20767021179199 35.30009841918945 25.20647048950195 34.99005889892578 26.16086959838867 34.58636856079102 C 27.09843063354492 34.1898193359375 28.0028190612793 33.69890975952148 28.84893035888672 33.12728118896484 C 29.68757057189941 32.56069946289062 30.47624015808105 31.90996932983398 31.19306945800781 31.19314956665039 C 31.90987968444824 30.47632026672363 32.56061172485352 29.6876392364502 33.12715148925781 28.84902000427246 C 33.69881820678711 28.00284957885742 34.18973159790039 27.09844017028809 34.58626937866211 26.16090965270996 C 34.98994064331055 25.20652008056641 35.29996871948242 24.20771980285645 35.50777053833008 23.1922492980957 C 35.72119140625 22.1493091583252 35.82939910888672 21.07525062561035 35.82939910888672 19.99991989135742 C 35.82939910888672 18.92734909057617 35.72174835205078 17.85601997375488 35.50942993164062 16.81567001342773 C 35.30271911621094 15.80270957946777 34.99423980712891 14.80620002746582 34.59257125854492 13.85379028320312 C 34.1980094909668 12.91823959350586 33.70951080322266 12.01550960540771 33.14062881469727 11.17068958282471 C 32.57683181762695 10.33339977264404 31.92918014526367 9.54563045501709 31.21566963195801 8.829239845275879 C 30.50221061706543 8.112919807434082 29.71710968017578 7.462130069732666 28.88216972351074 6.894979953765869 C 28.03981018066406 6.322800159454346 27.1392993927002 5.830709934234619 26.20561981201172 5.432390213012695 C 25.25530052185059 5.026979923248291 24.26057052612305 4.714499950408936 23.24905967712402 4.5036301612854 C 22.21039962768555 4.287099838256836 21.14045906066895 4.175000190734863 20.06900024414062 4.170440196990967 L 18.07751083374023 4.161970138549805 L 18.07751083374023 -2.007539987564087 L 20.08502960205078 -1.999989986419678 C 21.57184028625488 -1.99439001083374 23.05794906616211 -1.839229941368103 24.5020694732666 -1.538820028305054 C 25.91073036193848 -1.245779991149902 27.29604911804199 -0.8111900091171265 28.61953926086426 -0.2471300065517426 C 29.91876983642578 0.3065899908542633 31.1715202331543 0.99058997631073 32.34299850463867 1.785859942436218 C 33.50296020507812 2.573319911956787 34.59352874755859 3.476809978485107 35.58440017700195 4.471250057220459 C 36.57535171508789 5.465760231018066 37.47497940063477 6.55964994430542 38.25830078125 7.722539901733398 C 39.04949951171875 8.897120475769043 39.72909164428711 10.1526403427124 40.27817916870117 11.45423984527588 C 40.83758163452148 12.78026008605957 41.26721954345703 14.16777038574219 41.55514144897461 15.5782299041748 C 41.8503303527832 17.0242805480957 42 18.51194953918457 42 19.99991989135742 C 42 21.49127960205078 41.84962844848633 22.98230934143066 41.55307006835938 24.43158912658691 C 41.26383972167969 25.84505081176758 40.83224868774414 27.23538970947266 40.27029037475586 28.56398010253906 C 39.7187385559082 29.86801910400391 39.03617095947266 31.1256103515625 38.24153900146484 32.30179977416992 C 37.45483016967773 33.46628952026367 36.5513916015625 34.561279296875 35.55633163452148 35.55635070800781 C 34.56124114990234 36.55141067504883 33.46625900268555 37.45484161376953 32.3017692565918 38.24156188964844 C 31.12553977966309 39.03620147705078 29.86795997619629 39.71876907348633 28.56394004821777 40.27030944824219 C 27.23537063598633 40.83224868774414 25.84505081176758 41.26382827758789 24.43158912658691 41.55307006835938 C 22.98233032226562 41.84962844848633 21.49130058288574 42 19.99992942810059 42 Z" stroke="none" fill="#fff"/>
      </g>
    </g>
    <g id="behance" transform="translate(1445.895 629)">
      <g id="Subtraction_3" data-name="Subtraction 3" transform="translate(0 0)" fill="#3b86ff">
        <path d="M 10.85581111907959 40.50009918212891 C 6.781601428985596 40.50009918212891 2.837351322174072 39.31972122192383 -0.5505286455154419 37.0865592956543 L -1.367608666419983 36.54798126220703 L -0.8468086719512939 35.71944808959961 L 0.2945813536643982 33.90361785888672 L 0.8398013710975647 33.03622817993164 L 1.693731307983398 33.60229873657227 C 4.41163158416748 35.40398025512695 7.579831123352051 36.35630035400391 10.85581111907959 36.35630035400391 C 20.01277160644531 36.35630035400391 27.46250152587891 28.90657043457031 27.46250152587891 19.74959945678711 C 27.46250152587891 10.59312915802002 20.01277160644531 3.143799543380737 10.85581111907959 3.143799543380737 L 9.85581111907959 3.143799543380737 L 9.85581111907959 2.143799543380737 L 9.85581111907959 -4.089355343239731e-07 L 9.85581111907959 -1.000000357627869 L 10.85581111907959 -1.000000357627869 C 16.39809226989746 -1.000000357627869 21.60873222351074 1.158369541168213 25.52788162231445 5.077519416809082 C 29.44703102111816 8.996689796447754 31.60541152954102 14.20732975006104 31.60541152954102 19.74959945678711 C 31.60541152954102 25.29224967956543 29.44704055786133 30.50317001342773 25.52789115905762 34.42245101928711 C 21.6087818145752 38.34167861938477 16.39813041687012 40.50009918212891 10.85581111907959 40.50009918212891 Z" stroke="none"/>
        <path d="M 10.85581111907959 39.50009918212891 C 16.13101196289062 39.50009918212891 21.09054183959961 37.44569778442383 24.82077217102051 33.71535110473633 C 28.55105209350586 29.98494911193848 30.60541152954102 25.02515029907227 30.60541152954102 19.74959945678711 C 30.60541152954102 14.47443962097168 28.55105209350586 9.514919281005859 24.82077217102051 5.784629821777344 C 21.09085083007812 2.054709672927856 16.13167190551758 -4.089355343239731e-07 10.85581111907959 -4.089355343239731e-07 L 10.85581111907959 2.143799543380737 C 20.56418228149414 2.143799543380737 28.46250152587891 10.04172992706299 28.46250152587891 19.74959945678711 C 28.46250152587891 29.45796966552734 20.56418228149414 37.35630035400391 10.85581111907959 37.35630035400391 C 7.382041454315186 37.35630035400391 4.023271560668945 36.34629821777344 1.1412113904953 34.43579864501953 L -0.0001786489883670583 36.25162887573242 C 3.223881244659424 38.37680053710938 6.977821350097656 39.50009918212891 10.85581111907959 39.50009918212891 M 10.85581111907959 41.50009918212891 C 6.585381507873535 41.50009918212891 2.450821399688721 40.26263809204102 -1.100888609886169 37.92148971557617 L -2.735028743743896 36.84432983398438 L 0.5383913516998291 31.63666915893555 L 2.246251344680786 32.768798828125 C 4.799841403961182 34.4615592956543 7.776971340179443 35.35630035400391 10.85581111907959 35.35630035400391 C 19.46137046813965 35.35630035400391 26.46250152587891 28.35515975952148 26.46250152587891 19.74959945678711 C 26.46250152587891 11.14452934265137 19.46137046813965 4.143799781799316 10.85581111907959 4.143799781799316 L 8.85581111907959 4.143799781799316 L 8.85581111907959 -2.000000476837158 L 10.85581111907959 -2.000000476837158 C 16.66520118713379 -2.000000476837158 22.12696075439453 0.262389600276947 26.23498153686523 4.370419502258301 C 30.34302139282227 8.478459358215332 32.60541152954102 13.94022941589355 32.60541152954102 19.74959945678711 C 32.60541152954102 25.55936050415039 30.34302139282227 31.02138900756836 26.23501205444336 35.12953948974609 C 22.12702178955078 39.2376594543457 16.66525077819824 41.50009918212891 10.85581111907959 41.50009918212891 Z" stroke="none" fill="#fff"/>
      </g>
    </g>
    <g id="LinkedIn" transform="translate(1456.75 629)">
      <g id="Subtraction_4" data-name="Subtraction 4" transform="translate(0 0)" fill="#a4afb7">
        <path d="M 19.05077934265137 28.06625747680664 L 18.10783958435059 27.70620727539062 L 18.10689926147461 27.70584678649902 L 16.10552024841309 26.94467735290527 L 15.17041015625 26.58903694152832 L 15.52647972106934 25.65408706665039 C 16.24325942993164 23.77200698852539 16.60669898986816 21.78544807434082 16.60669898986816 19.74960708618164 C 16.60669898986816 10.59313774108887 9.156970024108887 3.143797636032104 -1.373290956507844e-07 3.143797636032104 L -1.00000011920929 3.143797636032104 L -1.00000011920929 2.143797636032104 L -1.00000011920929 -2.473754875609302e-06 L -1.00000011920929 -1.000002503395081 L -1.373290956507844e-07 -1.000002503395081 C 5.542659759521484 -1.000002503395081 10.75358009338379 1.158367514610291 14.67284965515137 5.077517509460449 C 18.59207916259766 8.996627807617188 20.7504997253418 14.20727729797363 20.7504997253418 19.74960708618164 C 20.7504997253418 22.2888069152832 20.29683494567871 24.76947021484375 19.4021110534668 27.12270927429199 L 19.05077934265137 28.06625747680664 Z" stroke="none"/>
        <path d="M 18.46549034118652 26.77234840393066 L 18.46583938598633 26.77140808105469 C 19.31827926635742 24.5308666229248 19.7504997253418 22.16838836669922 19.7504997253418 19.74960708618164 C 19.7504997253418 14.47437763214111 17.69610023498535 9.514867782592773 13.96574974060059 5.784637451171875 C 10.23571014404297 2.054707527160645 5.276269912719727 -2.473754875609302e-06 -1.373290956507844e-07 -2.473754875609302e-06 L -1.373290956507844e-07 2.143797636032104 C 9.708370208740234 2.143797636032104 17.60669898986816 10.04172706604004 17.60669898986816 19.74960708618164 C 17.60669898986816 21.90845680236816 17.22104072570801 24.01432800292969 16.46100044250488 26.0099983215332 L 18.46549034118652 26.77234840393066 M 19.6357307434082 29.36110687255859 L 17.74925994873047 28.63969802856445 L 13.87981986999512 27.16807746887207 L 14.59195995330811 25.29818725585938 C 15.26529026031494 23.53017807006836 15.60669994354248 21.66336822509766 15.60669994354248 19.74960708618164 C 15.60669994354248 11.14453792572021 8.605560302734375 4.143797397613525 -1.373290956507844e-07 4.143797397613525 L -2.000000238418579 4.143797397613525 L -2.000000238418579 -2.000002384185791 L -1.373290956507844e-07 -2.000002384185791 C 5.809769630432129 -2.000002384185791 11.27180004119873 0.2623875141143799 15.37994003295898 4.370407581329346 C 19.48805999755859 8.478387832641602 21.7504997253418 13.94015789031982 21.7504997253418 19.74960708618164 C 21.7504997253418 22.4100513458252 21.27513313293457 25.00958061218262 20.33754539489746 27.47621917724609 L 19.6357307434082 29.36110687255859 Z" stroke="none" fill="#fff"/>
      </g>
    </g>
    <g id="Ellipse_6" data-name="Ellipse 6" transform="translate(1440 632.501)" fill="none" stroke="#ebf3ff" stroke-width="4">
      <circle cx="16.5" cy="16.5" r="16.5" stroke="none"/>
      <circle cx="16.5" cy="16.5" r="14.5" fill="none"/>
    </g>
    <g id="text" transform="translate(1447.455 644.104)">
      <text id="_2.2628" data-name="2.2628" transform="translate(0.545 7.396)" fill="#333" font-size="7" font-family="Comfortaa-Bold, Comfortaa" font-weight="700" letter-spacing="0.031em"><tspan x="0" y="0">38%</tspan></text>
    </g>
  </g>
</svg>
