<svg xmlns="http://www.w3.org/2000/svg" xmlns:xlink="http://www.w3.org/1999/xlink" width="36" height="36" viewBox="0 0 36 36">
  <defs>
    <clipPath id="clip-path">
      <rect id="Rectangle_17478" data-name="Rectangle 17478" width="36" height="36" fill="#5219a4"/>
    </clipPath>
  </defs>
  <g id="Mask_Group_107" data-name="Mask Group 107" clip-path="url(#clip-path)">
    <g id="_3063148" data-name="3063148" transform="translate(2 2)">
      <g id="Group_8039" data-name="Group 8039" transform="translate(0.471 0.471)">
        <path id="Path_5584" data-name="Path 5584" d="M226.772,413.316h3.667V418.1h-3.667Z" transform="translate(-213.016 -387.858)" fill="#fff"/>
        <path id="Path_5585" data-name="Path 5585" d="M36.8,133.422H9.382A1.882,1.882,0,0,1,7.5,131.54V115.566a1.882,1.882,0,0,1,1.882-1.882H36.8a1.882,1.882,0,0,1,1.882,1.882V131.54A1.882,1.882,0,0,1,36.8,133.422Z" transform="translate(-7.5 -107.023)" fill="#fff"/>
        <path id="Path_5586" data-name="Path 5586" d="M37.5,159.47v-15.6a.188.188,0,0,1,.188-.188H64.727a.188.188,0,0,1,.188.188v15.6a.188.188,0,0,1-.188.188H37.688A.188.188,0,0,1,37.5,159.47Z" transform="translate(-35.618 -135.141)" fill="#fff"/>
        <path id="Path_5587" data-name="Path 5587" d="M190.289,474.5h-5.8a1.694,1.694,0,0,0-1.694,1.694.188.188,0,0,0,.188.188h8.808a.188.188,0,0,0,.188-.188A1.694,1.694,0,0,0,190.289,474.5Z" transform="translate(-171.801 -445.203)" fill="#fff"/>
        <g id="Group_8038" data-name="Group 8038" transform="translate(5.87)">
          <g id="Group_8037" data-name="Group 8037">
            <path id="Path_5588" data-name="Path 5588" d="M120.515,214.866v-5.089a3.135,3.135,0,0,0-2.137-2.971l-4.542-1.527a1.045,1.045,0,0,1-.712-.99v-1.7h-4.655v1.7a1.045,1.045,0,0,1-.712.99l-4.542,1.527a3.135,3.135,0,0,0-2.137,2.971v5.089Z" transform="translate(-101.077 -190.348)" fill="#fff"/>
            <path id="Path_5589" data-name="Path 5589" d="M206.981,205.293l2.861,2.859a.376.376,0,0,0,.532,0l2.835-2.832-.113-.038a1.045,1.045,0,0,1-.713-.99v-1.7h-4.655v1.7a1.045,1.045,0,0,1-.712.99Z" transform="translate(-200.337 -190.35)" fill="#fff"/>
            <g id="Group_8036" data-name="Group 8036" transform="translate(4.253)">
              <path id="Path_5590" data-name="Path 5590" d="M179.8,13.9H168.865V9.873A2.373,2.373,0,0,1,171.238,7.5h6.186A2.373,2.373,0,0,1,179.8,9.873Z" transform="translate(-168.865 -7.5)" fill="#fff"/>
              <g id="Group_8035" data-name="Group 8035" transform="translate(0 3.663)">
                <path id="Path_5591" data-name="Path 5591" d="M174.312,75.352a5.5,5.5,0,0,1-5.447-5.52V67.92a12.061,12.061,0,0,0,4.538-.863,11.877,11.877,0,0,0,2.129-1.12.285.285,0,0,1,.382.064,4.951,4.951,0,0,0,3.883,1.919v1.971A5.464,5.464,0,0,1,174.312,75.352Z" transform="translate(-168.865 -65.889)" fill="#fff"/>
              </g>
            </g>
            <ellipse id="Ellipse_986" data-name="Ellipse 986" cx="1.689" cy="1.687" rx="1.689" ry="1.687" transform="translate(13.972 19.356)" fill="#fff"/>
          </g>
        </g>
      </g>
      <path id="Path_5592" data-name="Path 5592" d="M29.767,6.661H23.722a.471.471,0,0,0,0,.941h6.046a1.413,1.413,0,0,1,1.412,1.412V24.988A1.413,1.413,0,0,1,29.767,26.4H2.353A1.413,1.413,0,0,1,.941,24.988V9.014A1.413,1.413,0,0,1,2.353,7.6h7.771v.474c0,.157.007.313.019.467h-7.6a.659.659,0,0,0-.659.659V20.871a.471.471,0,0,0,.941,0V9.484H10.29a6.014,6.014,0,0,0,2.972,3.872v1.054a.574.574,0,0,1-.392.545L8.329,16.482A3.6,3.6,0,0,0,5.871,19.9v4.618H2.823V23.067a.471.471,0,1,0-.941,0V24.8a.659.659,0,0,0,.659.659H29.579a.659.659,0,0,0,.659-.659V9.2a.659.659,0,0,0-.659-.659h-7.6Q22,8.34,22,8.135V2.844A2.847,2.847,0,0,0,19.153,0H12.967a2.847,2.847,0,0,0-2.844,2.844V6.661H2.353A2.355,2.355,0,0,0,0,9.014V24.988a2.355,2.355,0,0,0,2.353,2.353h11.4V29.3h-.594A2.167,2.167,0,0,0,11,31.461a.659.659,0,0,0,.659.659h8.808a.659.659,0,0,0,.659-.659A2.167,2.167,0,0,0,18.958,29.3h-.594V27.341h11.4a2.355,2.355,0,0,0,2.353-2.353V9.014a2.355,2.355,0,0,0-2.353-2.353ZM25.308,24.518H6.812V19.9a2.662,2.662,0,0,1,1.817-2.525l1.063-.357a4.869,4.869,0,0,0,.057,1.991,2.4,2.4,0,0,0-1.79,2.32v1.548a.8.8,0,0,0,.794.794h.44a.471.471,0,0,0,0-.941H8.9v-1.4a1.459,1.459,0,0,1,1.456-1.458h0a1.459,1.459,0,0,1,1.456,1.458v1.4h-.293a.471.471,0,1,0,0,.941h.44a.8.8,0,0,0,.794-.794V21.328a2.4,2.4,0,0,0-2.049-2.373,3.949,3.949,0,0,1,.039-2.293l2.112-.71L15.514,18.6a.848.848,0,0,0,1.2,0l2.629-2.626,2.31.777a3.745,3.745,0,0,1,.024,2.626,2.16,2.16,0,1,0,.967.071,4.642,4.642,0,0,0,.1-2.332l.757.254A2.662,2.662,0,0,1,25.308,19.9Zm-6.873-8.966-2.323,2.32L13.739,15.5a1.513,1.513,0,0,0,.464-1.091v-.646a5.853,5.853,0,0,0,1.836.3h.021a5.954,5.954,0,0,0,1.857-.294v.639A1.514,1.514,0,0,0,18.435,15.552ZM22,20.3h0a1.217,1.217,0,1,1-1.219,1.217A1.219,1.219,0,0,1,22,20.3ZM21.843,9.484H29.3V24.518H26.249V19.9a3.6,3.6,0,0,0-2.458-3.417L19.25,14.955a.574.574,0,0,1-.392-.545V13.369a5.957,5.957,0,0,0,1.395-1.035,5.889,5.889,0,0,0,1.591-2.85ZM11.064,2.844a1.9,1.9,0,0,1,1.9-1.9h6.186a1.9,1.9,0,0,1,1.9,1.9v2.82a4.49,4.49,0,0,1-1.672-.533,4.464,4.464,0,0,1-1.369-1.174A.759.759,0,0,0,17,3.788a11.436,11.436,0,0,1-2.045,1.076,11.492,11.492,0,0,1-3.892.821Zm0,3.783a12.43,12.43,0,0,0,4.243-.89,12.378,12.378,0,0,0,2.071-1.071,5.394,5.394,0,0,0,1.55,1.288,5.443,5.443,0,0,0,2.128.656V8.135a5,5,0,0,1-2.839,4.5.459.459,0,0,0-.06.028,4.976,4.976,0,0,1-2.114.458h0a5.032,5.032,0,0,1-4.978-5.049c0-.006,0-1.444,0-1.449ZM14.7,27.341h2.726V29.3H14.7Zm4.262,2.9a1.225,1.225,0,0,1,1.19.941H11.971a1.225,1.225,0,0,1,1.19-.941Z" transform="translate(0 0)" fill="#d0dbe5"/>
    </g>
  </g>
</svg>
