<svg xmlns="http://www.w3.org/2000/svg" xmlns:xlink="http://www.w3.org/1999/xlink" width="36" height="36" viewBox="0 0 36 36">
  <defs>
    <clipPath id="clip-path">
      <rect id="Rectangle_17482" data-name="Rectangle 17482" width="36" height="36" transform="translate(-10325 -8132)" fill="#fff"/>
    </clipPath>
  </defs>
  <g id="Mask_Group_110" data-name="Mask Group 110" transform="translate(10325 8132)" clip-path="url(#clip-path)">
    <g id="_822092" data-name="822092" transform="translate(-10355.914 -8131.001)">
      <circle id="Ellipse_993" data-name="Ellipse 993" cx="1.017" cy="1.017" r="1.017" transform="translate(47.786 27.021)" fill="#fff"/>
      <g id="Group_8049" data-name="Group 8049" transform="translate(49.096 22.633)">
        <circle id="Ellipse_994" data-name="Ellipse 994" cx="0.968" cy="0.968" r="0.968" transform="translate(3.002 5.605)" fill="#fff"/>
        <circle id="Ellipse_995" data-name="Ellipse 995" cx="0.968" cy="0.968" r="0.968" transform="translate(0)" fill="#fff"/>
      </g>
      <circle id="Ellipse_996" data-name="Ellipse 996" cx="1.22" cy="1.22" r="1.22" transform="translate(52.579 24.188)" fill="#fff"/>
      <circle id="Ellipse_997" data-name="Ellipse 997" cx="1.307" cy="1.307" r="1.307" transform="translate(48.757 30.889)" fill="#fff"/>
      <path id="Path_5665" data-name="Path 5665" d="M133.772,74.089l-4.428,3.944,5.61,6.3,4.428-3.944a4.218,4.218,0,0,0,.345-5.955h0A4.218,4.218,0,0,0,133.772,74.089Z" transform="translate(-89.092 -68.171)" fill="#fff"/>
      <path id="Path_5666" data-name="Path 5666" d="M42.794,152.434l4.428-3.944,5.61,6.3L48.4,158.734a4.218,4.218,0,0,1-5.955-.345h0A4.218,4.218,0,0,1,42.794,152.434Z" transform="translate(-6.971 -138.628)" fill="#fff"/>
      <path id="Path_5667" data-name="Path 5667" d="M249.554,13.97l3.14,5.03,7.156-4.467L256.71,9.5A4.218,4.218,0,0,0,250.9,8.159h0A4.218,4.218,0,0,0,249.554,13.97Z" transform="translate(-200.722 -7.018)" fill="#fff"/>
      <path id="Path_5668" data-name="Path 5668" d="M308.987,122.653l-3.14-5.03L313,113.156l3.14,5.03A4.218,4.218,0,0,1,314.8,124h0A4.218,4.218,0,0,1,308.987,122.653Z" transform="translate(-253.874 -105.64)" fill="#fff"/>
      <path id="Path_5669" data-name="Path 5669" d="M134.011,239.2l5.135,2.127a.371.371,0,0,0,.485-.2l2.944-7.108a.371.371,0,0,0-.2-.485l-5.135-2.127a4.218,4.218,0,0,0-5.511,2.283h0A4.218,4.218,0,0,0,134.011,239.2Z" transform="translate(-91.018 -215.736)" fill="#fff"/>
      <path id="Path_5670" data-name="Path 5670" d="M308.738,239.2l-5.135,2.127a.371.371,0,0,1-.485-.2l-2.944-7.108a.371.371,0,0,1,.2-.485l5.135-2.127a4.218,4.218,0,0,1,5.511,2.283h0A4.218,4.218,0,0,1,308.738,239.2Z" transform="translate(-248.551 -215.736)" fill="#fff"/>
      <path id="Path_5671" data-name="Path 5671" d="M62.693,17.273a4.7,4.7,0,0,0,0-4.991l-3.14-5.03h0l-3.14-5.03a4.716,4.716,0,0,0-8.6,1.435,4.779,4.779,0,0,0-.108.7,4.689,4.689,0,0,0-3.359,1.188l-8.857,7.887a4.718,4.718,0,0,0,.988,7.721.5.5,0,1,0,.453-.887,3.722,3.722,0,0,1-.779-6.091l4.057-3.612,3.846,4.319a4.715,4.715,0,0,0-4.087,5.542,3.692,3.692,0,0,1-1.039.237.5.5,0,0,0,.04.995l.041,0a4.689,4.689,0,0,0,1.244-.274A4.685,4.685,0,0,0,42.8,23.923l5.136,2.127a.869.869,0,0,0,1.136-.47l.287-.693a1.465,1.465,0,1,0,1.115-2.692l1.114-2.69,1.758,4.245a1.718,1.718,0,1,0,2.071,2.226l4.958-2.054a4.71,4.71,0,0,0,2.316-6.65ZM40.955,9.9,45.011,6.29a3.7,3.7,0,0,1,2.725-.932,4.7,4.7,0,0,0,.673,1.858l2.307,3.695a3.7,3.7,0,0,1-.757.935l-3.707,3.3a4.7,4.7,0,0,0-.828-.226Zm9.58,13.7a.468.468,0,0,1-.785.347l.338-.816A.47.47,0,0,1,50.535,23.6ZM48.2,25.081,43.184,23a3.72,3.72,0,0,1,2.847-6.873l5.018,2.079Zm3.388-7.725-.042-.02-4.269-1.768,3.343-2.977a4.718,4.718,0,0,0,.677-.747l2.793,4.474-2.459,1.018ZM53.8,26.13a.722.722,0,0,1-.061-1.441l.369.89a.864.864,0,0,0,.225.316A.718.718,0,0,1,53.8,26.13Zm8.211-5.141A3.7,3.7,0,0,1,60,23l-5.018,2.079-2.847-6.873,5.018-2.079a3.72,3.72,0,0,1,4.86,4.86Zm.04-4.61a4.724,4.724,0,0,0-5.281-1.171l-1.744.722-2.366-3.789,3.736-2.332a.5.5,0,1,0-.527-.845L52.131,11.3,49.255,6.689a3.7,3.7,0,0,1-.56-1.777q0-.021,0-.042a3.738,3.738,0,0,1,.093-.989,3.72,3.72,0,0,1,6.78-1.132l2.876,4.608-.59.369a.5.5,0,1,0,.527.845l.59-.368,2.876,4.608A3.7,3.7,0,0,1,62.05,16.379ZM50.32,28.039A1.516,1.516,0,1,0,48.8,29.554,1.517,1.517,0,0,0,50.32,28.039Zm-2.035,0a.52.52,0,1,1,.52.519A.52.52,0,0,1,48.285,28.039Zm4.781-.3a1.466,1.466,0,1,0,1.466,1.466A1.468,1.468,0,0,0,53.066,27.74Zm0,1.936a.47.47,0,1,1,.47-.47A.471.471,0,0,1,53.066,29.676Zm-3,.715A1.805,1.805,0,1,0,51.87,32.2,1.807,1.807,0,0,0,50.064,30.391Zm0,2.614a.809.809,0,1,1,.809-.809A.81.81,0,0,1,50.064,33.005Z" transform="translate(0 0)" fill="#d0dbe5"/>
    </g>
  </g>
</svg>
