<svg xmlns="http://www.w3.org/2000/svg" xmlns:xlink="http://www.w3.org/1999/xlink" width="195" height="220" viewBox="0 0 195 220">
  <defs>
    <filter id="little-fluffy-puppy-pomeranian-spitz-lying-bright-yellow-background_253512-22" x="0" y="0" width="195" height="220" filterUnits="userSpaceOnUse">
      <feOffset input="SourceAlpha"/>
      <feGaussianBlur stdDeviation="5" result="blur"/>
      <feFlood flood-opacity="0.102"/>
      <feComposite operator="in" in2="blur"/>
      <feComposite in="SourceGraphic"/>
    </filter>
    <clipPath id="clip-path">
      <rect id="Rectangle_3209" data-name="Rectangle 3209" width="24" height="24" fill="#fff"/>
    </clipPath>
  </defs>
  <g id="Group_6896" data-name="Group 6896" transform="translate(-23 -800)">
    <g transform="matrix(1, 0, 0, 1, 23, 800)" filter="url(#little-fluffy-puppy-pomeranian-spitz-lying-bright-yellow-background_253512-22)">
      <rect id="little-fluffy-puppy-pomeranian-spitz-lying-bright-yellow-background_253512-22-2" data-name="little-fluffy-puppy-pomeranian-spitz-lying-bright-yellow-background_253512-22" width="165" height="190" rx="15" transform="translate(15 15)" fill="#ebf3ff"/>
    </g>
    <path id="selective-focus-closeup-shot-gray-furry-tabby-cat-sitting-wooden-chair_181624-8432" d="M15,0H150a15,15,0,0,1,15,15V126a0,0,0,0,1,0,0H0a0,0,0,0,1,0,0V15A15,15,0,0,1,15,0Z" transform="translate(38 815)" fill="#fff"/>
    <text id="Available" transform="translate(47 981)" fill="#3b86ff" font-size="12" font-family="Comfortaa-Medium, Comfortaa" font-weight="500"><tspan x="0" y="0">Available</tspan></text>
    <g id="ic_delet" transform="translate(171 820)" clip-path="url(#clip-path)">
      <g id="ic_delet-2" data-name="ic_delet" transform="translate(5.65 3.666)">
        <path id="Path_1762" data-name="Path 1762" d="M60.241,2.083H57.376V1.563A1.563,1.563,0,0,0,55.813,0H53.73a1.563,1.563,0,0,0-1.563,1.563v.521H49.3a1.3,1.3,0,0,0-1.3,1.3V4.427a.521.521,0,0,0,.521.521h12.5a.521.521,0,0,0,.521-.521V3.386A1.3,1.3,0,0,0,60.241,2.083Zm-7.032-.521a.522.522,0,0,1,.521-.521h2.083a.522.522,0,0,1,.521.521v.521H53.209Z" transform="translate(-48)" fill="#3b86ff"/>
        <path id="Path_1763" data-name="Path 1763" d="M73.527,184a.163.163,0,0,0-.163.171l.43,9.019a1.561,1.561,0,0,0,1.561,1.488h7.91a1.561,1.561,0,0,0,1.561-1.488l.43-9.019a.163.163,0,0,0-.163-.171Zm7.866,1.3a.521.521,0,0,1,1.042,0v6.771a.521.521,0,1,1-1.042,0Zm-2.6,0a.521.521,0,0,1,1.042,0v6.771a.521.521,0,1,1-1.042,0Zm-2.6,0a.521.521,0,0,1,1.042,0v6.771a.521.521,0,1,1-1.042,0Z" transform="translate(-72.538 -178.01)" fill="#3b86ff"/>
      </g>
    </g>
    <g id="ic_edite" transform="translate(44 820)" clip-path="url(#clip-path)">
      <g id="ic_edite-2" data-name="ic_edite" transform="translate(3.75 4.5)">
        <path id="Path_1764" data-name="Path 1764" d="M9.64,3.863l3.153,3.153L4.811,15,1.66,11.846ZM15.187,3.1,13.78,1.7a1.4,1.4,0,0,0-1.971,0L10.462,3.043,13.615,6.2l1.571-1.571A1.075,1.075,0,0,0,15.187,3.1ZM.009,16.278a.359.359,0,0,0,.434.427l3.514-.852L.806,12.7Z" transform="translate(-0.001 -1.289)" fill="#3b86ff"/>
      </g>
    </g>
    <text id="Lorem_ipsum_dolor_" data-name="Lorem ipsum dolor " transform="translate(47 963)" fill="#343434" font-size="14" font-family="Comfortaa-Bold, Comfortaa" font-weight="700"><tspan x="0" y="0">Lorem ipsum dolor </tspan></text>
    <g id="Products-img" transform="translate(64.081 828)">
      <g id="freepik--Floor--inject-3_1_" transform="translate(0 38.577)">
        <ellipse id="freepik--floor--inject-3_1_2" data-name="freepik--floor--inject-3_1_" cx="53.919" cy="31.144" rx="53.919" ry="31.144" fill="#ebf3ff"/>
      </g>
      <g id="freepik--Shadows--inject-3_1_" transform="translate(6.646 46.584)">
        <path id="freepik--Shadow--inject-3_1_" d="M45.75,235.6l-15.516-8.959a.6.6,0,0,1,0-1.132l28.044-16.2a2.171,2.171,0,0,1,1.961,0l15.518,8.959a.6.6,0,0,1,0,1.132L47.71,235.6A2.157,2.157,0,0,1,45.75,235.6Z" transform="translate(-29.828 -209.08)" fill="#e4edf9"/>
        <ellipse id="freepik--shadow--inject-3_3_" cx="13.54" cy="7.818" rx="13.54" ry="7.818" transform="translate(71.884 19.188)" fill="#e4edf9"/>
        <ellipse id="freepik--shadow--inject-3_2_" cx="13.54" cy="7.818" rx="13.54" ry="7.818" transform="translate(19.311 28.06)" fill="#e4edf9"/>
      </g>
      <g id="freepik--Plants--inject-3_1_" transform="translate(10.902 50.816)">
        <g id="freepik--plants--inject-3_3_">
          <path id="Path_4278" data-name="Path 4278" d="M59.964,238.246c-.223-3.32-.59-4.456-2.656-6.978a9.544,9.544,0,0,0-4.28-2.908,3.626,3.626,0,0,0-3.458.3,1.819,1.819,0,0,0-.446,2.192c.35.744,2.106,1.807,3.676,2.625,2.4,1.252,5.543,3.012,6.891,7.2l.292,2.228Z" transform="translate(-48.934 -228.074)" fill="#3b86ff"/>
          <path id="Path_4279" data-name="Path 4279" d="M59.964,238.246c-.223-3.32-.59-4.456-2.656-6.978a9.544,9.544,0,0,0-4.28-2.908,3.626,3.626,0,0,0-3.458.3,1.819,1.819,0,0,0-.446,2.192c.35.744,2.106,1.807,3.676,2.625,2.4,1.252,5.543,3.012,6.891,7.2l.292,2.228Z" transform="translate(-48.934 -228.074)" opacity="0.2"/>
          <path id="Path_4280" data-name="Path 4280" d="M66.47,245.756a.109.109,0,0,1-.107-.1c-.515-5.909-5.441-9.636-8.8-10.055a.112.112,0,0,1-.1-.125.107.107,0,0,1,.118-.1h.007c3.433.43,8.467,4.233,8.995,10.249a.111.111,0,0,1-.1.12h0Z" transform="translate(-55.564 -233.75)" fill="#fff"/>
          <path id="Path_4281" data-name="Path 4281" d="M60.417,273.771l-.189.16a5.441,5.441,0,0,1-3.235.913,4,4,0,0,1-2.279-.4.931.931,0,0,1-.419-.947c.1-.383.526-.668.5-1.056-.8-.123-1.66.223-2.411-.08a2.909,2.909,0,0,1-1.243-1.3,1.3,1.3,0,0,1-.285-1c.123-.408.59-.584,1-.715a.847.847,0,0,0,.3-.149.286.286,0,0,0,.091-.3c-.051-.129-.209-.172-.345-.192-.292-.042-.59-.045-.891-.1a1.319,1.319,0,0,1-.771-.406,1.715,1.715,0,0,1-.3-.994,14.873,14.873,0,0,1-.053-1.782,12.973,12.973,0,0,0-.12-1.544,10.827,10.827,0,0,1,4.441-.655,3.2,3.2,0,0,1,2.544.983,1.584,1.584,0,0,1,.223.735c0,.091-.056.577,0,.613a.113.113,0,0,0,.136-.029.285.285,0,0,0,.065-.136c.074-.254.2-.459.274-.7a1.875,1.875,0,0,1,.223-.7.8.8,0,0,1,.646-.234,2.337,2.337,0,0,1,1.945,1.544,6.835,6.835,0,0,1,.341,2.589l.417-.856c.488-1,1.034.856,1.114,1.2a5.6,5.6,0,0,1-1.72,5.557Z" transform="translate(-49.576 -255.374)" fill="#3b86ff"/>
          <path id="Path_4282" data-name="Path 4282" d="M65.515,277.65a.118.118,0,0,1-.1-.082c-1.208-3.743-6.929-8.689-9.119-9.434a.115.115,0,0,1-.074-.149v0a.12.12,0,0,1,.152-.074c2.228.76,8.041,5.793,9.266,9.581a.118.118,0,0,1-.076.149h0A.116.116,0,0,1,65.515,277.65Z" transform="translate(-54.596 -259.029)" fill="#fff"/>
          <path id="Path_4283" data-name="Path 4283" d="M66.422,278.869a.112.112,0,0,1-.053-.209,6.817,6.817,0,0,1,4.612-.41A10.2,10.2,0,0,1,71.388,274v-.031a.115.115,0,0,1,.223.058v.033a9.885,9.885,0,0,0-.381,4.327.106.106,0,0,1-.036.1.112.112,0,0,1-.1.022,6.556,6.556,0,0,0-4.608.345A.1.1,0,0,1,66.422,278.869Z" transform="translate(-62.439 -263.677)" fill="#fff"/>
        </g>
        <g id="freepik--plants--inject-3_2_" transform="translate(83.774 10.694)">
          <path id="Path_4284" data-name="Path 4284" d="M424.93,284.412a12.207,12.207,0,0,1,1.266-4.65,6.673,6.673,0,0,1,4.436-3.663c1.624-.236,3.041,1.179,1.364,2.326s-4.715,2.4-5.889,6.357Z" transform="translate(-424.93 -276.073)" fill="#3b86ff"/>
          <g id="Group_6891" data-name="Group 6891" opacity="0.1">
            <path id="Path_4285" data-name="Path 4285" d="M424.93,284.412a12.207,12.207,0,0,1,1.266-4.65,6.673,6.673,0,0,1,4.436-3.663c1.624-.236,3.041,1.179,1.364,2.326s-4.715,2.4-5.889,6.357Z" transform="translate(-424.93 -276.073)"/>
          </g>
          <path id="Path_4286" data-name="Path 4286" d="M426.611,286.332h-.018a.092.092,0,0,1-.056-.111,10.472,10.472,0,0,1,6.08-6.787.084.084,0,0,1,.107.053.008.008,0,0,0,0,0,.09.09,0,0,1-.058.109,10.279,10.279,0,0,0-5.964,6.684A.09.09,0,0,1,426.611,286.332Z" transform="translate(-426.176 -278.681)" fill="#fff"/>
          <path id="Path_4287" data-name="Path 4287" d="M434.92,302a1.535,1.535,0,0,1-.86.744,1.771,1.771,0,0,0-.9.7c-.348.7.359,1.611-.02,2.3a1.21,1.21,0,0,1-.8.533,7.1,7.1,0,0,1-.809.127,2.8,2.8,0,0,1-.388,0,1.76,1.76,0,0,0-1.114.194c-.519.336-.639,1.027-.931,1.573a2.553,2.553,0,0,1-1.738,1.254,1.75,1.75,0,0,1-.94,0c-.018-.009-.036-.018-.053-.029h0a1.166,1.166,0,0,1-.1-.107l-.011-.016a3.753,3.753,0,0,1,0-1.083.309.309,0,0,0,0-.065c-.042-.421-.082-.84-.118-1.259-.071-.771-.131-1.546-.176-2.322a3.8,3.8,0,0,1,.056-1.537c.2-.535.786-.586.974-1.114.076-.209.109-.43.18-.642a1.808,1.808,0,0,1,1.464-1.172c1.018-.118,1.992.648,3.008.506a7.722,7.722,0,0,0,.773-.2,2.225,2.225,0,0,1,2.3.633A1.083,1.083,0,0,1,434.92,302Z" transform="translate(-425.691 -294.719)" fill="#3b86ff"/>
          <path id="Path_4288" data-name="Path 4288" d="M426.354,311.042h0a.087.087,0,0,1-.069-.1h0c1.065-5.394,6.6-6.526,7.912-6.519a.089.089,0,0,1,.087.089.086.086,0,0,1-.087.087h0c-1.286,0-6.7,1.1-7.74,6.379A.088.088,0,0,1,426.354,311.042Z" transform="translate(-425.982 -298.104)" fill="#fff"/>
          <path id="Path_4289" data-name="Path 4289" d="M439.626,316.286a.077.077,0,0,1-.047-.022,4.669,4.669,0,0,0-3.872-.813.088.088,0,0,1-.1-.067.09.09,0,0,1,.067-.1,4.823,4.823,0,0,1,4.031.856.085.085,0,0,1,0,.12l0,0A.1.1,0,0,1,439.626,316.286Z" transform="translate(-433.225 -306.443)" fill="#fff"/>
        </g>
      </g>
      <g id="freepik--Device--inject-3_1_" transform="translate(20.87 1.372)">
        <g id="freepik--device--inject-3_1_2" data-name="freepik--device--inject-3_1_">
          <g id="freepik--Mobile--inject-3_1_">
            <path id="Path_4290" data-name="Path 4290" d="M117.472,6.5,94.889,19.541A2.433,2.433,0,0,0,93.67,21.56V74.068a2.295,2.295,0,0,0,3.578,2.068l22.5-12.992a2.877,2.877,0,0,0,1.3-2.248V8.563a2.721,2.721,0,0,0-1.141-2.155A2.677,2.677,0,0,0,117.472,6.5Z" transform="translate(-93.67 -6.156)" fill="#44425d"/>
            <path id="Path_4291" data-name="Path 4291" d="M96.946,126.127a2.661,2.661,0,0,1-2.126-.058,2.716,2.716,0,0,1-1.141-2.157V71.4a2.346,2.346,0,0,1,.328-1.114L96.1,71.478a2.518,2.518,0,0,0-.6,1.511v51.978C95.5,125.962,96.124,126.432,96.946,126.127Z" transform="translate(-93.678 -56.001)" fill="#002b5c" opacity="0.4"/>
            <path id="Path_4292" data-name="Path 4292" d="M103,26.335a2.538,2.538,0,0,0-1.143,1.981V80.294c0,1.114.791,1.575,1.76,1.016l22.5-12.994a2.877,2.877,0,0,0,1.3-2.248V13.736c0-.822-.584-1.161-1.3-.749Z" transform="translate(-100.035 -11.329)" fill="#44425d"/>
            <path id="Path_4293" data-name="Path 4293" d="M103,26.335a2.538,2.538,0,0,0-1.143,1.981V80.294c0,1.114.791,1.575,1.76,1.016l22.5-12.994a2.877,2.877,0,0,0,1.3-2.248V13.736c0-.822-.584-1.161-1.3-.749Z" transform="translate(-100.035 -11.329)" opacity="0.2"/>
            <path id="Path_4294" data-name="Path 4294" d="M107.932,44.644a2.713,2.713,0,0,0-1.232,2.143V91.5c0,.786.55,1.114,1.232.711L129.1,79.99a2.731,2.731,0,0,0,1.234-2.137V33.13c0-.782-.555-1.114-1.234-.711Z" transform="translate(-103.797 -26.434)" fill="#002b5c" opacity="0.4"/>
            <path id="Path_4295" data-name="Path 4295" d="M128.776,78.088V33.87L107.932,45.9a2.721,2.721,0,0,0-1.232,2.148V92.258l20.843-12.031A2.733,2.733,0,0,0,128.776,78.088Z" transform="translate(-103.797 -27.695)" fill="#99c0fd"/>
            <path id="Path_4296" data-name="Path 4296" d="M128.776,78.088V33.87L107.932,45.9a2.721,2.721,0,0,0-1.232,2.148V92.258l20.843-12.031A2.733,2.733,0,0,0,128.776,78.088Z" transform="translate(-103.797 -27.695)" fill="#fff" opacity="0.7"/>
            <path id="Path_4297" data-name="Path 4297" d="M150.406,47.475l3.754-2.168c.223-.129.4-.036.4.2a.875.875,0,0,1-.4.668l-3.754,2.166c-.223.129-.406.038-.406-.2A.87.87,0,0,1,150.406,47.475Z" transform="translate(-137.449 -36.539)" fill="#002b5c" opacity="0.4"/>
            <path id="Path_4298" data-name="Path 4298" d="M179.4,38.326c.223-.123.381-.025.381.223a.837.837,0,0,1-.381.668c-.209.12-.379.022-.379-.223A.835.835,0,0,1,179.4,38.326Z" transform="translate(-160.004 -31.118)" fill="#002b5c" opacity="0.4"/>
            <path id="Path_4299" data-name="Path 4299" d="M186.229,34.408c.212-.123.381-.022.381.223a.837.837,0,0,1-.381.668c-.209.12-.379.022-.379-.223A.835.835,0,0,1,186.229,34.408Z" transform="translate(-165.312 -28.072)" fill="#002b5c" opacity="0.4"/>
            <path id="Path_4300" data-name="Path 4300" d="M131.609,65.941c.223-.12.381-.022.381.223a.832.832,0,0,1-.381.668c-.209.123-.379.025-.379-.223A.85.85,0,0,1,131.609,65.941Z" transform="translate(-122.861 -52.581)" fill="#002b5c" opacity="0.4"/>
            <path id="Path_4301" data-name="Path 4301" d="M138.441,62c.209-.12.379-.022.379.223a.835.835,0,0,1-.379.668c-.223.123-.381.025-.381-.223A.837.837,0,0,1,138.441,62Z" transform="translate(-128.17 -49.519)" fill="#002b5c" opacity="0.4"/>
            <path id="Path_4302" data-name="Path 4302" d="M122.212,8.484c-.047-.744-.608-1.034-1.29-.642L97.8,21.184a2.134,2.134,0,0,0-.539.47L95.17,20.466a2.313,2.313,0,0,1,.771-.842l22.7-13.105a2.733,2.733,0,0,1,2.437-.091A2.639,2.639,0,0,1,122.212,8.484Z" transform="translate(-94.836 -6.177)" opacity="0.3"/>
          </g>
        </g>
      </g>
      <g id="freepik--Features--inject-3_1_" transform="translate(50.64)">
        <g id="freepik--features--inject-3_1_2" data-name="freepik--features--inject-3_1_" transform="translate(0 0)">
          <path id="Path_4303" data-name="Path 4303" d="M233.34,31.507a8.9,8.9,0,0,1,4.01-6.963,2.825,2.825,0,0,1,2.845-.281l1.023.6a4.769,4.769,0,0,1,.668,2.31,8.907,8.907,0,0,1-4.01,6.965,4.759,4.759,0,0,1-2.339.57l-1.027-.6A2.83,2.83,0,0,1,233.34,31.507Z" transform="translate(-231.991 -18.649)" fill="#3b86ff"/>
          <path id="Path_4304" data-name="Path 4304" d="M234.5,40.08a8.2,8.2,0,0,0-1.159,3.928,2.829,2.829,0,0,0,1.176,2.6l1.027.6a4.759,4.759,0,0,0,2.339-.57,8.21,8.21,0,0,0,2.823-2.97Z" transform="translate(-231.991 -31.15)" opacity="0.15"/>
          <path id="Path_4305" data-name="Path 4305" d="M245.944,27.169a8.242,8.242,0,0,1-1.2,3.995l-6.207-3.589a8.255,8.255,0,0,1,2.861-3.035,2.815,2.815,0,0,1,2.845-.281l1.023.6A4.776,4.776,0,0,1,245.944,27.169Z" transform="translate(-236.032 -18.644)" fill="#fff" opacity="0.4"/>
          <path id="Path_4306" data-name="Path 4306" d="M233.72,43.017a8.926,8.926,0,0,1,1.074-2.937L241,43.669a8.913,8.913,0,0,1-2.005,2.4Z" transform="translate(-232.286 -31.15)" fill="#3b86ff" opacity="0.76"/>
          <ellipse id="Ellipse_954" data-name="Ellipse 954" cx="5.686" cy="3.282" rx="5.686" ry="3.282" transform="matrix(0.5, -0.866, 0.866, 0.5, 0.709, 14.422)" fill="#3b86ff"/>
          <path id="Path_4307" data-name="Path 4307" d="M231.425,31.281a3.929,3.929,0,0,1-1.987-.519A4.6,4.6,0,0,1,227.312,27h0a9.841,9.841,0,0,1,5.256-9.111,4.25,4.25,0,0,1,6.446,3.723,9.846,9.846,0,0,1-5.258,9.111A5.559,5.559,0,0,1,231.425,31.281Zm3.482-13.749a5.334,5.334,0,0,0-2.25.541,9.629,9.629,0,0,0-5.142,8.912h0a4.049,4.049,0,0,0,6.158,3.556,9.633,9.633,0,0,0,5.145-8.912,4.442,4.442,0,0,0-2.016-3.607A3.714,3.714,0,0,0,234.908,17.532Z" transform="translate(-227.284 -13.468)" fill="#3b86ff"/>
          <rect id="Rectangle_17344" data-name="Rectangle 17344" width="15.467" height="0.203" transform="translate(11.614 8.849) rotate(-30.031)" fill="#3b86ff"/>
          <path id="Path_4308" data-name="Path 4308" d="M335.33,1.736a2.054,2.054,0,0,1,.929-1.609c.512-.3.927-.056.927.535a2.055,2.055,0,0,1-.927,1.609C335.747,2.563,335.33,2.326,335.33,1.736Z" transform="translate(-311.257 0)" fill="#3b86ff"/>
          <path id="Path_4309" data-name="Path 4309" d="M295.281,23.173l7.664-4.4c.131-.078.241-.022.241.123a.523.523,0,0,1-.241.4l-7.664,4.4c-.134.078-.241.022-.241-.12A.511.511,0,0,1,295.281,23.173Z" transform="translate(-279.944 -14.566)" fill="#44425d"/>
          <path id="Path_4310" data-name="Path 4310" d="M295.281,30.206l7.664-4.4c.131-.076.241-.022.241.123a.527.527,0,0,1-.241.4l-7.664,4.4c-.134.076-.241.022-.241-.123A.511.511,0,0,1,295.281,30.206Z" transform="translate(-279.944 -20.033)" fill="#44425d"/>
          <path id="Path_4311" data-name="Path 4311" d="M295.281,37.246l7.664-4.4c.131-.076.241-.022.241.123a.527.527,0,0,1-.241.4l-7.664,4.4c-.134.076-.241.022-.241-.123A.511.511,0,0,1,295.281,37.246Z" transform="translate(-279.944 -25.504)" fill="#44425d"/>
          <path id="Path_4312" data-name="Path 4312" d="M233.34,106.348a8.907,8.907,0,0,1,4.01-6.963,2.819,2.819,0,0,1,2.845-.279l1.023.6a4.784,4.784,0,0,1,.668,2.313,8.907,8.907,0,0,1-4.01,6.963,4.759,4.759,0,0,1-2.339.57l-1.027-.6A2.835,2.835,0,0,1,233.34,106.348Z" transform="translate(-231.991 -76.816)" fill="#3b86ff"/>
          <path id="Path_4313" data-name="Path 4313" d="M234.5,114.92a8.211,8.211,0,0,0-1.159,3.928,2.829,2.829,0,0,0,1.176,2.6l1.027.6a4.759,4.759,0,0,0,2.339-.57,8.2,8.2,0,0,0,2.823-2.968Z" transform="translate(-231.991 -89.315)" opacity="0.15"/>
          <path id="Path_4314" data-name="Path 4314" d="M245.944,102.012a8.241,8.241,0,0,1-1.2,3.993l-6.207-3.589a8.255,8.255,0,0,1,2.861-3.035,2.809,2.809,0,0,1,2.845-.279l1.023.6A4.784,4.784,0,0,1,245.944,102.012Z" transform="translate(-236.032 -76.811)" fill="#fff" opacity="0.4"/>
          <path id="Path_4315" data-name="Path 4315" d="M233.72,117.857a8.926,8.926,0,0,1,1.074-2.937L241,118.509a8.889,8.889,0,0,1-2.005,2.4Z" transform="translate(-232.286 -89.315)" fill="#3b86ff" opacity="0.76"/>
          <ellipse id="Ellipse_955" data-name="Ellipse 955" cx="5.686" cy="3.282" rx="5.686" ry="3.282" transform="matrix(0.5, -0.866, 0.866, 0.5, 0.708, 31.098)" fill="#3b86ff"/>
          <path id="Path_4316" data-name="Path 4316" d="M231.458,106.122a3.932,3.932,0,0,1-1.976-.51,4.609,4.609,0,0,1-2.126-3.765h0A9.814,9.814,0,0,1,232.6,92.73a4.251,4.251,0,0,1,6.446,3.723,9.846,9.846,0,0,1-5.258,9.11A5.559,5.559,0,0,1,231.458,106.122Zm3.482-13.749a5.331,5.331,0,0,0-2.25.539,9.629,9.629,0,0,0-5.142,8.912h0a4.049,4.049,0,0,0,6.158,3.556,9.631,9.631,0,0,0,5.145-8.912,4.411,4.411,0,0,0-2.025-3.607A3.753,3.753,0,0,0,234.94,92.373Z" transform="translate(-227.317 -71.634)" fill="#3b86ff"/>
          <rect id="Rectangle_17345" data-name="Rectangle 17345" width="15.463" height="0.203" transform="translate(11.618 25.501) rotate(-30.031)" fill="#3b86ff"/>
          <path id="Path_4317" data-name="Path 4317" d="M335.56,76.446a2.055,2.055,0,0,1,.927-1.609c.512-.3.929-.056.929.537a2.05,2.05,0,0,1-.929,1.606C335.974,77.282,335.56,77.043,335.56,76.446Z" transform="translate(-311.436 -58.065)" fill="#3b86ff"/>
          <path id="Path_4318" data-name="Path 4318" d="M295.281,97.913l7.664-4.4c.131-.078.241-.022.241.12a.511.511,0,0,1-.241.4l-7.664,4.4c-.134.078-.241.022-.241-.123A.507.507,0,0,1,295.281,97.913Z" transform="translate(-279.944 -72.653)" fill="#44425d"/>
          <path id="Path_4319" data-name="Path 4319" d="M295.281,104.946l7.664-4.4c.131-.076.241-.022.241.123a.527.527,0,0,1-.241.4l-7.664,4.4c-.134.076-.241.022-.241-.123A.511.511,0,0,1,295.281,104.946Z" transform="translate(-279.944 -78.121)" fill="#44425d"/>
          <path id="Path_4320" data-name="Path 4320" d="M295.281,111.983l7.664-4.4c.131-.078.241-.022.241.123a.523.523,0,0,1-.241.4l-7.664,4.4c-.134.078-.241.022-.241-.123A.507.507,0,0,1,295.281,111.983Z" transform="translate(-279.944 -83.589)" fill="#44425d"/>
          <path id="Path_4321" data-name="Path 4321" d="M233.34,181.191a8.907,8.907,0,0,1,4.01-6.965,2.819,2.819,0,0,1,2.845-.279l1.023.6a4.784,4.784,0,0,1,.668,2.313,8.9,8.9,0,0,1-4.01,6.963,4.761,4.761,0,0,1-2.339.573l-1.027-.6A2.84,2.84,0,0,1,233.34,181.191Z" transform="translate(-231.991 -134.981)" fill="#3b86ff"/>
          <path id="Path_4322" data-name="Path 4322" d="M234.5,189.76a8.212,8.212,0,0,0-1.159,3.93,2.829,2.829,0,0,0,1.176,2.6l1.027.6a4.761,4.761,0,0,0,2.339-.573,8.2,8.2,0,0,0,2.823-2.968Z" transform="translate(-231.991 -147.481)" opacity="0.15"/>
          <path id="Path_4323" data-name="Path 4323" d="M245.944,176.85a8.256,8.256,0,0,1-1.2,3.995l-6.207-3.592a8.272,8.272,0,0,1,2.861-3.035,2.8,2.8,0,0,1,2.845-.279l1.023.6A4.784,4.784,0,0,1,245.944,176.85Z" transform="translate(-236.032 -134.974)" fill="#fff" opacity="0.4"/>
          <path id="Path_4324" data-name="Path 4324" d="M233.72,192.7a8.926,8.926,0,0,1,1.074-2.937L241,193.352a8.913,8.913,0,0,1-2.005,2.4Z" transform="translate(-232.286 -147.481)" fill="#3b86ff" opacity="0.76"/>
          <ellipse id="Ellipse_956" data-name="Ellipse 956" cx="5.686" cy="3.282" rx="5.686" ry="3.282" transform="matrix(0.5, -0.866, 0.866, 0.5, 0.709, 47.772)" fill="#3b86ff"/>
          <path id="Path_4325" data-name="Path 4325" d="M231.425,180.943a3.933,3.933,0,0,1-1.987-.517,4.6,4.6,0,0,1-2.126-3.765h0a9.856,9.856,0,0,1,5.256-9.115,4.25,4.25,0,0,1,6.446,3.721,9.846,9.846,0,0,1-5.258,9.111A5.566,5.566,0,0,1,231.425,180.943Zm3.482-13.749a5.334,5.334,0,0,0-2.25.541,9.632,9.632,0,0,0-5.142,8.912h0a4.051,4.051,0,0,0,6.167,3.554,9.634,9.634,0,0,0,5.145-8.912,4.4,4.4,0,0,0-2.025-3.6,3.714,3.714,0,0,0-1.894-.49Z" transform="translate(-227.284 -129.78)" fill="#3b86ff"/>
          <rect id="Rectangle_17346" data-name="Rectangle 17346" width="15.463" height="0.203" transform="translate(11.615 42.155) rotate(-30.031)" fill="#3b86ff"/>
          <path id="Path_4326" data-name="Path 4326" d="M335.66,151.206a2.054,2.054,0,0,1,.929-1.609c.512-.3.927-.056.927.537a2.048,2.048,0,0,1-.927,1.606C336.077,152.037,335.66,151.8,335.66,151.206Z" transform="translate(-311.513 -116.168)" fill="#3b86ff"/>
          <path id="Path_4327" data-name="Path 4327" d="M295.281,172.646l7.664-4.4c.131-.076.241-.022.241.123a.527.527,0,0,1-.241.4l-7.664,4.407c-.134.076-.241.022-.241-.123A.516.516,0,0,1,295.281,172.646Z" transform="translate(-279.944 -130.737)" fill="#44425d"/>
          <path id="Path_4328" data-name="Path 4328" d="M295.281,179.683l7.664-4.4c.131-.078.241-.022.241.123a.527.527,0,0,1-.241.4l-7.664,4.4c-.134.078-.241.022-.241-.12A.513.513,0,0,1,295.281,179.683Z" transform="translate(-279.944 -136.205)" fill="#44425d"/>
          <path id="Path_4329" data-name="Path 4329" d="M295.281,186.759l7.664-4.383c.131-.078.241-.022.241.12a.511.511,0,0,1-.241.4l-7.664,4.38c-.134.078-.241.022-.241-.123A.519.519,0,0,1,295.281,186.759Z" transform="translate(-279.944 -141.715)" fill="#44425d"/>
        </g>
      </g>
      <g id="freepik--character-1--inject-3_1_" transform="translate(20.141 24.822)">
        <g id="freepik--character--inject-3_1_">
          <path id="Path_4330" data-name="Path 4330" d="M90.4,153.048a6.3,6.3,0,0,1,.116-1.023,1.439,1.439,0,0,1,.434-.811.318.318,0,0,1,.178-.085v1.194a1.787,1.787,0,0,0,.769.871.74.74,0,0,0,.2.085.265.265,0,0,0,.2-.036c.118-.08.071-.194.031-.3a2.445,2.445,0,0,1-.134-1.052.513.513,0,0,1,.08-.265.207.207,0,0,1,.245-.078.293.293,0,0,1,.125.163,5.6,5.6,0,0,0,.588,1.143c.506.642.481,1.172.976,1.782.183.223,2.228,2.005,3.859,3.271,3.046-3.07,4.793-5.269,5.969-4.788,1.319.274,2.1,1.782.475,3.393a49.315,49.315,0,0,1-5.347,4.349c-.833.539-1.591.978-2.631-.069-1.337-1.35-2.088-2.366-2.647-3.006a7.873,7.873,0,0,0-1.54-1.31c-.245-.165-.5-.321-.744-.488a2.2,2.2,0,0,1-.535-.55,3.514,3.514,0,0,1-.586-1.395A4.825,4.825,0,0,1,90.4,153.048Z" transform="translate(-90.396 -142.279)" fill="#ebb78c"/>
          <path id="Path_4331" data-name="Path 4331" d="M121.933,180.64a3.928,3.928,0,0,0-.833,1.259,2.634,2.634,0,0,1,.519-1.508Z" transform="translate(-114.259 -165.02)" fill="#d9a884"/>
          <path id="Path_4332" data-name="Path 4332" d="M134.131,159.714a2.277,2.277,0,0,0-3.064.163c-1.081.922-3.438,3.3-3.438,3.3a3.493,3.493,0,0,0,.642,1.965c.7,1.027,1.27,1.161,1.27,1.161l3.788-3.068Z" transform="translate(-119.334 -148.551)" fill="#629cfd"/>
          <path id="Path_4333" data-name="Path 4333" d="M181.386,384.2c.111.548-.087.833-.793,1.241a3.937,3.937,0,0,1-2.979.207c-1.165-.339-1.722-.847-2.206-.967s-1.682-.134-2.161-.272-.47-.385-.468-.963Z" transform="translate(-154.423 -322.837)" fill="#455a64"/>
          <path id="Path_4334" data-name="Path 4334" d="M173.148,371.01s-.223.688-.35,1.29a3.522,3.522,0,0,0-.069,1.64c.167.359.822.593,1.836.586a6.112,6.112,0,0,1,2.382.831,3.761,3.761,0,0,0,2.275.316,2.879,2.879,0,0,0,1.983-1c.145-.374.185-.655-1.943-1.56a10.969,10.969,0,0,1-3.5-2.048Z" transform="translate(-154.324 -313.169)" fill="#3b86ff"/>
          <g id="Group_6892" data-name="Group 6892" transform="translate(18.327 57.841)" opacity="0.3">
            <path id="Path_4335" data-name="Path 4335" d="M173.148,371.01s-.223.688-.35,1.29a3.522,3.522,0,0,0-.069,1.64c.167.359.822.593,1.836.586a6.112,6.112,0,0,1,2.382.831,3.761,3.761,0,0,0,2.275.316,2.879,2.879,0,0,0,1.983-1c.145-.374.185-.655-1.943-1.56a10.969,10.969,0,0,1-3.5-2.048Z" transform="translate(-172.651 -371.01)"/>
          </g>
          <path id="Path_4336" data-name="Path 4336" d="M193.23,382.533a2.913,2.913,0,0,1,1.667-2.348c1.337-.472,2.515.521,2.384,1.386C197.187,382.152,195.558,383.473,193.23,382.533Z" transform="translate(-170.318 -320.205)" fill="#fafafa"/>
          <path id="Path_4337" data-name="Path 4337" d="M192.535,378.158a1.731,1.731,0,0,0-1.014.446c-.428.361-.446.6-.446.6a.223.223,0,0,1-.388-.185A1.4,1.4,0,0,1,192,377.9.5.5,0,0,1,192.535,378.158Z" transform="translate(-168.34 -318.519)" fill="#fafafa"/>
          <path id="Path_4338" data-name="Path 4338" d="M188.789,376.346a1.531,1.531,0,0,0-1.023.408c-.428.359-.43.642-.43.642a.223.223,0,0,1-.388-.185,1.4,1.4,0,0,1,1.312-1.114A.492.492,0,0,1,188.789,376.346Z" transform="translate(-165.433 -317.115)" fill="#fafafa"/>
          <path id="Path_4339" data-name="Path 4339" d="M184.805,374.1a1.532,1.532,0,0,0-1.049.336c-.446.33-.472.613-.472.613a.222.222,0,0,1-.314,0,.229.229,0,0,1-.06-.214,1.4,1.4,0,0,1,1.386-1.018A.488.488,0,0,1,184.805,374.1Z" transform="translate(-162.292 -315.345)" fill="#fafafa"/>
          <path id="Path_4340" data-name="Path 4340" d="M174.88,364.05v1.618c0,.336.394.838,1.421.8.722-.027,1.225-.223,1.2-.813v-1.471Z" transform="translate(-156.056 -307.76)" fill="#ffa8a7"/>
          <path id="Path_4341" data-name="Path 4341" d="M151.989,344.03a3.055,3.055,0,0,1-.085,1.386,3.159,3.159,0,0,1-1.114,1.352,5.467,5.467,0,0,0-.934,1.13,4.8,4.8,0,0,1-.971,1.217,1.952,1.952,0,0,1-1.573.114c-.412-.174-.55-.33-.524-.987s2.021-.891,2.021-.891Z" transform="translate(-134.222 -292.2)" fill="#455a64"/>
          <path id="Path_4342" data-name="Path 4342" d="M146.936,343.516c-.172.065-.223.39-.241,1.034-.02.488-.223,1.2.446,1.511a1.651,1.651,0,0,0,1.782-.377c.459-.575.766-1.081,1.419-1.782.566-.608,1.156-.813,1.408-2.028.163-.782.036-1.114-.49-1.337-.724-.307-1.858.7-2.426.858C148.342,341.54,147.105,343.452,146.936,343.516Z" transform="translate(-134.117 -289.441)" fill="#3b86ff"/>
          <path id="Path_4343" data-name="Path 4343" d="M146.936,343.516c-.172.065-.223.39-.241,1.034-.02.488-.223,1.2.446,1.511a1.651,1.651,0,0,0,1.782-.377c.459-.575.766-1.081,1.419-1.782.566-.608,1.156-.813,1.408-2.028.163-.782.036-1.114-.49-1.337-.724-.307-1.858.7-2.426.858C148.342,341.54,147.105,343.452,146.936,343.516Z" transform="translate(-134.117 -289.441)" opacity="0.3"/>
          <path id="Path_4344" data-name="Path 4344" d="M155.451,344.513l.1-.033a1.865,1.865,0,0,1,1.56,1.025c.1.223-.2.379-.379.223a1.99,1.99,0,0,0-1.56-1.02A.785.785,0,0,1,155.451,344.513Z" transform="translate(-140.738 -292.55)" fill="#fafafa"/>
          <path id="Path_4345" data-name="Path 4345" d="M153.539,346.28a1.844,1.844,0,0,1,1.453,1.018c.1.223-.2.377-.377.223a1.9,1.9,0,0,0-1.306-.974A2.59,2.59,0,0,1,153.539,346.28Z" transform="translate(-139.292 -293.949)" fill="#fafafa"/>
          <path id="Path_4346" data-name="Path 4346" d="M147.49,348.88l.1,1.359a1.946,1.946,0,0,0,2.005.056c.036-.078.136-1.294.136-1.294Z" transform="translate(-134.769 -295.97)" fill="#ffa8a7"/>
          <path id="Path_4347" data-name="Path 4347" d="M160.607,342.43s-.056-1.446-2.005-1.647l-.111.062a1.7,1.7,0,0,1,.963-.742,1.341,1.341,0,0,1,1.5.432A1.888,1.888,0,0,1,160.607,342.43Z" transform="translate(-143.318 -289.097)" fill="#fafafa"/>
          <path id="Path_4348" data-name="Path 4348" d="M144.732,239.983a19.592,19.592,0,0,1,.773-3.8s-.334-3.253-.537-6.352c-.085-1.361-.127-2.863-.154-4.233a22.971,22.971,0,0,1,.339-4.507s9.581-2.255,9.85,1.606c.314,4.342.341,14.124.276,15.336-.089,1.7-.091,3.469-.381,6.239-.285,2.723-.762,8.857-.762,8.857a4.985,4.985,0,0,1-2.885,0s-.8-7.4-.764-9.358a16.774,16.774,0,0,1,.648-4.293l-1.279-10.779s-.129,4.788-.223,6.488-.323,2.738-.744,5.9c-.363,2.745-1.31,8.282-1.31,8.282a3.02,3.02,0,0,1-2.29,0S144.453,242.365,144.732,239.983Z" transform="translate(-132.581 -196.141)" fill="#44425d"/>
          <path id="Path_4349" data-name="Path 4349" d="M151.11,247.43a8.668,8.668,0,0,0,2.868,2.409s.7,5.929.7,5.811l.183-5.964A20.7,20.7,0,0,1,151.11,247.43Z" transform="translate(-137.583 -217.123)" fill="#002b5c" opacity="0.4"/>
          <path id="Path_4350" data-name="Path 4350" d="M160.993,151.32l-.165,3.527-3.5-.187.109-4.1Z" transform="translate(-142.417 -141.836)" fill="#ebb78c"/>
          <path id="Path_4351" data-name="Path 4351" d="M141.95,162.06c.292-.963,1.457-2.268,2.674-2.07.283.045.345.085.613.134.147.595,1.967.815,3.525.446.468.123,2.07.688,2.451.82,1.114.37,1.31,1.468,1.484,5.125,0,0,.178,7.419.192,10.425a10.924,10.924,0,0,1-7.214.8c-3.353-.655-3.188-1.2-3.188-1.2a52.57,52.57,0,0,0,0-5.59,21.81,21.81,0,0,0-.519-4.213A10.715,10.715,0,0,1,141.95,162.06Z" transform="translate(-130.274 -149.149)" fill="#99c0fd"/>
          <path id="Path_4352" data-name="Path 4352" d="M196.71,176.164a.35.35,0,0,0-.223-.281,1.1,1.1,0,0,0-.368-.071,11.415,11.415,0,0,1-2.208-.412c-.192-.056-.41-.145-.459-.339-.06-.234.163-.43.319-.615a1.38,1.38,0,0,0,.319-.733c.02-.158-.031-.5-.29-.33a6,6,0,0,1-1.188.644c-.751.321-1.074.68-1.8.987a41.738,41.738,0,0,1-4.862,1.145c-2.707-3.168-4.679-7.919-5.951-8.059-1.29-.39-2.157,2.38-1.241,4.327.787,1.671,3.95,5.062,4.61,5.8s1.143,1.622,2.558,1.2c1.825-.544,2.966-1.078,3.761-1.372a7.4,7.4,0,0,1,1.669-.537,2.508,2.508,0,0,1,.856.013c.319.071.637.149.956.223a6.742,6.742,0,0,0,1.477.2,1.374,1.374,0,0,0,.693-.114,1.243,1.243,0,0,0,.381-.35c.1-.12.223-.2.323-.314a.649.649,0,0,0,.147-.6,1.126,1.126,0,0,0,.348-.118A.352.352,0,0,0,196.71,176.164Z" transform="translate(-158.772 -155.44)" fill="#ebb78c"/>
          <path id="Path_4353" data-name="Path 4353" d="M179.083,166.36c1.167.223,1.312.688,2.079,1.987s2.473,4.233,2.473,4.233a4.245,4.245,0,0,1-2.656,2.551,30.55,30.55,0,0,1-2.9-3.883C177.214,169.686,177.336,167.167,179.083,166.36Z" transform="translate(-158.136 -154.116)" fill="#629cfd"/>
          <path id="Path_4354" data-name="Path 4354" d="M184.33,134.51s.836,1.266.74,1.39-.709.236-.709.236Z" transform="translate(-163.401 -129.362)" fill="#d9a884"/>
          <path id="Path_4355" data-name="Path 4355" d="M155.855,118.265c1.689.354,2.175,1.1,2.335,3.788.165,2.8-.12,3.681-.488,4.06a3.88,3.88,0,0,1-2.326.107,6.89,6.89,0,0,1-3.763-2.346c-1.085-1.658-1.37-3.9-.207-4.826A5.445,5.445,0,0,1,155.855,118.265Z" transform="translate(-137.23 -116.61)" fill="#ebb78c"/>
          <path id="Path_4356" data-name="Path 4356" d="M170.531,154.053a7.239,7.239,0,0,1-.891-.223,1.551,1.551,0,0,0,.847.488Z" transform="translate(-151.984 -144.378)" fill="#d9a884"/>
          <path id="Path_4357" data-name="Path 4357" d="M154.7,114.1a2.208,2.208,0,0,1-.432.341,5.724,5.724,0,0,1-.7.392,4.276,4.276,0,0,0-.686.321.946.946,0,0,0-.352.86v.824c0,.466-.3.82-.446.2,0,0-.267-1.036-1.141-.9s-.949,1.114-.533,1.885c.254.47.931.345.931.345a3.047,3.047,0,0,1-.911,2.348,3.29,3.29,0,0,1-2.065.069,16.7,16.7,0,0,1-2.032-3.039c-1.061-2.362-.548-3.843.272-4.456a2.254,2.254,0,0,1,2.005-1.8c1.459-.336,2.827.533,4.271.207a6.416,6.416,0,0,0,.7-.185.406.406,0,0,1,.285-.018.315.315,0,0,1,.136.323.866.866,0,0,1-.423.684c.029-.018.169.02.209.022h.243a4.247,4.247,0,0,0,.475-.033.853.853,0,0,1,.328.011.592.592,0,0,1,.372.595,1.477,1.477,0,0,1-.258.7,1.939,1.939,0,0,1-.176.25Z" transform="translate(-133.404 -111.406)" fill="#44425d"/>
          <path id="Path_4358" data-name="Path 4358" d="M145.919,118.3l-1.009-.6a.586.586,0,1,1,1.009.6Z" transform="translate(-132.764 -116.076)" fill="#44425d"/>
        </g>
      </g>
      <g id="freepik--Character--inject-33_1_" transform="translate(72.155 24.223)">
        <path id="Path_4359" data-name="Path 4359" d="M372.206,362.674a1.749,1.749,0,0,1-1.261.76,5.894,5.894,0,0,1-1.731-.109,11.38,11.38,0,0,0-2.582-.067,13.825,13.825,0,0,1-1.606.116,2.549,2.549,0,0,1-1.511-.479,1.537,1.537,0,0,1-.568-.965,1.453,1.453,0,0,0,.568,1.3,2.569,2.569,0,0,0,1.511.479,13.825,13.825,0,0,0,1.606-.116,11.38,11.38,0,0,1,2.582.067,6.086,6.086,0,0,0,1.782.149,1.74,1.74,0,0,0,1.261-.76Z" transform="translate(-354.23 -305.512)" fill="#263238"/>
        <path id="Path_4360" data-name="Path 4360" d="M375.73,356.53c.481,0,.305-.713.764-1.19-.187.011-.374.013-.561.013C375.523,355.946,375.407,356.53,375.73,356.53Z" transform="translate(-364.026 -300.391)" fill="#fff"/>
        <path id="Path_4361" data-name="Path 4361" d="M380.216,355.818c.486,0,.359-.851.835-1.348a2.957,2.957,0,0,1-.332.1c-.094.022-.189.038-.285.051C380.009,355.219,379.882,355.818,380.216,355.818Z" transform="translate(-367.51 -299.715)" fill="#fff"/>
        <path id="Path_4362" data-name="Path 4362" d="M377.13,351.607a.648.648,0,0,0-.25-.392l-2.6-.065a2.236,2.236,0,0,1-1.081.74c-.477.5-.35,1.348-.836,1.348-.33,0-.207-.6.223-1.2-.149.022-.3.038-.446.047-.459.477-.283,1.19-.764,1.19-.325,0-.209-.584.2-1.176h-.365a2.063,2.063,0,0,1-.332-.018c-.958.758-1.04,1.58-.916,2.867a3.765,3.765,0,0,0,.5.053,13.846,13.846,0,0,0,1.606-.116,11.378,11.378,0,0,1,2.582.067,5.747,5.747,0,0,0,1.731.109,1.763,1.763,0,0,0,1.261-.76Z" transform="translate(-359.653 -297.134)" fill="#455a64"/>
        <path id="Path_4363" data-name="Path 4363" d="M365.421,355.119a4.124,4.124,0,0,0-1.3,0,1.55,1.55,0,0,0-1.172,1.02,1.152,1.152,0,0,0-.02.446,1.536,1.536,0,0,0,.568.965,2.219,2.219,0,0,0,1.012.426C364.38,356.7,364.463,355.877,365.421,355.119Z" transform="translate(-354.209 -300.179)" fill="#fff"/>
        <path id="Path_4364" data-name="Path 4364" d="M389.14,347.82v1.254a.514.514,0,0,0,.515.515h1.321a.846.846,0,0,0,.847-.818l.031-.951Z" transform="translate(-374.593 -294.546)" fill="#9c5a5a"/>
        <path id="Path_4365" data-name="Path 4365" d="M410.678,332.914a.973.973,0,0,1-.791.555,1.662,1.662,0,0,1-1-.247,4.017,4.017,0,0,1-.936-1.145,6.826,6.826,0,0,0-1.09-1.063,3.617,3.617,0,0,1-1.04-1.208,1.559,1.559,0,0,1-.123-.446,1.542,1.542,0,0,0,.123.849,3.588,3.588,0,0,0,1.04,1.205,6.938,6.938,0,0,1,1.09,1.065,3.938,3.938,0,0,0,.936,1.145,1.681,1.681,0,0,0,1,.245.97.97,0,0,0,.791-.553,2.173,2.173,0,0,0,.047-.7A.842.842,0,0,1,410.678,332.914Z" transform="translate(-387.451 -280.199)" fill="#263238"/>
        <path id="Path_4366" data-name="Path 4366" d="M414.591,330.149a.321.321,0,0,0-.065.223.225.225,0,0,0,.143.16.3.3,0,0,0,.292-.076,1.625,1.625,0,0,0,.2-.241,1.522,1.522,0,0,1,.668-.49,1.554,1.554,0,0,1,.4-.087l-.325-.3a1.614,1.614,0,0,0-1.319.815Z" transform="translate(-394.322 -280.184)" fill="#fff"/>
        <path id="Path_4367" data-name="Path 4367" d="M412.367,327.8a1.635,1.635,0,0,0-.726.668.321.321,0,0,0-.065.223.22.22,0,0,0,.143.163.31.31,0,0,0,.294-.076,1.488,1.488,0,0,0,.2-.241,1.513,1.513,0,0,1,1.337-.577l-.323-.294A1.616,1.616,0,0,0,412.367,327.8Z" transform="translate(-392.029 -278.876)" fill="#fff"/>
        <path id="Path_4368" data-name="Path 4368" d="M408.416,324.084a3.368,3.368,0,0,0-1.023-.682,1.355,1.355,0,0,0-1.4.194,1.206,1.206,0,0,0-.312,1.054,1.558,1.558,0,0,0,.123.446,2.312,2.312,0,0,0,.323.512C406.248,324.483,407.222,323.957,408.416,324.084Z" transform="translate(-387.43 -275.485)" fill="#fff"/>
        <path id="Path_4369" data-name="Path 4369" d="M412.254,329.776a2.327,2.327,0,0,0-.254-1.1l-.633-.668-.446-.41a1.555,1.555,0,0,0-.4.087,1.523,1.523,0,0,0-.668.49,1.627,1.627,0,0,1-.2.241.3.3,0,0,1-.292.076.225.225,0,0,1-.143-.16.321.321,0,0,1,.065-.223,1.614,1.614,0,0,1,1.319-.815l-.087-.06a1.513,1.513,0,0,0-1.337.577,1.488,1.488,0,0,1-.2.241.31.31,0,0,1-.294.076.22.22,0,0,1-.143-.163.321.321,0,0,1,.065-.223,1.624,1.624,0,0,1,1.58-.811h-.011l-.194-.176c-1.194-.127-2.168.4-2.293,1.52a5.427,5.427,0,0,0,.717.7,6.825,6.825,0,0,1,1.09,1.063,3.908,3.908,0,0,0,.936,1.145,1.663,1.663,0,0,0,1,.247.973.973,0,0,0,.791-.555.92.92,0,0,0,.047-.292A6.876,6.876,0,0,0,412.254,329.776Z" transform="translate(-389.002 -278.16)" fill="#455a64"/>
        <path id="Path_4370" data-name="Path 4370" d="M417.96,331.47l.074,1.348a1.794,1.794,0,0,0,2.041-.087l.056-1.261Z" transform="translate(-396.992 -281.839)" fill="#9c5a5a"/>
        <path id="Path_4371" data-name="Path 4371" d="M394.912,196.573a1.252,1.252,0,0,1-.129-.463l.08-.76-8.607.515c-.058.628-.011.9-.116,1.7A12.256,12.256,0,0,0,394.912,196.573Z" transform="translate(-372.261 -176.047)" fill="#99c0fd"/>
        <path id="Path_4372" data-name="Path 4372" d="M424.75,173.3l1.753,3.389-1.593,2.674,1.762,2.785,2.66-4.129a2.32,2.32,0,0,0,.272-1.907,32.433,32.433,0,0,0-1.729-4.706Z" transform="translate(-402.269 -157.441)" fill="#ebb78c"/>
        <path id="Path_4373" data-name="Path 4373" d="M418.49,150.222c2.019-.374,3.173.3,4.879,4.864-.7,1.56-3.654,2.139-3.654,2.139Z" transform="translate(-397.404 -140.906)" fill="#3b86ff"/>
        <path id="Path_4374" data-name="Path 4374" d="M418.49,150.222c2.019-.374,3.173.3,4.879,4.864-.7,1.56-3.654,2.139-3.654,2.139Z" transform="translate(-397.404 -140.906)" fill="#629cfd"/>
        <path id="Path_4375" data-name="Path 4375" d="M386.207,151.035l-2.2.434c-.488.891-.985,1.729-1.471,2.62a4.3,4.3,0,0,0-.717,2.148,2.195,2.195,0,0,0,1.319,1.9l-.254,3.008c3.46,1.058,7.691.129,8.62-.668.272-1.261.515-2.6.789-3.863a13.148,13.148,0,0,0,.372-2.482,4.37,4.37,0,0,0-.582-2.429l-.013-.022a2.7,2.7,0,0,0-2.7-1.161Z" transform="translate(-368.899 -141.175)" fill="#99c0fd"/>
        <path id="Path_4376" data-name="Path 4376" d="M391.8,201.052a1.38,1.38,0,0,1-.129-.212,12.257,12.257,0,0,1-8.763,1,106.722,106.722,0,0,0-.827,17.6c.272,6.016,1.379,14.516,1.379,14.516a3.546,3.546,0,0,0,2.93-.145c.481-5.96,1.54-10.044.722-13.985.546-2.756.891-6.216.891-6.216l.417,6.087,1.408,10.695a2.532,2.532,0,0,0,2.533-.127c1.025-6.12,1.408-10.267.512-13.3C394.25,206.923,394.326,204.354,391.8,201.052Z" transform="translate(-369.031 -180.314)" fill="#44425d"/>
        <path id="Path_4377" data-name="Path 4377" d="M409.646,234.952l.755-3.171a4.427,4.427,0,0,0,2.983-1.932,6.051,6.051,0,0,1-3.656,1.29l-.688,5.015.147,2.141.058-.78A16.6,16.6,0,0,1,409.646,234.952Z" transform="translate(-390.059 -202.861)" fill="#002b5c" opacity="0.4"/>
        <path id="Path_4378" data-name="Path 4378" d="M324.766,119.911l2.217,5.737a2.292,2.292,0,0,0,1.742,1.43l3.788.668a3.361,3.361,0,0,0,.668-3.565,18.34,18.34,0,0,1-3.416-.374s-2.4-2.914-3.4-4.418l.713-2.364a.808.808,0,0,0-.071-.642l-.383-.668a.829.829,0,0,0-.446-.365l-.553-.189a.972.972,0,0,0-.764.06l-.842.446a.321.321,0,0,0-.174.292h0a.329.329,0,0,0,.174.283l.316.163.446.74A2.337,2.337,0,0,0,324.766,119.911Z" transform="translate(-323.85 -113.685)" fill="#ebb78c"/>
        <path id="Path_4379" data-name="Path 4379" d="M368.849,154.7c-1.364.065-3.411.29-5.421.25a3.361,3.361,0,0,1-.668,3.565l4.732.827a2.037,2.037,0,0,0,2.288-1.5c.147-.6.305-1.1.394-1.687a1.268,1.268,0,0,0-1.065-1.444A1.442,1.442,0,0,0,368.849,154.7Z" transform="translate(-354.091 -144.456)" fill="#3b86ff"/>
        <path id="Path_4380" data-name="Path 4380" d="M368.849,154.7c-1.364.065-3.411.29-5.421.25a3.361,3.361,0,0,1-.668,3.565l4.732.827a2.037,2.037,0,0,0,2.288-1.5c.147-.6.305-1.1.394-1.687a1.268,1.268,0,0,0-1.065-1.444A1.442,1.442,0,0,0,368.849,154.7Z" transform="translate(-354.091 -144.456)" fill="#629cfd"/>
        <path id="Path_4381" data-name="Path 4381" d="M387.945,112.646a3.843,3.843,0,0,1-.432-2.03,2.182,2.182,0,0,1,1.065-1.716,1.546,1.546,0,0,1,1.9.334,3.669,3.669,0,0,1,3.616.129,3.709,3.709,0,0,1,1.622,3.26,11.611,11.611,0,0,0-.223,2.172,3.369,3.369,0,0,1,.1,1.274,1.311,1.311,0,0,1-.693.784,7.007,7.007,0,0,1-1.415.2,2.292,2.292,0,0,1-3.282-.261A21.549,21.549,0,0,1,387.945,112.646Z" transform="translate(-373.323 -108.715)" fill="#44425d"/>
        <path id="Path_4382" data-name="Path 4382" d="M386.141,130.71l-.671,1.165.733.272Z" transform="translate(-371.741 -125.809)" fill="#d9a884"/>
        <path id="Path_4383" data-name="Path 4383" d="M387.977,119.738a3.471,3.471,0,0,1,1.072-2.478,5.524,5.524,0,0,0,.764,3.661,1.591,1.591,0,0,1,.495-.876.923.923,0,0,1,.954-.2.944.944,0,0,1,.479.524,1.241,1.241,0,0,1-1.56,1.64,2.389,2.389,0,0,0,1.834,1.858,3.07,3.07,0,0,0,1.782-.169l.276,1.379c-1.114,1.2-3.039.392-3.039.392l-.245-1.361c-2.208.131-2.413.094-2.656-1.114A11.957,11.957,0,0,1,387.977,119.738Z" transform="translate(-373.653 -115.356)" fill="#ebb78c"/>
        <path id="Path_4384" data-name="Path 4384" d="M409.105,114.389a3.891,3.891,0,0,1,1.756-2.1,3.709,3.709,0,0,1,1.419,3.119,11.611,11.611,0,0,0-.223,2.172,3.368,3.368,0,0,1,.1,1.274,1.311,1.311,0,0,1-.693.784,7.007,7.007,0,0,1-1.415.2c-.047.042-.094.078-.143.116a10.927,10.927,0,0,1-.873-2.241A5.759,5.759,0,0,1,409.105,114.389Z" transform="translate(-389.893 -111.493)" fill="#323247"/>
        <path id="Path_4385" data-name="Path 4385" d="M411.625,111.3a2.812,2.812,0,0,1,5.363-.065c.668,2.005-1.04,4.158-.668,6.239.134.753.533,1.439.668,2.19a3.248,3.248,0,0,1-2.593,3.792c-.065.013-.131.022-.2.031a1.938,1.938,0,0,0,.223-2.005,8.594,8.594,0,0,0-1.181-1.782A9.918,9.918,0,0,1,411.625,111.3Z" transform="translate(-391.8 -109.166)" fill="#44425d"/>
      </g>
    </g>
  </g>
</svg>
