<svg xmlns="http://www.w3.org/2000/svg" xmlns:xlink="http://www.w3.org/1999/xlink" width="240" height="24" viewBox="0 0 240 24">
  <defs>
    <clipPath id="clip-path">
      <rect id="Rectangle_3258" data-name="Rectangle 3258" width="24" height="24" transform="translate(85 851)" fill="#fff"/>
    </clipPath>
  </defs>
  <g id="Group_6942" data-name="Group 6942" transform="translate(-56 -533)">
    <text id="Lorem_Ipsum_dolor_sit" data-name="Lorem Ipsum dolor sit" transform="translate(105 550)" fill="#343434" font-size="16" font-family="Comfortaa-Bold, Comfortaa" font-weight="700" letter-spacing="0.025em"><tspan x="0" y="0">Lorem Ipsum dolor sit</tspan></text>
    <g id="ic_website" transform="translate(-29 -318)" clip-path="url(#clip-path)">
      <g id="ic_web" transform="translate(88 852.684)">
        <path id="Path_2370" data-name="Path 2370" d="M231.816,348.416c1.494-.212,2.8-1.772,3.628-4.075a17.736,17.736,0,0,0-3.628-.427Zm0,0" transform="translate(-221.697 -328.6)" fill="#3b86ff"/>
        <path id="Path_2371" data-name="Path 2371" d="M279.8,361.151c.088-.026.176-.051.264-.08s.146-.049.219-.075.172-.06.257-.093.145-.057.217-.086l.248-.1c.072-.032.143-.065.214-.1s.161-.077.241-.117l.21-.109q.117-.063.233-.129c.07-.04.137-.079.205-.12l.226-.14c.067-.043.134-.086.2-.131s.146-.1.219-.153l.193-.14c.07-.054.142-.11.212-.166s.124-.1.186-.15.137-.118.2-.178.119-.1.177-.159.132-.127.2-.191.113-.11.168-.167l.031-.033a11.736,11.736,0,0,0-2.393-.921,8.665,8.665,0,0,1-2.232,3.624l.085-.021C279.656,361.2,279.729,361.172,279.8,361.151Zm0,0" transform="translate(-267.296 -341.701)" fill="#3b86ff"/>
        <path id="Path_2372" data-name="Path 2372" d="M340.451,231.684h-4.187a18.109,18.109,0,0,1-.705,4.831,12.145,12.145,0,0,1,2.65,1.055,9.756,9.756,0,0,0,2.242-5.886Zm0,0" transform="translate(-320.912 -221.268)" fill="#3b86ff"/>
        <path id="Path_2373" data-name="Path 2373" d="M231.816,113.6h4.535a17.469,17.469,0,0,0-.687-4.659,18.393,18.393,0,0,1-3.848.459Zm0,0" transform="translate(-221.697 -103.884)" fill="#3b86ff"/>
        <path id="Path_2374" data-name="Path 2374" d="M231.816.316v4.5a17.748,17.748,0,0,0,3.628-.427c-.824-2.3-2.134-3.863-3.628-4.075Zm0,0" transform="translate(-221.697)" fill="#3b86ff"/>
        <path id="Path_2375" data-name="Path 2375" d="M231.816,235.884a18.4,18.4,0,0,1,3.848.459,17.469,17.469,0,0,0,.687-4.659h-4.535Zm0,0" transform="translate(-221.697 -221.268)" fill="#3b86ff"/>
        <path id="Path_2376" data-name="Path 2376" d="M338.208,80.844a12.144,12.144,0,0,1-2.65,1.055,18.11,18.11,0,0,1,.705,4.831h4.187a9.759,9.759,0,0,0-2.242-5.886Zm0,0" transform="translate(-320.911 -77.012)" fill="#3b86ff"/>
        <path id="Path_2377" data-name="Path 2377" d="M284.084,9.5l-.03-.032c-.055-.057-.113-.112-.169-.167s-.129-.129-.2-.191-.118-.1-.177-.159-.135-.121-.2-.179-.122-.1-.184-.149-.141-.113-.213-.167-.127-.094-.191-.14-.146-.1-.221-.155-.132-.087-.2-.129-.151-.1-.228-.142-.135-.08-.2-.119-.156-.088-.235-.13-.14-.073-.21-.108-.161-.08-.244-.118-.141-.066-.213-.1-.166-.07-.25-.1-.144-.058-.216-.086-.171-.063-.257-.092-.145-.051-.219-.075-.175-.054-.264-.08c-.073-.021-.146-.043-.219-.062l-.085-.021a8.666,8.666,0,0,1,2.232,3.624,11.719,11.719,0,0,0,2.4-.922Zm0,0" transform="translate(-267.259 -6.198)" fill="#3b86ff"/>
        <path id="Path_2378" data-name="Path 2378" d="M0,86.73H4.187a18.117,18.117,0,0,1,.7-4.831,12.129,12.129,0,0,1-2.65-1.055A9.757,9.757,0,0,0,0,86.73Zm0,0" transform="translate(0 -77.012)" fill="#3b86ff"/>
        <path id="Path_2379" data-name="Path 2379" d="M136.323,348.416v-4.5a17.747,17.747,0,0,0-3.628.427C133.519,346.644,134.829,348.2,136.323,348.416Zm0,0" transform="translate(-126.903 -328.6)" fill="#3b86ff"/>
        <path id="Path_2380" data-name="Path 2380" d="M116.456,231.684h-4.535a17.463,17.463,0,0,0,.687,4.659,18.381,18.381,0,0,1,3.848-.459Zm0,0" transform="translate(-107.036 -221.268)" fill="#3b86ff"/>
        <path id="Path_2381" data-name="Path 2381" d="M136.323.316c-1.494.212-2.8,1.772-3.628,4.075a17.724,17.724,0,0,0,3.628.427Zm0,0" transform="translate(-126.903)" fill="#3b86ff"/>
        <path id="Path_2382" data-name="Path 2382" d="M116.456,109.4a18.393,18.393,0,0,1-3.848-.459,17.462,17.462,0,0,0-.687,4.659h4.535Zm0,0" transform="translate(-107.036 -103.883)" fill="#3b86ff"/>
        <path id="Path_2383" data-name="Path 2383" d="M66.815,6.789l-.085.021c-.074.02-.147.042-.221.063s-.175.051-.263.079-.147.05-.22.075-.171.06-.256.092-.145.057-.217.087l-.248.1c-.072.032-.143.065-.214.1s-.161.077-.241.117l-.21.109q-.117.063-.233.129t-.206.12c-.076.046-.151.093-.226.14s-.134.086-.2.131-.146.1-.219.153l-.193.14c-.071.054-.14.11-.212.165s-.125.1-.185.15-.136.117-.2.177-.12.1-.178.16-.131.126-.2.19-.114.11-.169.168l-.03.033a11.724,11.724,0,0,0,2.393.921,8.662,8.662,0,0,1,2.231-3.622Zm0,0" transform="translate(-59.476 -6.19)" fill="#3b86ff"/>
        <path id="Path_2384" data-name="Path 2384" d="M62.426,358.683c.065.064.13.129.2.191s.118.1.177.158.135.121.2.179.122.1.184.149.14.113.214.167.127.093.191.14.147.1.221.155.132.087.2.129.151.1.228.142.135.08.2.119.156.088.235.13.14.073.21.108.161.08.244.118.141.065.213.1.166.07.25.1.144.058.216.086.171.063.257.093.145.051.219.075.175.054.264.08c.073.021.146.043.219.063l.085.021a8.668,8.668,0,0,1-2.232-3.624,11.724,11.724,0,0,0-2.393.921l.03.032C62.313,358.572,62.37,358.627,62.426,358.683Zm0,0" transform="translate(-59.514 -341.652)" fill="#3b86ff"/>
        <path id="Path_2385" data-name="Path 2385" d="M2.242,237.569a12.147,12.147,0,0,1,2.65-1.055,18.116,18.116,0,0,1-.7-4.831H0a9.758,9.758,0,0,0,2.242,5.886Zm0,0" transform="translate(0 -221.267)" fill="#3b86ff"/>
      </g>
    </g>
  </g>
</svg>
