<svg xmlns="http://www.w3.org/2000/svg" xmlns:xlink="http://www.w3.org/1999/xlink" width="36" height="36" viewBox="0 0 36 36">
  <defs>
    <clipPath id="clip-path">
      <rect id="Rectangle_17442" data-name="Rectangle 17442" width="36" height="36" transform="translate(2624 1563.2)" fill="#5219a4"/>
    </clipPath>
  </defs>
  <g id="Mask_Group_91" data-name="Mask Group 91" transform="translate(-2624 -1563.2)" clip-path="url(#clip-path)">
    <g id="_3208681" data-name="3208681" transform="translate(2628.022 1567.022)">
      <g id="_x30_8_home" transform="translate(0.422 0.424)">
        <path id="Path_5398" data-name="Path 5398" d="M84.584,62.156a.871.871,0,0,0-1.256,0L73.652,72.229V84.841a1.277,1.277,0,0,0,1.277,1.277H92.983a1.277,1.277,0,0,0,1.277-1.277V72.229Z" transform="translate(-69.911 -59.598)" fill="#ebf3ff"/>
        <path id="Path_5399" data-name="Path 5399" d="M195.021,345.888v-5.223a3.444,3.444,0,0,1,6.889,0v5.223Z" transform="translate(-184.421 -319.367)" fill="#9cc2ff"/>
        <path id="Path_5400" data-name="Path 5400" d="M20.879,25.51,9.611,37.239a.581.581,0,0,1-.829.008L7.632,36.1a.581.581,0,0,1-.008-.813L20.67,21.705a1.161,1.161,0,0,1,1.675,0L35.39,35.286a.581.581,0,0,1-.008.813l-1.15,1.15a.581.581,0,0,1-.829-.008L22.135,25.51A.871.871,0,0,0,20.879,25.51Z" transform="translate(-7.462 -21.349)" fill="#3b86ff"/>
      </g>
      <g id="_x30_8_home_2_" transform="translate(0 0)">
        <path id="Path_5401" data-name="Path 5401" d="M24.346,28.673V39.512a.854.854,0,0,1-.853.853h-.657a.424.424,0,0,0,0,.848h.657a1.7,1.7,0,0,0,1.7-1.7V29.555l.863.9a1,1,0,0,0,1.434.014l1.149-1.15a1.01,1.01,0,0,0,.014-1.406L15.609,14.332a1.584,1.584,0,0,0-2.286,0L.278,27.912a1.01,1.01,0,0,0,.014,1.406l1.15,1.15a1,1,0,0,0,1.435-.014l.863-.9v2.059a.424.424,0,1,0,.848,0V28.673l9.558-9.949a.447.447,0,0,1,.645,0Zm3.7.046-1.15,1.15a.157.157,0,0,1-.224,0L15.4,18.136h0l0,0a1.294,1.294,0,0,0-1.865,0L3.857,28.209h0L2.264,29.866a.157.157,0,0,1-.224,0l-1.15-1.15a.157.157,0,0,1,0-.219l13.046-13.58a.737.737,0,0,1,1.063,0L28.043,28.5a.157.157,0,0,1,0,.219Z" transform="translate(0 -13.845)" fill="#43425d"/>
        <path id="Path_5402" data-name="Path 5402" d="M83.263,338.388H80.748v-4.8a3.868,3.868,0,0,0-7.736,0v4.8H67.853a.854.854,0,0,1-.853-.853v-5.919a.424.424,0,0,0-.848,0v5.919a1.7,1.7,0,0,0,1.7,1.7h15.41a.424.424,0,1,0,0-.848Zm-9.4-4.8a3.02,3.02,0,0,1,6.041,0v4.8H73.859Z" transform="translate(-62.413 -311.867)" fill="#43425d"/>
      </g>
    </g>
  </g>
</svg>
