<svg xmlns="http://www.w3.org/2000/svg" xmlns:xlink="http://www.w3.org/1999/xlink" width="24" height="24" viewBox="0 0 24 24">
  <defs>
    <clipPath id="clip-path">
      <rect id="Rectangle_3254" data-name="Rectangle 3254" width="24" height="24" transform="translate(-11638 -19237)" fill="#fff"/>
    </clipPath>
  </defs>
  <g id="ic_instagram" transform="translate(11638 19237)" clip-path="url(#clip-path)">
    <g id="ic_instagram-2" data-name="ic_instagram" transform="translate(-11635.75 -19234.75)">
      <path id="Path_2353" data-name="Path 2353" d="M2.5,0H17a2.444,2.444,0,0,1,2.5,2.5V17A2.444,2.444,0,0,1,17,19.5H2.5A2.443,2.443,0,0,1,0,17V2.5A2.443,2.443,0,0,1,2.5,0ZM14.2,2.167a.88.88,0,0,0-.878.878v2.1a.88.88,0,0,0,.878.878h2.2a.88.88,0,0,0,.878-.878v-2.1a.88.88,0,0,0-.878-.878ZM17.3,8.246H15.58a5.7,5.7,0,0,1,.25,1.673,5.97,5.97,0,0,1-6.062,5.873A5.969,5.969,0,0,1,3.708,9.919a5.694,5.694,0,0,1,.25-1.673H2.167v8.237a.778.778,0,0,0,.775.775H16.521a.777.777,0,0,0,.775-.775V8.246ZM9.768,5.913A3.857,3.857,0,0,0,5.852,9.708,3.857,3.857,0,0,0,9.768,13.5a3.857,3.857,0,0,0,3.917-3.795A3.857,3.857,0,0,0,9.768,5.913Z" fill="#3b86ff"/>
    </g>
  </g>
</svg>
