<svg xmlns="http://www.w3.org/2000/svg" xmlns:xlink="http://www.w3.org/1999/xlink" width="36" height="36" viewBox="0 0 36 36">
  <defs>
    <clipPath id="clip-path">
      <rect id="Rectangle_17641" data-name="Rectangle 17641" width="36" height="36" transform="translate(251 599.201)" fill="#fff"/>
    </clipPath>
  </defs>
  <g id="ic_offers" transform="translate(-251 -599.201)" clip-path="url(#clip-path)">
    <g id="_1312292" data-name="1312292" transform="translate(253.804 600.994)">
      <path id="Path_6259" data-name="Path 6259" d="M58.67,154.586a2.035,2.035,0,0,0-2.863,0,2.007,2.007,0,0,0,0,2.847l.2.2h4.836v-.885Zm0,0" transform="translate(-51.697 -144.186)" fill="#fff"/>
      <path id="Path_6260" data-name="Path 6260" d="M197.227,154.586a2.035,2.035,0,0,0-2.863,0l-2.172,2.159v.885h4.836l.2-.2A2.007,2.007,0,0,0,197.227,154.586Zm0,0" transform="translate(-179.947 -144.186)" fill="#fff"/>
      <path id="Path_6261" data-name="Path 6261" d="M27.934,214.854a.32.32,0,0,1-.319.319H7.819a.32.32,0,0,1-.319-.319v-3.512a.319.319,0,0,1,.319-.319h19.8a.319.319,0,0,1,.319.319Zm0,0" transform="translate(-7.022 -197.578)" fill="#fff"/>
      <path id="Path_6262" data-name="Path 6262" d="M146.638,178.322v-1.907a.319.319,0,0,0-.319-.319h-2.463a.319.319,0,0,0-.319.319v1.907Zm0,0" transform="translate(-134.394 -164.878)" fill="#fff"/>
      <path id="Path_6263" data-name="Path 6263" d="M44.455,288.772a.236.236,0,0,1-.276-.277l.3-2.4a.619.619,0,0,0-.212-.511L42.346,284.1a.235.235,0,0,1,0-.39l1.923-1.487a.619.619,0,0,0,.212-.511l-.3-2.4a.236.236,0,0,1,.276-.277l1.332.166v-3.051H27.96v14.215a.319.319,0,0,0,.319.319h17.19a.319.319,0,0,0,.319-.319v-1.757Zm0,0" transform="translate(-26.179 -258.555)" fill="#fff"/>
      <path id="Path_6264" data-name="Path 6264" d="M59.7,315.295a.319.319,0,0,1-.319.319H56.6a.319.319,0,0,1-.319-.319v-4.128a.319.319,0,0,1,.319-.319h2.777a.319.319,0,0,1,.319.319Zm0,0" transform="translate(-52.695 -291.044)" fill="#fff"/>
      <path id="Path_6265" data-name="Path 6265" d="M59.7,315.295a.319.319,0,0,1-.319.319H56.6a.319.319,0,0,1-.319-.319v-4.128a.319.319,0,0,1,.319-.319h2.777a.319.319,0,0,1,.319.319Zm0,0" transform="translate(-52.695 -291.044)" fill="#fff"/>
      <path id="Path_6266" data-name="Path 6266" d="M140.477,276.148h3.49v14.533h-3.49Zm0,0" transform="translate(-131.527 -258.554)" fill="#fff"/>
      <path id="Path_6267" data-name="Path 6267" d="M132.172,211.023h4.548v4.149h-4.548Zm0,0" transform="translate(-123.751 -197.578)" fill="#fff"/>
      <path id="Path_6268" data-name="Path 6268" d="M258.764,291.324a.238.238,0,0,1,.392,0l1.494,1.911a.626.626,0,0,0,.512.212l2.418-.3a.236.236,0,0,1,.277.277l-.3,2.4a.62.62,0,0,0,.212.511l1.923,1.486a.235.235,0,0,1,0,.39l-1.923,1.486a.621.621,0,0,0-.212.511l.3,2.4a.236.236,0,0,1-.277.277l-2.418-.3a.626.626,0,0,0-.512.212l-1.494,1.911a.238.238,0,0,1-.392,0L257.27,302.8a.626.626,0,0,0-.512-.212l-2.418.3a.236.236,0,0,1-.276-.277l.3-2.4a.619.619,0,0,0-.212-.511l-1.923-1.487a.234.234,0,0,1,0-.389l1.923-1.487a.619.619,0,0,0,.212-.511l-.3-2.4a.236.236,0,0,1,.276-.277l2.418.3a.626.626,0,0,0,.512-.212Zm0,0" transform="translate(-236.063 -272.667)" fill="#fff"/>
      <path id="Path_6269" data-name="Path 6269" d="M379.59,402.684a.966.966,0,1,1-.945-1.164A1.072,1.072,0,0,1,379.59,402.684Zm0,0" transform="translate(-353.636 -375.938)" fill="#fff"/>
      <path id="Path_6270" data-name="Path 6270" d="M313.3,358.813a.966.966,0,1,1-.945-1.165A1.072,1.072,0,0,1,313.3,358.813Zm0,0" transform="translate(-291.57 -334.862)" fill="#fff"/>
      <g id="Group_9075" data-name="Group 9075" transform="translate(0.553 0.478)">
        <path id="Path_6271" data-name="Path 6271" d="M117.321,14.565a.557.557,0,0,1-.26-.064l-1.672-.879-1.672.879a.559.559,0,0,1-.811-.589l.319-1.862-1.353-1.319a.559.559,0,0,1,.31-.953l1.87-.272.836-1.694a.559.559,0,0,1,1,0l.836,1.694,1.87.272a.559.559,0,0,1,.31.953l-1.353,1.319.319,1.862a.559.559,0,0,1-.551.653Zm0,0" transform="translate(-105.14 -7.5)" fill="#fff"/>
        <path id="Path_6272" data-name="Path 6272" d="M13.025,55.459a.43.43,0,0,1-.2-.05l-1.292-.679-1.292.679a.432.432,0,0,1-.627-.455l.247-1.439L8.814,52.5a.432.432,0,0,1,.239-.737l1.445-.21.646-1.309a.432.432,0,0,1,.774,0l.646,1.309,1.444.21a.432.432,0,0,1,.239.737L13.2,53.516l.247,1.439a.432.432,0,0,1-.426.5Zm0,0" transform="translate(-8.684 -47.293)" fill="#fff"/>
        <path id="Path_6273" data-name="Path 6273" d="M247.028,55.459a.43.43,0,0,1-.2-.05l-1.292-.679-1.292.679a.432.432,0,0,1-.626-.455l.247-1.439L242.818,52.5a.432.432,0,0,1,.239-.737l1.445-.21.646-1.309a.432.432,0,0,1,.775,0l.646,1.309,1.445.21a.432.432,0,0,1,.239.737l-1.045,1.019.247,1.439a.432.432,0,0,1-.426.5Zm0,0" transform="translate(-227.779 -47.293)" fill="#fff"/>
      </g>
      <path id="Path_6274" data-name="Path 6274" d="M29.919,161.942,28,160.459a.2.2,0,0,1-.035-.083l.3-2.394a.713.713,0,0,0-.81-.81l-2.412.3a.2.2,0,0,1-.086-.036l-1.491-1.906a.715.715,0,0,0-1.145,0l-1.491,1.906a.2.2,0,0,1-.086.036l-.661-.082v-2.151h.507a.8.8,0,0,0,.8-.8v-3.512a.8.8,0,0,0-.8-.8H18.071a2.5,2.5,0,0,0-3.991-2.906l-1.367,1.359a.8.8,0,0,0-.787-.679H9.463a.8.8,0,0,0-.787.679L7.31,147.227a2.5,2.5,0,0,0-3.992,2.906H.8a.8.8,0,0,0-.8.8v3.512a.8.8,0,0,0,.8.8H1.3v13.737a.8.8,0,0,0,.8.8H19.29a.8.8,0,0,0,.8-.8V167.64l.661-.082a.2.2,0,0,1,.086.036l1.491,1.906a.715.715,0,0,0,1.145,0l1.339-1.712a.478.478,0,1,0-.753-.589L22.9,168.68,21.583,167a1.1,1.1,0,0,0-.948-.391l-2.124.264.265-2.107a1.1,1.1,0,0,0-.394-.949l-1.686-1.3,1.685-1.3a1.1,1.1,0,0,0,.394-.949l-.265-2.106,2.124.264a1.1,1.1,0,0,0,.948-.391l1.314-1.68,1.315,1.68a1.1,1.1,0,0,0,.948.391l2.124-.264-.265,2.107a1.1,1.1,0,0,0,.394.948l1.685,1.3-1.685,1.3a1.1,1.1,0,0,0-.394.948l.265,2.107-.652-.081a.478.478,0,0,0-.118.948l.946.118a.713.713,0,0,0,.809-.811l-.3-2.394A.194.194,0,0,1,28,164.57l1.918-1.483a.711.711,0,0,0,0-1.146ZM14.753,147.905a1.558,1.558,0,0,1,2.189,0,1.529,1.529,0,0,1,0,2.169l-.059.059H12.722v-.208Zm-5.326,20.91V155.238h2.534v13.578Zm3.063-17.727v3.194H8.9v-3.194Zm-.724-2.225v1.269H9.623v-1.269Zm-7.32,1.211a1.529,1.529,0,0,1,0-2.169,1.558,1.558,0,0,1,2.189,0l2.031,2.019v.209H4.506ZM.955,151.089H7.943v3.194H5.684a.477.477,0,0,0-.783,0H.955Zm1.3,4.149H4.815v1.255H3.9a.8.8,0,0,0-.8.8v4.128a.8.8,0,0,0,.8.8H6.681a.8.8,0,0,0,.8-.8v-.742a.478.478,0,0,0-.956,0v.582H4.063v-3.809h.751v.371a.478.478,0,0,0,.956,0v-.371h.751v.934a.478.478,0,1,0,.956,0v-1.093a.8.8,0,0,0-.8-.8H5.77v-1.255h2.7v13.578H2.259Zm16.076,1.933a.713.713,0,0,0-.81.811l.3,2.394a.2.2,0,0,1-.035.083l-1.918,1.483a.711.711,0,0,0,0,1.146l1.918,1.483a.2.2,0,0,1,.035.083l-.3,2.394a.713.713,0,0,0,.81.81l.8-.1v1.057H12.917V155.238h2.123a.478.478,0,0,0,0-.956H13.447v-3.194h6.987v3.194h-3.1a.478.478,0,0,0,0,.956h1.8v2.032Zm0,0" transform="translate(0 -137.166)" fill="#d0dbe5"/>
      <path id="Path_6275" data-name="Path 6275" d="M371.622,394.02a1.659,1.659,0,1,0,1.423,1.642A1.546,1.546,0,0,0,371.622,394.02Zm0,2.329c-.249,0-.467-.321-.467-.687s.218-.686.467-.686.468.321.468.686S371.871,396.349,371.622,396.349Zm0,0" transform="translate(-346.613 -368.916)" fill="#d0dbe5"/>
      <path id="Path_6276" data-name="Path 6276" d="M306.756,351.791a1.438,1.438,0,1,0-1.423,1.642A1.546,1.546,0,0,0,306.756,351.791Zm-1.423.687c-.249,0-.467-.321-.467-.687s.218-.687.467-.687.467.321.467.687S305.582,352.478,305.333,352.478Zm0,0" transform="translate(-284.548 -327.84)" fill="#d0dbe5"/>
      <path id="Path_6277" data-name="Path 6277" d="M334.55,357.855a.477.477,0,0,0,.637-.226l2.323-4.88a.478.478,0,0,0-.863-.411l-2.323,4.88A.478.478,0,0,0,334.55,357.855Zm0,0" transform="translate(-312.981 -329.636)" fill="#d0dbe5"/>
      <path id="Path_6278" data-name="Path 6278" d="M105.679,5.194,105.4,6.809a1.037,1.037,0,0,0,1.5,1.093l1.45-.762,1.45.762a1.041,1.041,0,0,0,.482.119,1.037,1.037,0,0,0,1.022-1.212l-.277-1.614,1.173-1.143a1.037,1.037,0,0,0-.574-1.768l-1.621-.235L109.286.578a1.037,1.037,0,0,0-1.859,0L106.7,2.047l-1.621.236a1.037,1.037,0,0,0-.575,1.768Zm-.526-1.911a.082.082,0,0,1,.065-.055l1.87-.272a.477.477,0,0,0,.36-.261L108.284,1a.081.081,0,0,1,.145,0l.836,1.694a.477.477,0,0,0,.36.261l1.87.272a.081.081,0,0,1,.065.055.08.08,0,0,1-.02.083l-1.353,1.319a.478.478,0,0,0-.137.423l.319,1.862a.081.081,0,0,1-.118.086l-1.672-.879a.479.479,0,0,0-.445,0l-1.672.879a.079.079,0,0,1-.038.009.081.081,0,0,1-.048-.015.08.08,0,0,1-.032-.079l.319-1.862a.478.478,0,0,0-.137-.423l-1.353-1.319a.081.081,0,0,1-.02-.083Zm0,0" transform="translate(-97.554 0)" fill="#d0dbe5"/>
      <path id="Path_6279" data-name="Path 6279" d="M2.315,46.66l-.2,1.191a.909.909,0,0,0,1.32.959l1.07-.562,1.069.562a.91.91,0,0,0,1.32-.959l-.2-1.191.865-.843a.91.91,0,0,0-.5-1.552l-1.2-.174-.535-1.084a.909.909,0,0,0-1.631,0L3.15,44.091l-1.2.174a.91.91,0,0,0-.5,1.552ZM3.536,45a.478.478,0,0,0,.36-.262L4.5,43.514l.6,1.225a.478.478,0,0,0,.36.262l1.352.2-.979.954a.478.478,0,0,0-.137.423l.231,1.347-1.21-.636a.479.479,0,0,0-.445,0l-1.21.636L3.3,46.574a.478.478,0,0,0-.138-.423L2.183,45.2Zm0,0" transform="translate(-1.099 -39.792)" fill="#d0dbe5"/>
      <path id="Path_6280" data-name="Path 6280" d="M236.318,46.656l-.2,1.191a.91.91,0,0,0,.9,1.064.913.913,0,0,0,.423-.1l1.07-.562,1.07.562a.908.908,0,0,0,.958-.069.9.9,0,0,0,.362-.89l-.2-1.191.865-.844a.91.91,0,0,0-.5-1.552l-1.2-.174L239.319,43a.91.91,0,0,0-1.631,0l-.535,1.084-1.2.174a.91.91,0,0,0-.5,1.552ZM237.539,45a.478.478,0,0,0,.36-.262l.6-1.225.6,1.225a.478.478,0,0,0,.36.262l1.352.2-.979.954a.478.478,0,0,0-.137.423l.231,1.347-1.21-.636a.479.479,0,0,0-.445,0l-1.21.636.231-1.347a.478.478,0,0,0-.137-.423l-.979-.954Zm0,0" transform="translate(-220.194 -39.789)" fill="#d0dbe5"/>
    </g>
  </g>
</svg>
