<svg id="Group_9016" data-name="Group 9016" xmlns="http://www.w3.org/2000/svg" width="34" height="24.419" viewBox="0 0 34 24.419">
  <path id="Path_6397" data-name="Path 6397" d="M33.5,95.469h0l-1.906,0,0-1.608a.5.5,0,0,0-.5-.5h0a.5.5,0,0,0-.5.5l0,1.608-7.457.009-.007-6.387,5.161-.006a.985.985,0,0,0,.985-.987l-.006-5.207a.986.986,0,0,0-.986-.984h0l-5.161.006,0-2.061,7.457-.009.013,11.76a.5.5,0,0,0,.5.5h0a.5.5,0,0,0,.5-.5l-.013-11.76h.981a1.375,1.375,0,0,0,1.372-1.375V77.161a1.375,1.375,0,0,0-1.374-1.372h0l-3.193,0a.5.5,0,0,0,0,1h0l3.193,0h0a.378.378,0,0,1,.377.377V78.47a.377.377,0,0,1-.376.377l-9.434.011,0-2.061,3.982,0a.5.5,0,0,0,0-1h0l-3.982,0,0-2.34a1.376,1.376,0,0,0-1.376-1.374h0l-9.533.011a1.376,1.376,0,0,0-1.374,1.377l0,2.34L1.4,75.825A1.374,1.374,0,0,0,.028,77.2v1.308A1.373,1.373,0,0,0,1.4,79.879h.988V81.37a.5.5,0,1,0,1,0V79.877l7.451-.009,0,2.061-5.16.006a.985.985,0,0,0-.985.987L4.7,88.13a.986.986,0,0,0,.986.984h0l5.16-.006.007,6.387L3.388,95.5V83.63a.5.5,0,1,0-1,0V95.505l-1.893,0a.5.5,0,0,0,0,1h0l33-.038a.5.5,0,0,0,0-1ZM28.277,82.906l.006,5.185-5.149.006-.006-5.185ZM1.4,78.882h0a.376.376,0,0,1-.376-.376V77.2a.377.377,0,0,1,.376-.377l9.434-.011,0,2.061Zm4.3,9.235-.006-5.185,5.149-.006.006,5.185Zm6.129-14.645a.379.379,0,0,1,.379-.379l9.533-.011h0a.379.379,0,0,1,.379.379l.025,22.022H20.9l-.01-8.79a1.581,1.581,0,0,0-.454-1.113,1.538,1.538,0,0,0-1.1-.465h0l-4.682.005a1.538,1.538,0,0,0-1.105.467,1.581,1.581,0,0,0-.452,1.114l.01,8.79H11.854ZM14.086,86.7a.589.589,0,0,1,.167-.416.548.548,0,0,1,.394-.168l4.682-.005h0a.548.548,0,0,1,.393.167.59.59,0,0,1,.168.415l.01,8.79-5.806.007Z" transform="translate(0 -72.085)" fill="#d0dbe5"/>
  <path id="Path_6398" data-name="Path 6398" d="M193.921,119.794h0l1.662,0,0,1.662a.932.932,0,0,0,.93.929h1.264a.93.93,0,0,0,.929-.932l0-1.662,1.662,0a.932.932,0,0,0,.929-.932v-1.263a.931.931,0,0,0-.93-.929h0l-1.662,0,0-1.662a.93.93,0,0,0-.93-.929h-1.264a.931.931,0,0,0-.929.932l0,1.662-1.662,0a.93.93,0,0,0-.929.932v1.263a.931.931,0,0,0,.93.929Zm2.159-2.13a.5.5,0,0,0,.5-.5l0-2.094h1.13l0,2.094a.492.492,0,0,0,0,.051.5.5,0,0,0,.5.447h0l2.094,0v1.13l-2.094,0a.5.5,0,0,0-.5.5l0,2.094h-1.13l0-2.094a.5.5,0,0,0-.5-.5h0l-2.094,0v-1.13Z" transform="translate(-180.164 -111.283)" fill="#d0dbe5"/>
</svg>
