<svg xmlns="http://www.w3.org/2000/svg" xmlns:xlink="http://www.w3.org/1999/xlink" width="36" height="36" viewBox="0 0 36 36">
  <defs>
    <clipPath id="clip-path">
      <rect id="Rectangle_17404" data-name="Rectangle 17404" width="36" height="36" fill="#43425d"/>
    </clipPath>
  </defs>
  <g id="Mask_Group_80" data-name="Mask Group 80" clip-path="url(#clip-path)">
    <g id="search-computer-drug-pharmacy-monitor" transform="translate(2 2.04)">
      <path id="Path_5252" data-name="Path 5252" d="M32.829,9a1.069,1.069,0,0,1,1.065,1.065v15.98H3V10.065A1.069,1.069,0,0,1,4.065,9Z" transform="translate(-2.467 -5.271)" fill="#fff"/>
      <path id="Path_5253" data-name="Path 5253" d="M53.523,41v3.2a1.069,1.069,0,0,1-1.065,1.065H45V41Z" transform="translate(-22.096 -20.226)" fill="#fff"/>
      <path id="Path_5254" data-name="Path 5254" d="M41.261,39v9.588a2.131,2.131,0,0,1-4.261,0V39Z" transform="translate(-18.357 -19.292)" fill="#fff"/>
      <path id="Path_5255" data-name="Path 5255" d="M41.131,34.88v2.195H39V34.88a8.91,8.91,0,0,0,2.131,0Z" transform="translate(-19.292 -17.366)" fill="#fff"/>
      <path id="Path_5256" data-name="Path 5256" d="M30.251,59.131H18V58.065A1.069,1.069,0,0,1,19.065,57h9.055A2.131,2.131,0,0,0,30.251,59.131Z" transform="translate(-9.477 -27.704)" fill="#fff"/>
      <path id="Path_5257" data-name="Path 5257" d="M27,49h5.327v4.261H27Z" transform="translate(-13.683 -23.965)" fill="#fff"/>
      <path id="Path_5258" data-name="Path 5258" d="M21.111,41v4.261H4.065A1.069,1.069,0,0,1,3,44.2V41Z" transform="translate(-2.467 -20.226)" fill="#fff"/>
      <path id="Path_5259" data-name="Path 5259" d="M7,0a6.764,6.764,0,0,1,7,6.5A6.764,6.764,0,0,1,7,13,6.764,6.764,0,0,1,0,6.5,6.764,6.764,0,0,1,7,0Z" transform="translate(2 5.96)" fill="#fff"/>
      <path id="Path_5260" data-name="Path 5260" d="M21.024,18.93a1.6,1.6,0,0,1,.469,1.129,1.619,1.619,0,0,1-.469,1.135l-1.88,1.886-.005-.005L16.88,20.816l1.88-1.886A1.6,1.6,0,0,1,21.024,18.93Z" transform="translate(-8.954 -9.694)" fill="#fff"/>
      <path id="Path_5261" data-name="Path 5261" d="M17.078,25.144l-1.886,1.88a1.6,1.6,0,0,1-2.264-2.264l1.886-1.88,2.258,2.258Z" transform="translate(-6.888 -11.758)" fill="#fff"/>
      <circle id="Ellipse_984" data-name="Ellipse 984" cx="8.5" cy="8.5" r="8.5" transform="translate(12 0.96)" fill="#fff"/>
      <circle id="Ellipse_985" data-name="Ellipse 985" cx="6.5" cy="6.5" r="6.5" transform="translate(14 2.96)" fill="#fff"/>
      <path id="Path_5262" data-name="Path 5262" d="M34.925,19.849A6.925,6.925,0,1,0,28,12.925a6.925,6.925,0,0,0,6.925,6.925Zm0-12.784a5.859,5.859,0,1,1-5.859,5.859A5.859,5.859,0,0,1,34.925,7.065Z" transform="translate(-14.151 -3.869)" fill="#d0dbe5"/>
      <path id="Path_5263" data-name="Path 5263" d="M33.065,14.794a3.733,3.733,0,0,1,3.729-3.729V10A4.8,4.8,0,0,0,32,14.794Z" transform="translate(-16.02 -5.739)" fill="#d0dbe5"/>
      <path id="Path_5264" data-name="Path 5264" d="M40,42h1.065v1.065H40Z" transform="translate(-19.759 -20.694)" fill="#d0dbe5"/>
      <path id="Path_5265" data-name="Path 5265" d="M40,46h1.065v6.392H40Z" transform="translate(-19.759 -22.563)" fill="#d0dbe5"/>
      <path id="Path_5266" data-name="Path 5266" d="M32.362,5.2h-2.7a9.031,9.031,0,0,0-13.785,0H3.6A1.6,1.6,0,0,0,2,6.794V25.97a1.6,1.6,0,0,0,1.6,1.6H14.784v3.2h-3.2a1.6,1.6,0,0,0-1.6,1.6v1.065a.533.533,0,0,0,.533.533H22.774A2.663,2.663,0,0,0,25.437,31.3V27.568h6.925a1.6,1.6,0,0,0,1.6-1.6V6.794a1.6,1.6,0,0,0-1.6-1.6ZM22.774,3.065a7.99,7.99,0,1,1-7.99,7.99,7.99,7.99,0,0,1,7.99-7.99Zm.533,17.019v1.092H22.241V20.084c.176.011.352.027.533.027S23.131,20.095,23.306,20.084ZM10.677,13.122l1.5-1.507a1.074,1.074,0,0,1,1.513,0,.675.675,0,0,1,.059.069,9.008,9.008,0,0,0,.144,1.14.926.926,0,0,1-.2.3L12.184,14.63Zm.756,2.258-1.5,1.507a1.074,1.074,0,0,1-1.513,0,1.056,1.056,0,0,1-.314-.751,1.069,1.069,0,0,1,.314-.756l1.507-1.507Zm2.317-4.98a2.141,2.141,0,0,0-2.322.458L7.662,14.63a2.134,2.134,0,1,0,3.02,3.015l3.563-3.569a9.076,9.076,0,0,0,1.875,3.1,5.851,5.851,0,1,1-2.195-8.033,8.712,8.712,0,0,0-.176,1.257ZM3.065,6.794A.533.533,0,0,1,3.6,6.261H15.1a9.066,9.066,0,0,0-.879,1.832,6.925,6.925,0,1,0,2.69,9.849,8.957,8.957,0,0,0,4.261,2.019v1.214h-.533a.533.533,0,0,0-.533.533v.533H3.065ZM3.6,26.5a.533.533,0,0,1-.533-.533V23.307H20.111v3.2Zm16.513,1.065v3.2H15.849v-3.2Zm-9.055,5.327v-.533a.533.533,0,0,1,.533-.533h8.576a2.578,2.578,0,0,0,.5,1.065Zm13.317-1.6a1.6,1.6,0,0,1-3.2,0V22.241h3.2Zm8.523-5.327a.533.533,0,0,1-.533.533H25.437v-3.2h7.457Zm0-3.729H25.437v-.533a.533.533,0,0,0-.533-.533h-.533V19.961a9.032,9.032,0,0,0,6.072-13.7h1.918a.533.533,0,0,1,.533.533Z" transform="translate(-2 -2)" fill="#d0dbe5"/>
      <path id="Path_5267" data-name="Path 5267" d="M56,44h1.065v1.065H56Z" transform="translate(-27.236 -21.628)" fill="#d0dbe5"/>
      <path id="Path_5268" data-name="Path 5268" d="M52,44h1.065v1.065H52Z" transform="translate(-25.367 -21.628)" fill="#d0dbe5"/>
    </g>
  </g>
</svg>
