<svg width="67" height="41" viewBox="0 0 67 41" fill="none" xmlns="http://www.w3.org/2000/svg">
<g id="Group 162570">
<path id="Vector" d="M20.8962 0.083313C9.62625 0.083313 0.5 9.22998 0.5 20.5C0.5 31.77 9.62625 40.9166 20.8962 40.9166C32.1867 40.9166 41.3333 31.77 41.3333 20.5C41.3333 9.22998 32.1867 0.083313 20.8962 0.083313ZM35.045 12.3333H29.0221C28.3687 9.78123 27.4296 7.33123 26.2046 5.06498C29.9612 6.35123 33.085 8.96456 35.045 12.3333ZM20.9167 4.24831C22.6112 6.69831 23.9383 9.41373 24.8162 12.3333H17.0171C17.895 9.41373 19.2221 6.69831 20.9167 4.24831ZM5.11417 24.5833C4.7875 23.2766 4.58333 21.9087 4.58333 20.5C4.58333 19.0912 4.7875 17.7233 5.11417 16.4166H12.015C11.8517 17.7641 11.7292 19.1116 11.7292 20.5C11.7292 21.8883 11.8517 23.2358 12.015 24.5833H5.11417ZM6.78833 28.6666H12.8112C13.4646 31.2187 14.4037 33.6687 15.6287 35.935C11.8721 34.6487 8.74833 32.0558 6.78833 28.6666ZM12.8112 12.3333H6.78833C8.74833 8.94415 11.8721 6.35123 15.6287 5.06498C14.4037 7.33123 13.4646 9.78123 12.8112 12.3333ZM20.9167 36.7516C19.2221 34.3016 17.895 31.5862 17.0171 28.6666H24.8162C23.9383 31.5862 22.6112 34.3016 20.9167 36.7516ZM25.6942 24.5833H16.1392C15.9554 23.2358 15.8125 21.8883 15.8125 20.5C15.8125 19.1116 15.9554 17.7437 16.1392 16.4166H25.6942C25.8779 17.7437 26.0208 19.1116 26.0208 20.5C26.0208 21.8883 25.8779 23.2358 25.6942 24.5833ZM26.2046 35.935C27.4296 33.6687 28.3687 31.2187 29.0221 28.6666H35.045C33.085 32.0354 29.9612 34.6487 26.2046 35.935ZM29.8183 24.5833C29.9817 23.2358 30.1042 21.8883 30.1042 20.5C30.1042 19.1116 29.9817 17.7641 29.8183 16.4166H36.7192C37.0458 17.7233 37.25 19.0912 37.25 20.5C37.25 21.9087 37.0458 23.2766 36.7192 24.5833H29.8183Z" fill="#0D1C22"/>
<path id="Vector_2" d="M57.7578 25.7377C57.8312 25.8443 57.9294 25.9314 58.0439 25.9917C58.1585 26.0519 58.286 26.0833 58.4154 26.0833C58.5448 26.0833 58.6723 26.0519 58.7869 25.9917C58.9015 25.9314 58.9997 25.8443 59.0731 25.7377L66.2736 15.3384C66.357 15.2185 66.4059 15.078 66.415 14.9322C66.424 14.7864 66.393 14.641 66.3252 14.5116C66.2574 14.3822 66.1555 14.2739 66.0304 14.1984C65.9054 14.1229 65.7621 14.0831 65.616 14.0833H51.2149C51.0691 14.0839 50.9263 14.1242 50.8018 14.1999C50.6772 14.2756 50.5757 14.3838 50.5081 14.5129C50.4404 14.642 50.4093 14.787 50.4179 14.9325C50.4266 15.0779 50.4747 15.2183 50.5572 15.3384L57.7578 25.7377Z" fill="#0D1C22"/>
</g>
</svg>
