<svg width="163" height="229" viewBox="0 0 163 229" fill="none" xmlns="http://www.w3.org/2000/svg">
<g id="Layer_1" clip-path="url(#clip0_2407_338)">
<g id="Group">
<path id="Vector" d="M82.421 17.2287C82.421 17.2287 35.9051 41.5225 35.9253 88.5963C35.9455 128.857 53.2445 192.852 53.2445 192.852L82.5068 192.837L111.769 192.822C111.769 192.822 129.008 128.812 128.987 88.5508C128.967 41.4771 82.4261 17.2236 82.4261 17.2236L82.421 17.2287Z" fill="white" stroke="#0A1519" stroke-miterlimit="10"/>
<g id="Group_2">
<path id="Vector_2" d="M28.7827 167.503C26.1982 178.631 25.9408 215.98 25.9155 225.013C25.9155 225.412 26.4708 225.518 26.6121 225.14C29.7166 216.984 42.4624 184.465 49.8373 180.059C53.6484 164.824 51.3415 150.577 49.8221 146.036C49.8221 146.036 33.3813 147.691 28.7827 167.503Z" fill="#555555" stroke="#0A1519" stroke-miterlimit="10"/>
<path id="Vector_3" d="M136.196 167.453C138.79 178.581 139.083 215.925 139.113 224.958C139.113 225.356 138.563 225.462 138.417 225.089C135.302 216.934 122.531 184.429 115.151 180.029C111.325 164.799 114.066 150.577 115.136 146.005C115.136 146.005 131.577 147.645 136.196 167.453Z" fill="#555555" stroke="#0A1519" stroke-miterlimit="10"/>
</g>
<g id="Group_3">
<g id="Group_4">
<path id="Vector_4" d="M55.4657 172.888C55.4657 173.367 55.077 173.756 54.5975 173.756C54.1179 173.756 53.7292 173.367 53.7292 172.888C53.7292 172.409 54.1179 172.02 54.5975 172.02C55.077 172.02 55.4657 172.409 55.4657 172.888Z" fill="#1C1D22"/>
<path id="Vector_5" d="M63.9359 172.434H57.0557V173.342H63.9359V172.434Z" fill="#1C1D22"/>
</g>
<g id="Group_5">
<path id="Vector_6" d="M55.4657 176.209C55.4657 176.688 55.077 177.077 54.5975 177.077C54.1179 177.077 53.7292 176.688 53.7292 176.209C53.7292 175.729 54.1179 175.341 54.5975 175.341C55.077 175.341 55.4657 175.729 55.4657 176.209Z" fill="#1C1D22"/>
<path id="Vector_7" d="M63.941 175.754H57.0608V176.663H63.941V175.754Z" fill="#1C1D22"/>
</g>
<g id="Group_6">
<path id="Vector_8" d="M55.4657 179.529C55.4657 180.009 55.077 180.397 54.5975 180.397C54.1179 180.397 53.7292 180.009 53.7292 179.529C53.7292 179.05 54.1179 178.661 54.5975 178.661C55.077 178.661 55.4657 179.05 55.4657 179.529Z" fill="#1C1D22"/>
<path id="Vector_9" d="M63.941 179.075H57.0608V179.983H63.941V179.075Z" fill="#1C1D22"/>
</g>
</g>
<g id="Group_7">
<g id="Group_8">
<path id="Vector_10" d="M105.555 47.4574C105.555 47.9368 105.944 48.3254 106.424 48.3254C106.903 48.3254 107.292 47.9368 107.292 47.4574C107.292 46.9779 106.903 46.5894 106.424 46.5894C105.944 46.5894 105.555 46.9779 105.555 47.4574Z" fill="#1C1D22"/>
<path id="Vector_11" d="M103.96 47.0083H97.0801V47.9167H103.96V47.0083Z" fill="#1C1D22"/>
</g>
<g id="Group_9">
<path id="Vector_12" d="M105.555 50.7782C105.555 51.2576 105.944 51.6461 106.424 51.6461C106.903 51.6461 107.292 51.2576 107.292 50.7782C107.292 50.2987 106.903 49.9102 106.424 49.9102C105.944 49.9102 105.555 50.2987 105.555 50.7782Z" fill="#1C1D22"/>
<path id="Vector_13" d="M103.965 50.3291H97.0852V51.2375H103.965V50.3291Z" fill="#1C1D22"/>
</g>
<g id="Group_10">
<path id="Vector_14" d="M105.561 54.1033C105.561 54.5828 105.949 54.9713 106.429 54.9713C106.908 54.9713 107.297 54.5828 107.297 54.1033C107.297 53.6239 106.908 53.2354 106.429 53.2354C105.949 53.2354 105.561 53.6239 105.561 54.1033Z" fill="#1C1D22"/>
<path id="Vector_15" d="M103.965 53.6489H97.0852V54.5522H103.965V53.6489Z" fill="#1C1D22"/>
</g>
</g>
<g id="Group_11">
<path id="Vector_16" d="M108.312 87.5261C108.317 101.803 96.747 113.379 82.4666 113.389C68.1863 113.394 56.6065 101.828 56.5964 87.5513C56.5914 73.2748 68.1611 61.6981 82.4414 61.688C96.7218 61.6829 108.302 73.2495 108.312 87.5261Z" fill="white"/>
<path id="Vector_17" d="M106.05 87.5315C106.055 100.562 95.4951 111.129 82.4616 111.134C69.428 111.139 58.8578 100.582 58.8528 87.5517C58.8477 74.5216 69.4078 63.9543 82.4414 63.9492C95.4749 63.9442 106.045 74.5014 106.05 87.5315Z" stroke="#0A1519" stroke-width="1.5" stroke-miterlimit="10" stroke-linecap="round"/>
<path id="Vector_18" d="M97.5574 102.644C105.9 94.3042 105.9 80.7818 97.5574 72.4414C89.2148 64.1011 75.6888 64.1011 67.3463 72.4414C59.0037 80.7818 59.0037 94.3042 67.3463 102.644C75.6889 110.985 89.2148 110.985 97.5574 102.644Z" fill="#555555"/>
<g id="Clip path group">
<mask id="mask0_2407_338" style="mask-type:luminance" maskUnits="userSpaceOnUse" x="61" y="66" width="43" height="43">
<g id="clippath">
<path id="Vector_19" d="M87.8007 108.217C99.223 105.263 106.088 93.6122 103.134 82.1928C100.18 70.7735 88.5256 63.9104 77.1032 66.8636C65.6808 69.8169 58.8159 81.4681 61.7699 92.8875C64.7239 104.307 76.3783 111.17 87.8007 108.217Z" fill="white"/>
</g>
</mask>
<g mask="url(#mask0_2407_338)">
<g id="Group_12">
<g id="Group_13" opacity="0.65">
<path id="Vector_20" d="M105.973 72.9054L98.4641 66.106L62.7023 105.577L70.2109 112.376L105.973 72.9054Z" fill="white"/>
<path id="Vector_21" d="M109.211 75.8318L107.789 74.5444L72.0275 114.015L73.4491 115.303L109.211 75.8318Z" fill="white"/>
<path id="Vector_22" d="M96.062 64.4169L93.6265 62.2114L57.8646 101.682L60.3002 103.888L96.062 64.4169Z" fill="white"/>
</g>
</g>
</g>
</g>
</g>
<path id="Vector_23" d="M82.4817 150.602C78.6201 149.921 73.3653 164.294 73.3704 177.253C73.3754 188.461 80.2152 217.479 82.0628 225.109C82.1435 225.442 82.6281 225.402 82.6534 225.058C83.4711 213.325 87.5498 151.501 82.4817 150.602Z" fill="#555555" stroke="#0A1519" stroke-miterlimit="10"/>
<path id="Vector_24" d="M56.8083 37.7782H108.074C95.697 24.1577 82.4211 17.2339 82.4211 17.2339C82.4211 17.2339 69.1655 24.1627 56.8083 37.7782Z" fill="#555555" stroke="#0A1519" stroke-miterlimit="10"/>
</g>
<g id="Group_14">
<path id="Vector_25" d="M125.242 0.262534L143.955 0.252441" stroke="#555555" stroke-linejoin="round"/>
<path id="Vector_26" d="M125.242 3.67904L155.065 3.66895" stroke="#555555" stroke-linejoin="round"/>
<path id="Vector_27" d="M125.247 7.10059L155.065 7.08545" stroke="#555555" stroke-linejoin="round"/>
<path id="Vector_28" d="M125.247 10.5169L155.07 10.5068" stroke="#555555" stroke-linejoin="round"/>
</g>
<g id="Group_15">
<path id="Vector_29" d="M7.12744 34.3566L25.8398 34.3516" stroke="#555555" stroke-linejoin="round"/>
<path id="Vector_30" d="M7.12744 37.7783L36.9501 37.7632" stroke="#555555" stroke-linejoin="round"/>
<path id="Vector_31" d="M7.12744 41.1997L36.9501 41.1846" stroke="#555555" stroke-linejoin="round"/>
<path id="Vector_32" d="M7.13257 44.6162L36.9552 44.6011" stroke="#555555" stroke-linejoin="round"/>
</g>
<g id="Group_16">
<path id="Vector_33" d="M152.602 74.3854L163 74.3804" stroke="#555555" stroke-linejoin="round"/>
<path id="Vector_34" d="M133.097 77.812L162.914 77.7969" stroke="#555555" stroke-linejoin="round"/>
<path id="Vector_35" d="M133.097 81.2334L162.919 81.2183" stroke="#555555" stroke-linejoin="round"/>
<path id="Vector_36" d="M133.097 84.6502L162.919 84.6401" stroke="#555555" stroke-linejoin="round"/>
</g>
<g id="Group_17">
<path id="Vector_37" d="M19.5049 132.546L29.9034 132.541" stroke="#555555" stroke-linejoin="round"/>
<path id="Vector_38" d="M0 135.973L29.8227 135.958" stroke="#555555" stroke-linejoin="round"/>
<path id="Vector_39" d="M0 139.394L29.8227 139.379" stroke="#555555" stroke-linejoin="round"/>
<path id="Vector_40" d="M0 142.81L29.8227 142.8" stroke="#555555" stroke-linejoin="round"/>
</g>
<path id="Vector_41" d="M91.255 29.2093L91.25 7.11573L120.406 7.10059" stroke="#555555" stroke-miterlimit="10"/>
<path id="Vector_42" d="M44.4767 96.6152L19.4848 96.6303L19.4646 50.8081" stroke="#555555" stroke-miterlimit="10"/>
<g id="Group_18">
<path id="Vector_43" d="M31.973 190.97L12.8669 190.99L12.8467 147.63" stroke="#555555" stroke-miterlimit="10"/>
<path id="Vector_44" d="M31.9729 189.516C31.1552 189.516 30.4939 190.177 30.4939 190.99C30.4939 191.802 31.1552 192.463 31.9729 192.463C32.7907 192.463 33.4519 191.802 33.4519 190.99C33.4519 190.177 32.7907 189.516 31.9729 189.516Z" fill="#555555"/>
</g>
<path id="Vector_45" d="M86.6562 102.035L148.018 102.005L148.013 91.2256" stroke="#555555" stroke-miterlimit="10"/>
<path id="Vector_46" d="M44.4766 94.9751C43.6588 94.9751 42.9976 95.6362 42.9976 96.4487C42.9976 97.2612 43.6588 97.9223 44.4766 97.9223C45.2943 97.9223 45.9556 97.2612 45.9556 96.4487C45.9556 95.6362 45.2943 94.9751 44.4766 94.9751Z" fill="#555555"/>
<path id="Vector_47" d="M86.7522 100.557C85.9345 100.557 85.2732 101.218 85.2732 102.03C85.2732 102.843 85.9345 103.504 86.7522 103.504C87.57 103.504 88.2312 102.843 88.2312 102.03C88.2312 101.218 87.57 100.557 86.7522 100.557Z" fill="#555555"/>
<path id="Vector_48" d="M91.25 27.7354C90.4323 27.7354 89.771 28.3964 89.771 29.2089C89.771 30.0214 90.4323 30.6825 91.25 30.6825C92.0678 30.6825 92.729 30.0214 92.729 29.2089C92.729 28.3964 92.0678 27.7354 91.25 27.7354Z" fill="#555555"/>
</g>
<defs>
<clipPath id="clip0_2407_338">
<rect width="163" height="229" fill="white"/>
</clipPath>
</defs>
</svg>
