<svg width="259" height="209" viewBox="0 0 259 209" fill="none" xmlns="http://www.w3.org/2000/svg">
<g style="mix-blend-mode:multiply" opacity="0.2">
<path d="M182.025 161.907L142.833 29.9645C142.046 27.319 139.222 25.7993 136.522 26.5697L30.1028 56.9177C27.4027 57.688 25.8518 60.4556 26.638 63.1012L65.8303 195.044C66.6164 197.69 69.441 199.209 72.1411 198.439L178.56 168.091C181.26 167.321 182.811 164.553 182.025 161.907Z" fill="#0D1C22"/>
</g>
<path d="M182.619 160.183L76.2004 190.531C73.5004 191.301 70.6758 189.78 69.8896 187.136L30.6987 55.1919C29.9125 52.5463 31.4648 49.7787 34.1635 49.0084L140.582 18.6604C143.283 17.8901 146.107 19.411 146.893 22.0553L186.086 153.998C186.872 156.644 185.32 159.411 182.621 160.182L182.619 160.183Z" fill="white"/>
<path d="M144.363 41.985L144.079 41.031L43.4636 69.7242L44.0087 71.5588L46.3378 79.3984L46.8829 81.233L49.2119 89.0726L49.7571 90.9072L52.0861 98.7468L52.6312 100.581L54.9603 108.421L55.5054 110.256L57.8344 118.095L58.3795 119.93L60.7086 127.769L61.2537 129.604L161.869 100.911L161.792 100.651L144.365 41.9785L144.363 41.985ZM111.332 81.8537L103.331 84.1358L101.002 76.2962L109.003 74.0141L111.332 81.8537ZM110.875 73.48L118.876 71.1979L121.205 79.0375L113.204 81.3196L110.875 73.48ZM101.457 84.6699L93.4561 86.952L91.127 79.1123L99.1281 76.8303L101.457 84.6699ZM91.5824 87.4861L83.5814 89.7681L81.2523 81.9285L89.2533 79.6464L91.5824 87.4861ZM92.1275 89.3206L94.4566 97.1603L86.4555 99.4423L84.1265 91.6027L92.1275 89.3206ZM93.9999 88.7865L102.001 86.5045L104.33 94.3441L96.3289 96.6262L93.9999 88.7865ZM103.875 85.9704L111.876 83.6883L114.205 91.5279L106.204 93.81L103.875 85.9704ZM113.749 83.1542L121.75 80.8721L124.079 88.7117L116.078 90.9938L113.749 83.1542ZM123.624 80.338L131.625 78.056L133.954 85.8956L125.953 88.1776L123.624 80.338ZM123.079 78.5034L120.75 70.6638L128.751 68.3818L131.08 76.2214L123.079 78.5034ZM120.205 68.8279L117.876 60.9883L125.877 58.7062L128.206 66.5459L120.205 68.8279ZM118.332 69.362L110.331 71.6441L108.002 63.8045L116.003 61.5224L118.332 69.362ZM108.458 72.1782L100.457 74.4603L98.1276 66.6207L106.129 64.3386L108.458 72.1782ZM98.583 74.9944L90.5819 77.2764L88.2529 69.4368L96.2539 67.1548L98.583 74.9944ZM88.7082 77.8106L80.7072 80.0926L78.3781 72.253L86.3792 69.9709L88.7082 77.8106ZM78.8335 80.6267L70.8325 82.9088L68.5034 75.0692L76.5044 72.7871L78.8335 80.6267ZM79.3786 82.4613L81.7077 90.3009L73.7066 92.583L71.3776 84.7434L79.3786 82.4613ZM82.2528 92.1368L84.5818 99.9764L76.5808 102.259L74.2517 94.4189L82.2528 92.1368ZM85.1269 101.812L87.456 109.652L79.4549 111.934L77.1259 104.094L85.1269 101.812ZM86.9993 101.278L95.0003 98.9962L97.3294 106.836L89.3283 109.118L86.9993 101.278ZM96.874 98.4621L104.875 96.18L107.204 104.02L99.2031 106.302L96.874 98.4621ZM106.749 95.6459L114.75 93.3638L117.079 101.203L109.078 103.485L106.749 95.6459ZM116.624 92.8297L124.625 90.5476L126.954 98.3873L118.953 100.669L116.624 92.8297ZM126.498 90.0135L134.499 87.7315L136.828 95.5711L128.827 97.8532L126.498 90.0135ZM136.373 87.1974L144.374 84.9153L146.703 92.7549L138.702 95.037L136.373 87.1974ZM135.828 85.3628L133.499 77.5232L141.5 75.2411L143.829 83.0807L135.828 85.3628ZM132.954 75.6873L130.625 67.8477L138.626 65.5656L140.955 73.4052L132.954 75.6873ZM130.08 66.0118L127.751 58.1721L135.752 55.8901L138.081 63.7297L130.08 66.0118ZM127.205 56.3362L124.876 48.4966L132.877 46.2146L135.206 54.0542L127.205 56.3362ZM125.333 56.8703L117.332 59.1524L115.003 51.3128L123.004 49.0307L125.333 56.8703ZM115.458 59.6865L107.457 61.9686L105.128 54.129L113.129 51.8469L115.458 59.6865ZM105.584 62.5027L97.5825 64.7848L95.2535 56.9451L103.255 54.6631L105.584 62.5027ZM95.7088 65.3189L87.7078 67.6009L85.3787 59.7613L93.3798 57.4792L95.7088 65.3189ZM85.8341 68.135L77.833 70.4171L75.504 62.5775L83.505 60.2954L85.8341 68.135ZM75.9593 70.9512L67.9583 73.2333L65.6292 65.3937L73.6303 63.1116L75.9593 70.9512ZM66.0846 73.7674L58.0835 76.0495L55.7545 68.2098L63.7555 65.9278L66.0846 73.7674ZM66.6297 75.602L68.9588 83.4416L60.9577 85.7237L58.6286 77.884L66.6297 75.602ZM69.5039 85.2775L71.8329 93.1171L63.8319 95.3992L61.5028 87.5595L69.5039 85.2775ZM72.378 94.953L74.7071 102.793L66.706 105.075L64.377 97.2351L72.378 94.953ZM75.2522 104.629L77.5812 112.468L69.5802 114.75L67.2511 106.911L75.2522 104.629ZM78.1263 114.304L80.4554 122.144L72.4544 124.426L70.1253 116.586L78.1263 114.304ZM79.9987 113.77L87.9997 111.488L90.3288 119.327L82.3278 121.61L79.9987 113.77ZM89.8734 110.954L97.8745 108.672L100.204 116.511L92.2025 118.793L89.8734 110.954ZM99.7482 108.138L107.749 105.855L110.078 113.695L102.077 115.977L99.7482 108.138ZM109.623 105.321L117.624 103.039L119.953 110.879L111.952 113.161L109.623 105.321ZM119.498 102.505L127.499 100.223L129.828 108.063L121.827 110.345L119.498 102.505ZM129.372 99.689L137.373 97.407L139.703 105.247L131.701 107.529L129.372 99.689ZM139.247 96.8729L147.248 94.5908L149.577 102.43L141.576 104.712L139.247 96.8729ZM149.122 94.0567L157.123 91.7746L159.452 99.6142L151.451 101.896L149.122 94.0567ZM148.577 92.2221L146.248 84.3825L154.249 82.1004L156.578 89.94L148.577 92.2221ZM145.703 82.5466L143.374 74.707L151.375 72.4249L153.704 80.2645L145.703 82.5466ZM142.828 72.8711L140.499 65.0315L148.5 62.7494L150.83 70.589L142.828 72.8711ZM139.954 63.1956L137.625 55.356L145.626 53.0739L147.955 60.9135L139.954 63.1956ZM137.08 53.5201L134.751 45.6805L142.752 43.3984L145.081 51.238L137.08 53.5201ZM45.8824 71.0221L53.8835 68.74L56.2125 76.5796L48.2115 78.8617L45.8824 71.0221ZM48.7566 80.6976L56.7576 78.4155L59.0867 86.2551L51.0856 88.5372L48.7566 80.6976ZM51.6307 90.3731L59.6318 88.091L61.9609 95.9306L53.9598 98.2127L51.6307 90.3731ZM54.5049 100.049L62.506 97.7665L64.835 105.606L56.834 107.888L54.5049 100.049ZM57.3791 109.724L65.3801 107.442L67.7092 115.282L59.7081 117.564L57.3791 109.724ZM60.2532 119.4L68.2543 117.118L70.5833 124.957L62.5823 127.239L60.2532 119.4Z" fill="#D6D7D9"/>
<path d="M69.0083 117.439C68.6641 117.537 68.2811 117.503 67.9449 117.314C67.29 116.946 67.0637 116.127 67.44 115.485L74.9093 102.748C75.0861 102.447 75.3741 102.226 75.7129 102.128L85.1337 99.4422L91.5034 87.5358C91.6735 87.2169 91.9682 86.9794 92.3204 86.8744C92.6753 86.7905 93.053 86.8101 93.3744 86.9834L104.526 92.995L108.327 72.5954C108.406 72.1702 108.689 71.8094 109.089 71.6243C109.484 71.4393 109.952 71.455 110.338 71.665L121.781 77.901L128.31 66.5248L135.22 54.0331C135.58 53.3822 136.409 53.1407 137.073 53.4937C137.738 53.8467 137.984 54.6604 137.624 55.3099L130.704 67.82L123.497 80.3773C123.127 81.019 122.298 81.25 121.639 80.8917L110.674 74.9169L106.876 95.3072C106.797 95.7311 106.514 96.092 106.118 96.277C105.722 96.462 105.257 96.4489 104.871 96.2416L93.278 89.9924L87.2859 101.193C87.1131 101.516 86.8132 101.756 86.4569 101.857L77.0054 104.552L69.8106 116.821C69.6271 117.133 69.3351 117.346 69.007 117.44L69.0083 117.439Z" fill="#34C87C"/>
<path d="M70.9943 117.256C71.6864 116.021 71.2256 114.47 69.9652 113.792C68.7048 113.113 67.1219 113.565 66.4299 114.8C65.7378 116.035 66.1985 117.586 67.459 118.264C68.7194 118.942 70.3023 118.491 70.9943 117.256Z" fill="#192327"/>
<path d="M69.8479 115.712C70.0314 116.327 69.6698 116.972 69.0416 117.152C68.4135 117.331 67.7559 116.977 67.5724 116.362C67.3889 115.746 67.7505 115.102 68.3787 114.922C69.0068 114.742 69.6644 115.097 69.8479 115.712Z" fill="white"/>
<path d="M78.4086 105.138C79.1007 103.903 78.64 102.352 77.3795 101.674C76.1191 100.996 74.5362 101.448 73.8442 102.683C73.1521 103.918 73.6129 105.468 74.8733 106.147C76.1337 106.825 77.7166 106.373 78.4086 105.138Z" fill="#192327"/>
<path d="M77.2651 103.594C77.4486 104.21 77.087 104.854 76.4589 105.034C75.8307 105.214 75.1731 104.859 74.9896 104.244C74.8062 103.628 75.1678 102.984 75.7959 102.804C76.424 102.625 77.0816 102.979 77.2651 103.594Z" fill="white"/>
<path d="M88.4318 102.281C89.1239 101.046 88.6631 99.4948 87.4027 98.8167C86.1423 98.1386 84.5594 98.5901 83.8674 99.8251C83.1753 101.06 83.636 102.611 84.8965 103.289C86.1569 103.967 87.7397 103.516 88.4318 102.281Z" fill="#192327"/>
<path d="M87.2886 100.736C87.4721 101.352 87.1104 101.996 86.4823 102.176C85.8542 102.356 85.1966 102.001 85.0131 101.386C84.8296 100.77 85.1912 100.126 85.8193 99.9462C86.4475 99.7664 87.1051 100.121 87.2886 100.736Z" fill="white"/>
<path d="M95.1462 90.0381C95.8383 88.8031 95.3775 87.2522 94.1171 86.5741C92.8566 85.896 91.2738 86.3474 90.5817 87.5824C89.8896 88.8174 90.3504 90.3683 91.6108 91.0464C92.8713 91.7245 94.4541 91.2731 95.1462 90.0381Z" fill="#192327"/>
<path d="M94.0024 88.4938C94.1859 89.1092 93.8243 89.7536 93.1962 89.9334C92.568 90.1131 91.9104 89.7588 91.7269 89.1434C91.5435 88.5279 91.9051 87.8835 92.5332 87.7038C93.1613 87.524 93.8189 87.8783 94.0024 88.4938Z" fill="white"/>
<path d="M107.986 96.7676C108.678 95.5326 108.218 93.9817 106.957 93.3036C105.697 92.6254 104.114 93.0769 103.422 94.3119C102.73 95.5469 103.19 97.0978 104.451 97.7759C105.711 98.454 107.294 98.0026 107.986 96.7676Z" fill="#192327"/>
<path d="M106.843 95.2233C107.026 95.8387 106.664 96.4831 106.036 96.6628C105.408 96.8426 104.751 96.4883 104.567 95.8728C104.384 95.2574 104.745 94.613 105.373 94.4333C106.001 94.2535 106.659 94.6078 106.843 95.2233Z" fill="white"/>
<path d="M112.106 74.5195C112.798 73.2845 112.337 71.7336 111.077 71.0555C109.816 70.3774 108.234 70.8289 107.541 72.0639C106.849 73.2989 107.31 74.8498 108.571 75.5279C109.831 76.206 111.414 75.7545 112.106 74.5195Z" fill="#192327"/>
<path d="M110.964 72.9747C111.147 73.5902 110.785 74.2345 110.157 74.4143C109.529 74.5941 108.872 74.2398 108.688 73.6243C108.505 73.0088 108.866 72.3645 109.494 72.1847C110.123 72.0049 110.78 72.3593 110.964 72.9747Z" fill="white"/>
<path d="M124.776 80.8855C125.468 79.6505 125.007 78.0996 123.747 77.4215C122.486 76.7434 120.903 77.1948 120.211 78.4298C119.519 79.6648 119.98 81.2157 121.24 81.8938C122.501 82.572 124.084 82.1205 124.776 80.8855Z" fill="#192327"/>
<path d="M123.632 79.3407C123.816 79.9562 123.454 80.6005 122.826 80.7803C122.198 80.96 121.54 80.6057 121.357 79.9903C121.173 79.3748 121.535 78.7305 122.163 78.5507C122.791 78.3709 123.449 78.7252 123.632 79.3407Z" fill="white"/>
<path d="M131.33 69.1273C132.377 68.1619 132.427 66.5474 131.442 65.5211C130.457 64.4949 128.809 64.4456 127.762 65.411C126.714 66.3763 126.664 67.9909 127.649 69.0171C128.634 70.0433 130.282 70.0926 131.33 69.1273Z" fill="#192327"/>
<path d="M130.684 66.9564C130.867 67.5719 130.505 68.2162 129.877 68.396C129.249 68.5758 128.592 68.2215 128.408 67.606C128.225 66.9905 128.586 66.3462 129.214 66.1664C129.843 65.9866 130.5 66.3409 130.684 66.9564Z" fill="white"/>
<path d="M138.726 55.9267C139.418 54.6917 138.957 53.1409 137.696 52.4627C136.436 51.7846 134.853 52.2361 134.161 53.4711C133.469 54.7061 133.93 56.257 135.19 56.9351C136.451 57.6132 138.033 57.1618 138.726 55.9267Z" fill="#192327"/>
<path d="M137.585 54.381C137.769 54.9964 137.407 55.6408 136.779 55.8205C136.151 56.0003 135.493 55.646 135.31 55.0306C135.126 54.4151 135.488 53.7708 136.116 53.591C136.744 53.4112 137.402 53.7655 137.585 54.381Z" fill="white"/>
<path d="M73.0598 54.3599L44.1535 62.6038C42.7257 63.0106 41.2311 62.2074 40.8159 60.8072C40.4007 59.4083 41.2204 57.9438 42.6494 57.537L71.5558 49.2932C72.9835 48.8864 74.4781 49.6895 74.8933 51.0897C75.3085 52.4886 74.4889 53.9531 73.0598 54.3599Z" fill="#00B08C"/>
<path d="M96.3745 132.849L67.4681 141.093C66.0404 141.5 64.5458 140.697 64.1306 139.296C63.7154 137.898 64.5351 136.433 65.9641 136.026L94.8705 127.782C96.2982 127.376 97.7928 128.179 98.208 129.579C98.6232 130.978 97.8036 132.442 96.3745 132.849Z" fill="#D6D7D9"/>
<path d="M166.372 125.52L84.0206 149.005C82.5929 149.412 81.0983 148.609 80.6831 147.208C80.2679 145.809 81.0875 144.345 82.5166 143.938L164.868 120.453C166.296 120.047 167.791 120.85 168.206 122.25C168.621 123.649 167.801 125.113 166.372 125.52Z" fill="#D6D7D9"/>
<path d="M169.83 137.164L74.3856 164.382C72.9579 164.789 71.4632 163.986 71.0481 162.586C70.6329 161.187 71.4525 159.722 72.8816 159.316L168.326 132.097C169.754 131.691 171.249 132.494 171.664 133.894C172.079 135.293 171.259 136.757 169.83 137.164Z" fill="#D6D7D9"/>
<path d="M173.29 148.809L77.8451 176.028C76.4174 176.434 74.9227 175.631 74.5075 174.231C74.0923 172.832 74.912 171.368 76.3411 170.961L171.786 143.743C173.213 143.336 174.708 144.139 175.123 145.539C175.539 146.938 174.719 148.403 173.29 148.809Z" fill="#D6D7D9"/>
<g style="mix-blend-mode:multiply" opacity="0.2">
<path d="M230.532 9.77365C230.426 7.02047 228.062 4.87356 225.254 4.97723L114.498 9.06108C111.688 9.16475 109.497 11.4796 109.603 14.2328L114.877 151.553C114.983 154.307 117.347 156.454 120.155 156.35L230.911 152.266C233.721 152.162 235.912 149.847 235.806 147.094L230.532 9.77497V9.77365Z" fill="#0D1C22"/>
</g>
<path d="M234.975 147.291L124.219 151.375C121.409 151.479 119.047 149.33 118.941 146.578L113.667 9.25918C113.561 6.506 115.753 4.19112 118.562 4.08745L229.317 0.0035999C232.127 -0.100071 234.49 2.04815 234.596 4.80002L239.87 142.119C239.976 144.873 237.783 147.187 234.975 147.291Z" fill="white"/>
<path d="M203.688 55.1328C198.433 45.107 187.584 38.4077 175.351 38.8591C171.355 39.0061 167.563 39.9037 164.114 41.4089C153.045 46.2368 145.501 57.3139 145.984 69.8856C146.46 82.2789 154.604 92.6499 165.766 96.7731C169.452 98.1353 173.471 98.815 177.648 98.6615C180.135 98.5696 182.543 98.1864 184.838 97.55C184.852 97.5461 184.866 97.5421 184.88 97.5382C198.09 93.8428 207.558 81.6687 207.018 67.635C206.845 63.1339 205.66 58.8991 203.688 55.1328ZM182.898 90.73C182.888 90.734 182.877 90.7379 182.866 90.7405C181.114 91.2261 179.277 91.5187 177.376 91.5896C174.186 91.7077 171.12 91.188 168.305 90.1487C159.783 87.0018 153.566 79.0835 153.203 69.6205C152.835 60.0224 158.592 51.566 167.043 47.8798C169.675 46.7316 172.571 46.0452 175.623 45.9324C184.963 45.5886 193.247 50.7026 197.258 58.3585C198.764 61.2337 199.669 64.4672 199.8 67.9027C200.212 78.6189 192.985 87.9125 182.898 90.7313V90.73Z" fill="#D6D7D9"/>
<path d="M203.688 55.1328L197.258 58.3571C193.247 50.7012 184.963 45.5873 175.623 45.9311C172.572 46.0439 169.675 46.7289 167.043 47.8785L164.114 41.4089C167.562 39.9037 171.353 39.0061 175.351 38.8591C187.584 38.4077 198.433 45.107 203.688 55.1328Z" fill="#192327"/>
<path d="M207.018 67.635C207.558 81.6686 198.089 93.8427 184.88 97.5381C184.866 97.5421 184.852 97.546 184.837 97.5499L182.866 90.7405C182.877 90.7379 182.887 90.7339 182.898 90.73C192.983 87.9112 200.211 78.6175 199.8 67.9014C199.668 64.4658 198.764 61.2323 197.258 58.3571L203.688 55.1328C205.66 58.8991 206.845 63.1325 207.018 67.635Z" fill="#00B08C"/>
<path d="M184.88 97.5383C184.866 97.5422 184.852 97.5462 184.837 97.5501C182.543 98.1866 180.135 98.5697 177.648 98.6616C173.471 98.8151 169.453 98.1354 165.766 96.7732L168.305 90.1475C171.12 91.1881 174.186 91.7065 177.376 91.5884C179.277 91.5188 181.114 91.2262 182.866 90.7393C182.877 90.7367 182.887 90.7327 182.898 90.7288L184.88 97.537V97.5383Z" fill="#34C87C"/>
<path d="M188.368 79.5467C187.867 80.0755 187.338 80.5663 186.781 81.0046C180.64 85.9677 171.556 85.8483 165.542 80.4285C165.526 80.4194 165.51 80.4036 165.494 80.3892C160.743 76.0731 159.239 69.6126 161.086 63.9383C161.781 61.7875 162.964 59.7455 164.633 57.9766C165.55 57.0081 166.561 56.1774 167.639 55.4845C170.978 53.3376 174.968 52.5214 178.807 53.0647C181.953 53.5004 184.998 54.8546 187.505 57.1341C194.06 63.0906 194.446 73.123 188.367 79.5454L188.368 79.5467Z" fill="#D6D7D9"/>
<path d="M159.071 18.3914L128.986 19.5003C127.499 19.5554 126.249 18.419 126.193 16.9636C126.137 15.507 127.297 14.2826 128.782 14.2275L158.867 13.1186C160.354 13.0635 161.603 14.2 161.659 15.6553C161.716 17.1119 160.556 18.3363 159.071 18.3914Z" fill="#34C87C"/>
<path d="M220.589 27.3282L129.359 30.6929C127.872 30.748 126.623 29.6116 126.567 28.1562C126.51 26.6996 127.67 25.4752 129.156 25.4201L220.385 22.0554C221.872 22.0003 223.122 23.1367 223.178 24.592C223.234 26.0487 222.074 27.2731 220.589 27.3282Z" fill="#D6D7D9"/>
<path d="M178.808 53.0661L176.5 68.7572L161.086 63.9398C161.781 61.7889 162.964 59.747 164.633 57.978C165.55 57.0096 166.561 56.1789 167.639 55.486C170.978 53.3391 174.968 52.5228 178.807 53.0661H178.808Z" fill="#00B08C"/>
<path d="M188.368 79.5466C187.867 80.0755 187.338 80.5663 186.781 81.0046C183.682 77.3013 176.5 68.757 176.5 68.757L178.808 53.0659C181.954 53.5016 185 54.8559 187.507 57.1353C194.061 63.0918 194.447 73.1243 188.368 79.5466Z" fill="#192327"/>
<path d="M144.049 106.767L129.619 107.3L130.838 138.977L145.268 138.444L144.049 106.767Z" fill="#34C87C"/>
<path d="M165.087 118.827L150.657 119.36L151.383 138.218L165.813 137.684L165.087 118.827Z" fill="#D6D7D9"/>
<path d="M185.482 114.138L171.052 114.671L171.929 137.46L186.359 136.926L185.482 114.138Z" fill="#34C87C"/>
<path d="M206.436 124.007L192.006 124.54L192.474 136.701L206.904 136.167L206.436 124.007Z" fill="#D6D7D9"/>
<path d="M226.422 108.707L211.992 109.24L213.02 135.942L227.45 135.409L226.422 108.707Z" fill="#34C87C"/>
<g style="mix-blend-mode:multiply" opacity="0.2">
<path d="M225.557 98.2459L220.127 103.08L226.719 110.189L232.149 105.354L225.557 98.2459Z" fill="#0D1C22"/>
<path d="M188.589 63.7283C177.763 73.371 176.961 89.7943 186.802 100.4C196.643 111.014 213.397 111.801 224.229 102.157C235.062 92.5147 235.865 76.0914 226.023 65.4854C216.181 54.8716 199.42 54.0843 188.587 63.7283H188.589ZM222.476 68.6454C230.539 77.3315 229.878 90.7824 221.006 98.6811C212.133 106.581 198.413 105.934 190.35 97.2468C182.287 88.5529 182.941 75.1032 191.814 67.2032C200.687 59.3032 214.413 59.9502 222.476 68.6441V68.6454Z" fill="#0D1C22"/>
<path d="M256.539 133.001L252.481 136.614C251.196 137.757 249.209 137.664 248.042 136.406L224.122 110.612L232.832 102.858L256.752 128.651C257.918 129.91 257.823 131.857 256.539 133V133.001Z" fill="#0D1C22"/>
</g>
<g style="mix-blend-mode:multiply" opacity="0.2">
<path d="M57.2105 31.9251L23.0139 24.508C19.9777 23.8492 16.9428 25.7442 16.2705 28.7204L15.57 31.8201L14.9928 31.6954C14.5173 31.5931 14.0419 31.8896 13.9374 32.3555L12.7414 37.6506C12.6356 38.1164 12.9396 38.581 13.4137 38.6847L13.991 38.8093L13.6923 40.1308L13.1151 40.0061C12.6396 39.9038 12.1641 40.2004 12.0597 40.6662L10.8637 45.9613C10.7579 46.4272 11.0619 46.8917 11.536 46.9954L12.1132 47.1201L1.5876 93.7064C0.915265 96.6813 2.84923 99.655 5.88679 100.314L40.0834 107.731C43.1196 108.39 46.1545 106.495 46.8269 103.518L61.5097 38.5298C62.1821 35.5549 60.2481 32.5812 57.2105 31.9224V31.9251Z" fill="#0D1C22"/>
</g>
<path d="M14.4697 27.2982L13.7701 27.1465C13.1671 27.0157 12.57 27.3887 12.4366 27.9795L11.3411 32.8292C11.2076 33.4201 11.5883 34.0051 12.1913 34.1359L12.8909 34.2876C13.494 34.4184 14.091 34.0454 14.2245 33.4545L15.32 28.6048C15.4534 28.014 15.0728 27.429 14.4697 27.2982Z" fill="#1C2A2F"/>
<path d="M12.5916 35.6095L11.8919 35.4577C11.2889 35.327 10.6919 35.6999 10.5584 36.2908L9.46291 41.1405C9.32944 41.7313 9.7101 42.3164 10.3131 42.4471L11.0127 42.5989C11.6158 42.7296 12.2128 42.3567 12.3463 41.7658L13.4418 36.9161C13.5753 36.3252 13.1946 35.7402 12.5916 35.6095Z" fill="#1C2A2F"/>
<path d="M38.6289 103.135L4.43222 95.718C1.396 95.0592 -0.537963 92.0869 0.133032 89.1106L14.8159 24.1221C15.4882 21.1471 18.5218 19.2522 21.5593 19.9096L55.756 27.3267C58.7922 27.9855 60.7262 30.9578 60.0552 33.9341L45.3723 98.9226C44.7 101.898 41.6664 103.793 38.6289 103.135Z" fill="#0A1519"/>
<path d="M44.5226 97.5451L58.6873 34.8379C59.3689 31.8206 57.425 28.8331 54.3455 28.1653L22.4764 21.2541C19.3969 20.5863 16.348 22.4909 15.6664 25.5083L1.50171 88.2155C0.820135 91.2328 2.76402 94.2203 5.8435 94.8881L37.7126 101.799C40.7921 102.467 43.841 100.562 44.5226 97.5451Z" fill="white"/>
<path d="M37.5024 35.6466L19.9547 31.8357C18.8002 31.5851 18.0636 30.4539 18.3208 29.3214C18.5766 28.1902 19.7311 27.4684 20.8869 27.7204L38.4345 31.5313C39.589 31.7819 40.3257 32.9131 40.0685 34.0456C39.8127 35.1768 38.6582 35.8986 37.5024 35.6479V35.6466Z" fill="#00B08C"/>
<path d="M51.0254 47.0372L25.4673 41.4876C24.495 41.2763 23.8762 40.3236 24.0905 39.3708C24.3061 38.4181 25.2785 37.8118 26.2508 38.0218L51.8089 43.5715C52.7812 43.7827 53.4 44.7355 53.1857 45.6882C52.9701 46.6409 51.9978 47.2472 51.0254 47.0372Z" fill="#D6D7D9"/>
<path d="M49.5053 53.76L15.8484 46.4519C14.8761 46.2406 14.2573 45.2879 14.4716 44.3352C14.6873 43.3825 15.6596 42.7762 16.6319 42.9861L50.2888 50.2943C51.2612 50.5056 51.8799 51.4583 51.6656 52.411C51.45 53.3637 50.4777 53.97 49.5053 53.76Z" fill="#D6D7D9"/>
<path d="M47.9853 60.483L14.3284 53.1748C13.3561 52.9635 12.7373 52.0108 12.9516 51.0581C13.1672 50.1054 14.1396 49.4991 15.1119 49.709L48.7688 57.0172C49.7411 57.2285 50.3599 58.1812 50.1456 59.1339C49.93 60.0866 48.9577 60.6929 47.9853 60.483Z" fill="#D6D7D9"/>
<path d="M46.4638 67.2044L12.8069 59.8962C11.8346 59.685 11.2158 58.7322 11.4301 57.7795C11.6457 56.8268 12.6181 56.2205 13.5904 56.4305L47.2473 63.7386C48.2197 63.9499 48.8384 64.9026 48.6241 65.8554C48.4085 66.8081 47.4362 67.4143 46.4638 67.2044Z" fill="#D6D7D9"/>
<path d="M36.1952 72.0284L11.2867 66.6191C10.3143 66.4079 9.69557 65.4551 9.90986 64.5024C10.1255 63.5497 11.0978 62.9434 12.0702 63.1534L36.9787 68.5626C37.951 68.7739 38.5698 69.7266 38.3555 70.6794C38.1399 71.6321 37.1675 72.2384 36.1952 72.0284Z" fill="#D6D7D9"/>
<path d="M43.4235 80.6502L9.76665 73.342C8.79431 73.1308 8.17555 72.178 8.38984 71.2253C8.60546 70.2726 9.5778 69.6663 10.5501 69.8763L44.207 77.1844C45.1794 77.3957 45.7981 78.3484 45.5839 79.3012C45.3682 80.2539 44.3959 80.8602 43.4235 80.6502Z" fill="#D6D7D9"/>
<path d="M41.9021 87.3731L8.24516 80.0649C7.27282 79.8537 6.65406 78.9009 6.86835 77.9482C7.08398 76.9955 8.05632 76.3892 9.02866 76.5992L42.6856 83.9073C43.6579 84.1186 44.2767 85.0713 44.0624 86.0241C43.8467 86.9768 42.8744 87.583 41.9021 87.3731Z" fill="#D6D7D9"/>
<path d="M36.7914 97.6563L8.44489 91.5003C7.95872 91.394 7.648 90.9177 7.75648 90.4413C7.86496 89.9649 8.35113 89.6605 8.8373 89.7668L37.1838 95.9227C37.67 96.029 37.9807 96.5054 37.8722 96.9818C37.7638 97.4581 37.2776 97.7626 36.7914 97.6563Z" fill="#00B08C"/>
<path opacity="0.2" d="M223.89 94.1481C233.01 85.2119 233.01 70.7236 223.89 61.7875C214.77 52.8513 199.983 52.8513 190.863 61.7875C181.743 70.7236 181.743 85.2119 190.863 94.1481C199.983 103.084 214.77 103.084 223.89 94.1481Z" fill="#00464C"/>
<path opacity="0.6" d="M224.716 80.3445C224.667 80.3471 224.619 80.3471 224.571 80.3432C223.996 80.2999 223.566 79.8065 223.612 79.2435C223.645 78.8301 223.663 78.4128 223.664 77.9903C223.678 69.1914 216.382 62.0236 207.401 62.0105C205.93 62.0066 204.468 62.1982 203.062 62.5774C202.506 62.7231 201.931 62.4055 201.779 61.8609C201.626 61.3163 201.953 60.7533 202.508 60.6037C204.096 60.1786 205.742 59.9607 207.405 59.9647C217.537 59.9791 225.767 68.068 225.752 77.9942C225.752 78.4693 225.732 78.9377 225.695 79.4036C225.653 79.9193 225.229 80.3156 224.717 80.3445H224.716Z" fill="white"/>
<path d="M226.523 93.2718L221.093 98.1062L227.685 105.215L233.115 100.38L226.523 93.2718Z" fill="white"/>
<path d="M189.555 58.7522C178.729 68.3949 177.927 84.8182 187.768 95.4241C197.609 106.038 214.363 106.825 225.195 97.1813C236.027 87.5386 236.831 71.1153 226.988 60.5094C217.147 49.8956 200.386 49.1082 189.553 58.7522H189.555ZM223.442 63.6693C231.505 72.3554 230.844 85.8064 221.971 93.705C213.098 101.605 199.379 100.958 191.316 92.2707C183.253 83.5768 183.907 70.1271 192.78 62.2271C201.653 54.3272 215.379 54.9741 223.442 63.668V63.6693Z" fill="white"/>
<path d="M257.505 128.027L253.446 131.639C252.162 132.782 250.175 132.689 249.008 131.431L225.088 105.638L233.797 97.8833L257.718 123.676C258.884 124.935 258.789 126.882 257.505 128.025V128.027Z" fill="white"/>
<g style="mix-blend-mode:multiply" opacity="0.2">
<path d="M172.63 152.112C163.123 152.9 155.87 158.768 156.427 165.22C156.569 166.859 157.202 168.377 158.223 169.718L142.746 182.092C140.388 181.516 137.773 181.296 135.045 181.524C125.538 182.311 118.284 188.179 118.842 194.631C119.399 201.082 127.556 205.672 137.062 204.885C146.568 204.098 153.822 198.229 153.265 191.778C152.973 188.401 150.597 185.537 147.038 183.684L161.133 172.414C164.509 174.689 169.368 175.911 174.645 175.474C184.152 174.686 191.405 168.818 190.848 162.367C190.291 155.916 182.133 151.325 172.628 152.114L172.63 152.112Z" fill="#0D1C22"/>
</g>
<path d="M178.587 160.291C177.766 160.961 176.544 160.851 175.86 160.047C174.088 157.961 170.456 160.545 170.42 160.573L123.284 199.033C122.462 199.704 121.242 199.594 120.557 198.789C119.873 197.985 119.984 196.788 120.806 196.118L168.033 157.589C170.401 155.875 175.571 153.779 178.836 157.62C179.52 158.425 179.408 159.621 178.587 160.292V160.291Z" fill="white"/>
<path d="M131.728 198.519C132.549 197.848 132.661 196.653 131.977 195.847C130.206 193.762 133.457 190.731 133.491 190.7L180.632 152.246C181.454 151.576 181.564 150.38 180.881 149.574C180.197 148.77 178.977 148.66 178.154 149.33L130.927 187.859C128.778 189.83 125.738 194.432 129.002 198.274C129.686 199.078 130.906 199.187 131.728 198.518V198.519Z" fill="white"/>
<path opacity="0.28" d="M143.35 198.526C148.988 193.002 148.988 184.045 143.35 178.52C137.711 172.996 128.57 172.996 122.932 178.52C117.293 184.045 117.293 193.002 122.932 198.526C128.57 204.051 137.712 204.051 143.35 198.526Z" fill="white"/>
<path opacity="0.28" d="M178.714 169.675C184.352 164.15 184.352 155.193 178.714 149.669C173.076 144.144 163.934 144.144 158.296 149.669C152.657 155.193 152.657 164.15 158.296 169.675C163.934 175.199 173.076 175.199 178.714 169.675Z" fill="white"/>
<path d="M157.77 147.039C151.959 151.78 150.258 159.602 153.062 166.083C148.021 166.692 143.896 170.057 142.372 174.805C136.375 170.928 128.226 171.142 122.405 175.891C115.295 181.693 114.335 192.084 120.248 199.041C126.169 206.008 136.764 206.957 143.875 201.155C146.235 199.23 147.918 196.804 148.898 194.144C149.144 193.484 149.354 192.803 149.509 192.115C149.683 191.332 149.802 190.543 149.859 189.74C150.168 185.638 148.931 181.415 146.032 178.004C145.917 177.868 145.793 177.722 145.667 177.595C145.73 177.214 145.801 176.844 145.89 176.474C146.389 174.57 147.402 172.937 148.839 171.764C150.278 170.591 152.101 169.91 154.102 169.775C154.489 169.755 154.884 169.746 155.275 169.772C155.381 169.916 155.496 170.051 155.611 170.188C158.501 173.589 162.515 175.546 166.688 175.992C167.504 176.083 168.317 176.11 169.135 176.085C169.852 176.059 170.583 175.99 171.29 175.874C174.138 175.411 176.878 174.229 179.238 172.302C186.348 166.5 187.317 156.119 181.395 149.152C175.482 142.194 164.879 141.236 157.769 147.038L157.77 147.039ZM145.814 190.87C145.289 193.65 143.797 196.283 141.398 198.241C135.924 202.707 127.781 201.978 123.224 196.615C118.674 191.261 119.409 183.273 124.883 178.807C129.832 174.769 136.987 174.988 141.675 179.043L141.684 179.052C142.167 179.465 142.628 179.926 143.058 180.433C143.305 180.724 143.544 181.025 143.753 181.331C145.138 183.277 145.876 185.489 146.006 187.736C146.072 188.783 146.011 189.838 145.814 190.87ZM176.763 169.389C174.363 171.347 171.451 172.307 168.565 172.309C167.492 172.311 166.423 172.18 165.384 171.925C163.153 171.394 161.066 170.282 159.362 168.595C159.093 168.338 158.835 168.054 158.588 167.763C158.158 167.258 157.778 166.73 157.453 166.188L157.445 166.179C154.224 160.926 155.3 153.992 160.249 149.955C165.723 145.489 173.874 146.227 178.424 151.581C182.981 156.944 182.238 164.923 176.764 169.389H176.763Z" fill="white"/>
</svg>
