<svg width="210" height="172" viewBox="0 0 210 172" fill="none" xmlns="http://www.w3.org/2000/svg">
<g id="Layer_1" clip-path="url(#clip0_2407_558)">
<g id="Group">
<g id="Group_2">
<path id="Vector" d="M6.30781 0H203.63C207.042 0 209.818 2.76299 209.818 6.17568V132.726C209.818 136.132 207.049 138.902 203.63 138.902H6.30781C2.8952 138.902 0.119873 136.139 0.119873 132.726V6.17568C0.119873 2.76299 2.88834 0 6.30781 0Z" fill="url(#paint0_linear_2407_558)"/>
<path id="Vector_2" d="M201.122 9.51316V129.382C201.122 130.236 200.43 130.927 199.573 130.927H10.3578C9.50804 130.927 8.81592 130.236 8.81592 129.382V9.51316C8.81592 8.66511 9.50804 7.97437 10.3578 7.97437H199.573C200.43 7.97437 201.122 8.66511 201.122 9.51316Z" fill="#D6D7D9"/>
</g>
<g id="Group_3">
<path id="Vector_3" d="M121.645 138.902H88.2998V166.511H121.645V138.902Z" fill="#555555"/>
<path id="Vector_4" d="M142.024 166.504H67.9062V171.722H142.024V166.504Z" fill="#555555"/>
<path id="Vector_5" d="M121.645 138.902H88.2998V150.248H121.645V138.902Z" fill="#555555"/>
</g>
</g>
<g id="Group_4">
<path id="Vector_6" d="M201.122 9.51316V22.0834H8.81592V9.51316C8.81592 8.66511 9.50804 7.97437 10.3578 7.97437H199.573C200.43 7.97437 201.122 8.66511 201.122 9.51316Z" fill="#1C1D22"/>
<path id="Vector_7" d="M121.569 12.1189H13.3113V17.9389H121.569V12.1189Z" fill="#0D1C22"/>
<g id="Group_5">
<path id="Vector_8" d="M170.703 15.0323C170.703 16.5916 169.435 17.8637 167.866 17.8637C166.297 17.8637 165.029 16.5985 165.029 15.0323C165.029 13.4662 166.297 12.2009 167.866 12.2009C169.435 12.2009 170.703 13.4662 170.703 15.0323Z" fill="#1C1D22"/>
<path id="Vector_9" d="M182.119 15.0323C182.119 16.5916 180.852 17.8637 179.282 17.8637C177.713 17.8637 176.445 16.5985 176.445 15.0323C176.445 13.4662 177.713 12.2009 179.282 12.2009C180.852 12.2009 182.119 13.4662 182.119 15.0323Z" fill="#0D1C22"/>
<path id="Vector_10" d="M193.536 15.0323C193.536 16.5916 192.268 17.8637 190.699 17.8637C189.13 17.8637 187.862 16.5985 187.862 15.0323C187.862 13.4662 189.13 12.2009 190.699 12.2009C192.268 12.2009 193.536 13.4662 193.536 15.0323Z" fill="white"/>
</g>
</g>
<path id="Vector_11" d="M201.122 22.0833V129.381C201.122 130.236 200.43 130.927 199.573 130.927H69.4482V22.0833H201.122Z" fill="white"/>
<path id="Vector_12" d="M120.966 70.9827L98.1196 110.471H143.806L120.966 70.9827Z" fill="white"/>
<path id="Vector_13" d="M173.213 80.0253C175.858 68.6913 168.796 57.3635 157.439 54.7239C146.083 52.0843 134.733 59.1325 132.088 70.4665C129.443 81.8005 136.505 93.1283 147.862 95.7679C159.218 98.4075 170.568 91.3593 173.213 80.0253Z" fill="#1C1D22"/>
<path id="Vector_14" d="M142.867 40.3779H120.185V63.0153H142.867V40.3779Z" fill="#0D1C22"/>
<g id="Group_6">
<path id="Vector_15" d="M56.1951 31.0425H21.644V109.446H56.1951V31.0425Z" fill="white"/>
<g id="Group_7">
<g id="Group_8">
<path id="Vector_16" d="M51.0831 44.9326L34.3284 61.6542" stroke="white" stroke-miterlimit="10"/>
<path id="Vector_17" d="M51.0831 44.9326H34.3284V61.6542H51.0831V44.9326Z" stroke="#555555" stroke-miterlimit="10"/>
</g>
<path id="Vector_18" d="M43.5108 36.5752H26.7561V53.2967H43.5108V36.5752Z" fill="#1C1D22"/>
</g>
<g id="Group_9">
<path id="Vector_19" d="M36.6719 66.9338H26.7561V76.83H36.6719V66.9338Z" fill="#1C1D22"/>
<path id="Vector_20" d="M51.083 66.9338H41.1672V76.83H51.083V66.9338Z" fill="#0D1C22"/>
<path id="Vector_21" d="M36.6719 80.8308H26.7561V90.727H36.6719V80.8308Z" fill="#555555"/>
<path id="Vector_22" d="M51.083 80.8308H41.1672V90.727H51.083V80.8308Z" fill="#1C1D22"/>
<path id="Vector_23" d="M36.6719 94.7209H26.7561V104.617H36.6719V94.7209Z" fill="#D6D7D9"/>
<path id="Vector_24" d="M51.083 94.7209H41.1672V104.617H51.083V94.7209Z" stroke="#555555" stroke-width="0.5" stroke-miterlimit="10"/>
</g>
</g>
<path id="Vector_25" d="M46.8482 96.9027L32.019 85.4473L32.3274 104.159L37.0352 101.806L40.7425 109.206L45.8477 106.655L42.1404 99.2554L46.8482 96.9027Z" fill="#0D1C22"/>
<path id="Vector_26" d="M179.303 32.5745H91.2668V120.436H179.303V32.5745Z" stroke="#D6D7D9" stroke-width="2" stroke-miterlimit="10"/>
<g id="Group_10">
<path id="Vector_27" d="M102.142 59.1511L166.29 43.2571" stroke="#555555" stroke-miterlimit="10"/>
<path id="Vector_28" d="M104.376 59.1512C104.376 60.3822 103.376 61.3807 102.142 61.3807C100.909 61.3807 99.9082 60.3822 99.9082 59.1512C99.9082 57.9201 100.909 56.9216 102.142 56.9216C103.376 56.9216 104.376 57.9201 104.376 59.1512Z" fill="#555555"/>
<path id="Vector_29" d="M102.142 59.1511L142.696 76.837" stroke="#555555" stroke-miterlimit="10"/>
<path id="Vector_30" d="M144.93 76.837C144.93 78.068 143.93 79.0665 142.696 79.0665C141.463 79.0665 140.462 78.068 140.462 76.837C140.462 75.6059 141.463 74.6074 142.696 74.6074C143.93 74.6074 144.93 75.6059 144.93 76.837Z" fill="#555555"/>
<path id="Vector_31" d="M168.531 43.2571C168.531 44.4882 167.53 45.4867 166.297 45.4867C165.063 45.4867 164.063 44.4882 164.063 43.2571C164.063 42.0261 165.063 41.0276 166.297 41.0276C167.53 41.0276 168.531 42.0261 168.531 43.2571Z" fill="#555555"/>
</g>
</g>
<defs>
<linearGradient id="paint0_linear_2407_558" x1="104.969" y1="0" x2="104.969" y2="138.902" gradientUnits="userSpaceOnUse">
<stop stop-color="white"/>
<stop offset="1" stop-color="#D6D7D9"/>
</linearGradient>
<clipPath id="clip0_2407_558">
<rect width="209.691" height="171.722" fill="white" transform="translate(0.119873)"/>
</clipPath>
</defs>
</svg>
