<svg width="198" height="185" viewBox="0 0 198 185" fill="none" xmlns="http://www.w3.org/2000/svg">
<g id="Layer_1" clip-path="url(#clip0_2407_638)">
<g id="Group">
<g id="Group_2">
<path id="Vector" d="M197.887 41.8123H0.112793V124.99H197.887V41.8123Z" fill="#555555" stroke="#0D1C22" stroke-linecap="round" stroke-linejoin="round"/>
<g id="Group_3">
<path id="Vector_2" d="M22.853 46.8452H4.24561V57.132H22.853V46.8452Z" fill="white" stroke="#0D1C22" stroke-miterlimit="10"/>
<path id="Vector_3" d="M193.314 96.9878H164.004V107.275H193.314V96.9878Z" fill="white" stroke="#0D1C22" stroke-miterlimit="10"/>
<path id="Vector_4" d="M193.312 59.6902H175.222V69.977H193.312V59.6902Z" fill="white" stroke="#0D1C22" stroke-miterlimit="10"/>
<path id="Vector_5" d="M22.853 84.3027H4.24561V94.5895H22.853V84.3027Z" fill="white" stroke="#0D1C22" stroke-miterlimit="10"/>
<path id="Vector_6" d="M19.3094 71.9153H4.24561V82.2021H19.3094V71.9153Z" fill="white" stroke="#0D1C22" stroke-miterlimit="10"/>
<g id="Group_4">
<path id="Vector_7" d="M14.5469 59.3792H4.24561V69.6659H14.5469V59.3792Z" fill="white" stroke="#0D1C22" stroke-miterlimit="10"/>
<path id="Vector_8" d="M27.6944 59.3792H17.3931V69.6659H27.6944V59.3792Z" fill="white" stroke="#0D1C22" stroke-miterlimit="10"/>
<path id="Vector_9" d="M40.8396 59.3792H30.5383V69.6659H40.8396V59.3792Z" fill="white" stroke="#0D1C22" stroke-miterlimit="10"/>
<path id="Vector_10" d="M53.9871 59.3792H43.6858V69.6659H53.9871V59.3792Z" fill="white" stroke="#0D1C22" stroke-miterlimit="10"/>
<path id="Vector_11" d="M67.1346 59.3792H56.8333V69.6659H67.1346V59.3792Z" fill="white" stroke="#0D1C22" stroke-miterlimit="10"/>
<path id="Vector_12" d="M80.282 59.3792H69.9807V69.6659H80.282V59.3792Z" fill="white" stroke="#0D1C22" stroke-miterlimit="10"/>
<path id="Vector_13" d="M93.4295 59.3792H83.1282V69.6659H93.4295V59.3792Z" fill="white" stroke="#0D1C22" stroke-miterlimit="10"/>
<path id="Vector_14" d="M106.577 59.3792H96.2756V69.6659H106.577V59.3792Z" fill="white" stroke="#0D1C22" stroke-miterlimit="10"/>
<path id="Vector_15" d="M119.722 59.3792H109.421V69.6659H119.722V59.3792Z" fill="white" stroke="#0D1C22" stroke-miterlimit="10"/>
<path id="Vector_16" d="M132.87 59.3792H122.568V69.6659H132.87V59.3792Z" fill="white" stroke="#0D1C22" stroke-miterlimit="10"/>
<path id="Vector_17" d="M146.017 59.3792H135.716V69.6659H146.017V59.3792Z" fill="white" stroke="#0D1C22" stroke-miterlimit="10"/>
<path id="Vector_18" d="M159.165 59.3792H148.864V69.6659H159.165V59.3792Z" fill="white" stroke="#0D1C22" stroke-miterlimit="10"/>
<path id="Vector_19" d="M172.312 59.3792H162.011V69.6659H172.312V59.3792Z" fill="white" stroke="#0D1C22" stroke-miterlimit="10"/>
</g>
<g id="Group_5">
<path id="Vector_20" d="M14.5469 109.67H4.24561V119.957H14.5469V109.67Z" fill="white" stroke="#0D1C22" stroke-miterlimit="10"/>
<path id="Vector_21" d="M27.6944 109.67H17.3931V119.957H27.6944V109.67Z" fill="white" stroke="#0D1C22" stroke-miterlimit="10"/>
<path id="Vector_22" d="M40.8396 109.67H30.5383V119.957H40.8396V109.67Z" fill="white" stroke="#0D1C22" stroke-miterlimit="10"/>
<path id="Vector_23" d="M56.2532 109.67H43.6858V119.957H56.2532V109.67Z" fill="white" stroke="#0D1C22" stroke-miterlimit="10"/>
<path id="Vector_24" d="M121.991 109.67H59.1016V119.957H121.991V109.67Z" fill="white" stroke="#0D1C22" stroke-miterlimit="10"/>
<path id="Vector_25" d="M153.434 109.67H143.133V119.957H153.434V109.67Z" fill="white" stroke="#0D1C22" stroke-miterlimit="10"/>
<path id="Vector_26" d="M166.582 109.67H156.28V119.957H166.582V109.67Z" fill="white" stroke="#0D1C22" stroke-miterlimit="10"/>
<path id="Vector_27" d="M179.752 109.67H169.45V119.957H179.752V109.67Z" fill="white" stroke="#0D1C22" stroke-miterlimit="10"/>
<path id="Vector_28" d="M140.555 109.67H124.562V119.957H140.555V109.67Z" fill="white" stroke="#0D1C22" stroke-miterlimit="10"/>
<path id="Vector_29" d="M193.314 109.67H183.013V119.957H193.314V109.67Z" fill="white" stroke="#0D1C22" stroke-miterlimit="10"/>
</g>
<g id="Group_6">
<path id="Vector_30" d="M32.5335 71.9153H22.2322V82.2021H32.5335V71.9153Z" fill="white" stroke="#0D1C22" stroke-miterlimit="10"/>
<path id="Vector_31" d="M45.6809 71.9153H35.3796V82.2021H45.6809V71.9153Z" fill="white" stroke="#0D1C22" stroke-miterlimit="10"/>
<path id="Vector_32" d="M58.8262 71.9153H48.5249V82.2021H58.8262V71.9153Z" fill="white" stroke="#0D1C22" stroke-miterlimit="10"/>
<path id="Vector_33" d="M71.9737 71.9153H61.6724V82.2021H71.9737V71.9153Z" fill="white" stroke="#0D1C22" stroke-miterlimit="10"/>
<path id="Vector_34" d="M85.1211 71.9153H74.8198V82.2021H85.1211V71.9153Z" fill="white" stroke="#0D1C22" stroke-miterlimit="10"/>
<path id="Vector_35" d="M98.2686 71.9153H87.9673V82.2021H98.2686V71.9153Z" fill="white" stroke="#0D1C22" stroke-miterlimit="10"/>
<path id="Vector_36" d="M111.416 71.9153H101.115V82.2021H111.416V71.9153Z" fill="white" stroke="#0D1C22" stroke-miterlimit="10"/>
<path id="Vector_37" d="M124.564 71.9153H114.262V82.2021H124.564V71.9153Z" fill="white" stroke="#0D1C22" stroke-miterlimit="10"/>
<path id="Vector_38" d="M137.709 71.9153H127.407V82.2021H137.709V71.9153Z" fill="white" stroke="#0D1C22" stroke-miterlimit="10"/>
<path id="Vector_39" d="M150.856 71.9153H140.555V82.2021H150.856V71.9153Z" fill="white" stroke="#0D1C22" stroke-miterlimit="10"/>
<path id="Vector_40" d="M164.004 71.9153H153.703V82.2021H164.004V71.9153Z" fill="white" stroke="#0D1C22" stroke-miterlimit="10"/>
<path id="Vector_41" d="M177.151 71.9153H166.85V82.2021H177.151V71.9153Z" fill="white" stroke="#0D1C22" stroke-miterlimit="10"/>
<path id="Vector_42" d="M193.312 71.9175V94.7382H183.015V82.202H179.995V71.9175H193.312Z" fill="white" stroke="#0D1C22" stroke-miterlimit="10"/>
</g>
<g id="Group_7">
<path id="Vector_43" d="M35.5491 84.4514H25.2478V94.7382H35.5491V84.4514Z" fill="white" stroke="#0D1C22" stroke-miterlimit="10"/>
<path id="Vector_44" d="M48.6966 84.4514H38.3953V94.7382H48.6966V84.4514Z" fill="white" stroke="#0D1C22" stroke-miterlimit="10"/>
<path id="Vector_45" d="M61.8418 84.4514H51.5405V94.7382H61.8418V84.4514Z" fill="white" stroke="#0D1C22" stroke-miterlimit="10"/>
<path id="Vector_46" d="M74.9893 84.4514H64.688V94.7382H74.9893V84.4514Z" fill="white" stroke="#0D1C22" stroke-miterlimit="10"/>
<path id="Vector_47" d="M88.1368 84.4514H77.8354V94.7382H88.1368V84.4514Z" fill="white" stroke="#0D1C22" stroke-miterlimit="10"/>
<path id="Vector_48" d="M101.284 84.4514H90.9829V94.7382H101.284V84.4514Z" fill="white" stroke="#0D1C22" stroke-miterlimit="10"/>
<path id="Vector_49" d="M114.432 84.4514H104.13V94.7382H114.432V84.4514Z" fill="white" stroke="#0D1C22" stroke-miterlimit="10"/>
<path id="Vector_50" d="M127.577 84.4514H117.276V94.7382H127.577V84.4514Z" fill="white" stroke="#0D1C22" stroke-miterlimit="10"/>
<path id="Vector_51" d="M140.724 84.4514H130.423V94.7382H140.724V84.4514Z" fill="white" stroke="#0D1C22" stroke-miterlimit="10"/>
<path id="Vector_52" d="M153.872 84.4514H143.571V94.7382H153.872V84.4514Z" fill="white" stroke="#0D1C22" stroke-miterlimit="10"/>
<path id="Vector_53" d="M167.02 84.4514H156.718V94.7382H167.02V84.4514Z" fill="white" stroke="#0D1C22" stroke-miterlimit="10"/>
<path id="Vector_54" d="M180.167 84.4514H169.866V94.7382H180.167V84.4514Z" fill="white" stroke="#0D1C22" stroke-miterlimit="10"/>
</g>
<g id="Group_8">
<path id="Vector_55" d="M29.9605 96.9878H19.6592V107.275H29.9605V96.9878Z" fill="white" stroke="#0D1C22" stroke-miterlimit="10"/>
<path id="Vector_56" d="M43.1079 96.9878H32.8066V107.275H43.1079V96.9878Z" fill="white" stroke="#0D1C22" stroke-miterlimit="10"/>
<path id="Vector_57" d="M56.2554 96.9878H45.9541V107.275H56.2554V96.9878Z" fill="white" stroke="#0D1C22" stroke-miterlimit="10"/>
<path id="Vector_58" d="M69.4029 96.9878H59.1016V107.275H69.4029V96.9878Z" fill="white" stroke="#0D1C22" stroke-miterlimit="10"/>
<path id="Vector_59" d="M82.5481 96.9878H72.2468V107.275H82.5481V96.9878Z" fill="white" stroke="#0D1C22" stroke-miterlimit="10"/>
<path id="Vector_60" d="M95.6956 96.9878H85.3943V107.275H95.6956V96.9878Z" fill="white" stroke="#0D1C22" stroke-miterlimit="10"/>
<path id="Vector_61" d="M108.843 96.9878H98.5417V107.275H108.843V96.9878Z" fill="white" stroke="#0D1C22" stroke-miterlimit="10"/>
<path id="Vector_62" d="M121.991 96.9878H111.689V107.275H121.991V96.9878Z" fill="white" stroke="#0D1C22" stroke-miterlimit="10"/>
<path id="Vector_63" d="M135.138 96.9878H124.837V107.275H135.138V96.9878Z" fill="white" stroke="#0D1C22" stroke-miterlimit="10"/>
<path id="Vector_64" d="M148.286 96.9878H137.984V107.275H148.286V96.9878Z" fill="white" stroke="#0D1C22" stroke-miterlimit="10"/>
<path id="Vector_65" d="M161.431 96.9878H151.13V107.275H161.431V96.9878Z" fill="white" stroke="#0D1C22" stroke-miterlimit="10"/>
</g>
<g id="Group_9">
<path id="Vector_66" d="M35.5491 47.4651H25.2478V57.7519H35.5491V47.4651Z" fill="white" stroke="#0D1C22" stroke-miterlimit="10"/>
<path id="Vector_67" d="M48.6966 47.4651H38.3953V57.7519H48.6966V47.4651Z" fill="white" stroke="#0D1C22" stroke-miterlimit="10"/>
<path id="Vector_68" d="M61.8418 47.4651H51.5405V57.7519H61.8418V47.4651Z" fill="white" stroke="#0D1C22" stroke-miterlimit="10"/>
<path id="Vector_69" d="M74.9893 47.4651H64.688V57.7519H74.9893V47.4651Z" fill="white" stroke="#0D1C22" stroke-miterlimit="10"/>
<path id="Vector_70" d="M88.1368 47.4651H77.8354V57.7519H88.1368V47.4651Z" fill="white" stroke="#0D1C22" stroke-miterlimit="10"/>
<path id="Vector_71" d="M101.284 47.4651H90.9829V57.7519H101.284V47.4651Z" fill="white" stroke="#0D1C22" stroke-miterlimit="10"/>
<path id="Vector_72" d="M114.432 47.4651H104.13V57.7519H114.432V47.4651Z" fill="white" stroke="#0D1C22" stroke-miterlimit="10"/>
<path id="Vector_73" d="M127.577 47.4651H117.276V57.7519H127.577V47.4651Z" fill="white" stroke="#0D1C22" stroke-miterlimit="10"/>
<path id="Vector_74" d="M140.724 47.4651H130.423V57.7519H140.724V47.4651Z" fill="white" stroke="#0D1C22" stroke-miterlimit="10"/>
<path id="Vector_75" d="M153.872 47.4651H143.571V57.7519H153.872V47.4651Z" fill="white" stroke="#0D1C22" stroke-miterlimit="10"/>
<path id="Vector_76" d="M167.02 47.4651H156.718V57.7519H167.02V47.4651Z" fill="white" stroke="#0D1C22" stroke-miterlimit="10"/>
<path id="Vector_77" d="M180.167 47.4651H169.866V57.7519H180.167V47.4651Z" fill="white" stroke="#0D1C22" stroke-miterlimit="10"/>
<path id="Vector_78" d="M193.314 47.4651H183.013V57.7519H193.314V47.4651Z" fill="white" stroke="#0D1C22" stroke-miterlimit="10"/>
</g>
<path id="Vector_79" d="M16.725 96.9878H4.24561V107.275H16.725V96.9878Z" fill="white" stroke="#0D1C22" stroke-miterlimit="10"/>
</g>
</g>
<path id="Vector_80" d="M0.112793 42.3441L4.2455 40.9692H195.201L197.923 42.3261L0.112793 42.3441Z" fill="#0D1C22"/>
</g>
<g id="Group_10">
<path id="Vector_81" opacity="0.2" d="M141.282 185L137.26 160.813C136.377 157.209 134.481 153.93 131.816 151.345C123.817 143.639 113.245 135.728 112.791 125.626C112.096 110.189 109.687 110.651 109.945 106.842C109.954 106.704 111.145 105 112.696 101.191C113.193 99.9582 113.527 98.1258 113.863 96.618C114.206 95.0335 115.716 93.9561 117.328 94.177C118.409 94.3235 119.472 94.8103 120.235 95.5383C121.702 96.9605 122.352 99.0567 122.413 101.103C122.474 103.141 122.018 105.162 121.555 107.148C122.995 110.367 123.672 114.28 124.135 117.773C125.051 114.947 125.747 112.095 126.665 109.28C126.855 109.177 126.785 108.956 126.965 108.852C125.67 106.078 126.769 106.233 124.205 100.127C119.892 89.854 115.082 79.9459 111.644 67.0355C111.369 66.0348 111.387 64.3894 111.721 63.4045C112.965 59.7149 116.77 60.5623 118.434 62.7103C118.88 63.276 119.205 63.9094 119.463 64.5765C121.221 69.1745 124.968 76.263 127.667 80.3741L137.005 94.5872C137.005 94.5872 140.255 91.9253 140.752 90.7353L140.761 90.7263C141.25 89.5272 141.49 79.8782 141.49 79.8782C141.49 79.8782 140.752 81.6859 139.115 81.5822C137.932 81.4965 135.531 82.1817 133.825 80.2637C132.427 78.6972 132.427 76.3419 133.671 74.665L137.899 68.9626C137.899 68.9626 140.736 66.4788 144.534 68.167C148.324 69.8619 152.003 73.3893 152.003 73.3893C152.003 73.3893 155.517 73.209 158.501 74.6402C161.494 76.0782 164.631 80.2051 164.631 80.2051C164.631 80.2051 168.121 80.4192 169.69 81.5574C170.085 81.8391 175.409 90.12 173.488 96.5661C172.348 100.411 171.644 105.992 171.13 107.491L168.514 145.241L173.786 170.088L162.512 176.365C158.366 178.673 154.025 180.612 149.538 182.158L141.282 185.005V185Z" fill="#1C1D22"/>
<g id="Group_11">
<g id="Group_12">
<g id="Group_13">
<path id="Vector_82" d="M173.299 140.889L173.4 103.041C173.813 101.511 174.143 95.8944 175.023 91.9839C176.51 85.425 170.646 77.5183 170.233 77.2614C168.59 76.2359 165.096 76.2539 165.096 76.2539C165.096 76.2539 161.693 72.3411 158.609 71.106C155.535 69.8776 152.041 70.2901 152.041 70.2901C152.041 70.2901 148.141 67.0107 144.243 65.5727C140.343 64.1437 137.675 66.8101 137.675 66.8101L133.84 72.7739C132.712 74.5319 132.867 76.8872 134.364 78.3523C136.199 80.1576 138.549 79.3147 139.731 79.3147C141.374 79.3147 141.988 77.4642 141.988 77.4642C141.988 77.4642 142.392 87.1019 141.988 88.3303L141.979 88.3393C141.557 89.5677 138.492 92.4346 138.492 92.4346L128.236 78.8752C125.263 74.9534 121.052 68.1286 118.998 63.6569C118.695 63.0055 118.327 62.3924 117.842 61.8605C116.043 59.8275 112.19 59.2302 111.19 62.9965C110.924 64.004 111.017 65.6448 111.355 66.6252C115.648 79.2764 121.108 88.8419 126.089 98.8109C129.053 104.73 127.952 104.655 129.43 107.331C129.256 107.45 129.337 107.669 129.155 107.779C128.43 110.655 127.924 113.542 127.2 116.418C126.502 112.965 125.566 109.107 123.916 105.992C124.245 103.977 124.568 101.933 124.365 99.8995C124.173 97.8665 123.383 95.8132 121.824 94.4947C121.016 93.8163 119.925 93.4038 118.833 93.3317C117.21 93.2122 115.777 94.3955 115.54 95.9981C115.31 97.5194 115.1 99.3699 114.678 100.634C113.384 104.538 112.31 106.314 112.31 106.452C112.31 110.272 114.678 109.65 116.402 125.012C117.743 136.978 133.174 144.885 141.578 153.524L150.531 181.651C160.925 177.492 170.872 172.169 180.413 165.984L173.303 140.889H173.299Z" fill="white"/>
<g id="Clip path group">
<mask id="mask0_2407_638" style="mask-type:luminance" maskUnits="userSpaceOnUse" x="111" y="60" width="70" height="122">
<g id="clippath">
<path id="Vector_83" d="M173.299 140.889L173.4 103.041C173.813 101.511 174.143 95.8944 175.023 91.9839C176.51 85.425 170.646 77.5183 170.233 77.2614C168.59 76.2359 165.096 76.2539 165.096 76.2539C165.096 76.2539 161.693 72.3411 158.609 71.106C155.535 69.8776 152.041 70.2901 152.041 70.2901C152.041 70.2901 148.141 67.0107 144.243 65.5727C140.343 64.1437 137.675 66.8101 137.675 66.8101L133.84 72.7739C132.712 74.5319 132.867 76.8872 134.364 78.3523C136.199 80.1576 138.549 79.3147 139.731 79.3147C141.374 79.3147 141.988 77.4642 141.988 77.4642C141.988 77.4642 142.392 87.1019 141.988 88.3303L141.979 88.3393C141.557 89.5677 138.492 92.4346 138.492 92.4346L128.236 78.8752C125.263 74.9534 121.052 68.1286 118.998 63.6569C118.695 63.0055 118.327 62.3924 117.842 61.8605C116.043 59.8275 112.19 59.2302 111.19 62.9965C110.924 64.004 111.017 65.6448 111.355 66.6252C115.648 79.2764 121.108 88.8419 126.089 98.8109C129.053 104.73 127.952 104.655 129.43 107.331C129.256 107.45 129.337 107.669 129.155 107.779C128.43 110.655 127.924 113.542 127.2 116.418C126.502 112.965 125.566 109.107 123.916 105.992C124.245 103.977 124.568 101.933 124.365 99.8995C124.173 97.8665 123.383 95.8132 121.824 94.4947C121.016 93.8163 119.925 93.4038 118.833 93.3317C117.21 93.2122 115.777 94.3955 115.54 95.9981C115.31 97.5194 115.1 99.3699 114.678 100.634C113.384 104.538 112.31 106.314 112.31 106.452C112.31 110.272 114.678 109.65 116.402 125.012C117.743 136.978 133.174 144.885 141.578 153.524L150.531 181.651C160.925 177.492 170.872 172.169 180.413 165.984L173.303 140.889H173.299Z" fill="white"/>
</g>
</mask>
<g mask="url(#mask0_2407_638)">
<g id="Group_14">
<g id="Group_15">
<g id="Group_16">
<path id="Vector_84" d="M168.904 89.4618C169.36 88.3484 169.899 87.2034 170.872 86.4957C171.845 85.7879 173.373 85.6978 174.154 86.6129C173.515 84.6497 172.834 82.6978 172.116 80.7618C171.57 79.2877 170.951 77.7528 169.732 76.7588C168.514 75.7649 166.505 75.553 165.46 76.7295C166.205 81.1967 166.286 85.7722 165.699 90.2619C165.381 92.6939 164.972 95.4887 166.613 97.3121C167.064 97.6795 167.848 97.0191 167.563 96.5142C167.428 96.2753 166.943 96.2573 166.733 96.2798C167.259 93.9561 168.001 91.6706 168.904 89.464V89.4618Z" fill="#555555"/>
<path id="Vector_85" d="M168.904 89.4618C169.36 88.3484 169.899 87.2034 170.872 86.4957C171.845 85.7879 173.373 85.6978 174.154 86.6129C173.515 84.6497 172.834 82.6978 172.116 80.7618C171.57 79.2877 170.951 77.7528 169.732 76.7588C168.514 75.7649 166.505 75.553 165.46 76.7295C166.205 81.1967 166.286 85.7722 165.699 90.2619C165.381 92.6939 164.972 95.4887 166.613 97.3121C167.064 97.6795 167.848 97.0191 167.563 96.5142C167.428 96.2753 166.943 96.2573 166.733 96.2798C167.259 93.9561 168.001 91.6706 168.904 89.464V89.4618Z" fill="#555555"/>
<path id="Vector_86" opacity="0.5" d="M168.904 89.4618C169.36 88.3484 169.899 87.2034 170.872 86.4957C171.845 85.7879 173.373 85.6978 174.154 86.6129C173.515 84.6497 172.834 82.6978 172.116 80.7618C171.57 79.2877 170.951 77.7528 169.732 76.7588C168.514 75.7649 166.505 75.553 165.46 76.7295C166.205 81.1967 166.286 85.7722 165.699 90.2619C165.381 92.6939 164.972 95.4887 166.613 97.3121C167.064 97.6795 167.848 97.0191 167.563 96.5142C167.428 96.2753 166.943 96.2573 166.733 96.2798C167.259 93.9561 168.001 91.6706 168.904 89.464V89.4618Z" fill="white"/>
</g>
<g id="Group_17">
<path id="Vector_87" d="M155.226 85.3979C155.291 87.0455 155.28 88.7134 155.686 90.3091C156.093 91.9072 156.982 93.4624 158.427 94.2625C157.576 91.071 158.036 87.6969 158.501 84.4287C158.783 82.443 159.065 80.4574 159.347 78.4717C159.444 77.782 159.555 77.063 159.952 76.4905C160.35 75.918 161.131 75.5439 161.765 75.8346C160.918 76.3372 159.817 75.6633 159.307 74.8226C158.797 73.9819 158.594 72.9677 157.989 72.1901C156.842 70.7183 154.391 70.3937 152.696 70.7859C153.21 75.6768 155.027 80.3447 155.226 85.4002V85.3979Z" fill="#555555"/>
<path id="Vector_88" d="M155.226 85.3979C155.291 87.0455 155.28 88.7134 155.686 90.3091C156.093 91.9072 156.982 93.4624 158.427 94.2625C157.576 91.071 158.036 87.6969 158.501 84.4287C158.783 82.443 159.065 80.4574 159.347 78.4717C159.444 77.782 159.555 77.063 159.952 76.4905C160.35 75.918 161.131 75.5439 161.765 75.8346C160.918 76.3372 159.817 75.6633 159.307 74.8226C158.797 73.9819 158.594 72.9677 157.989 72.1901C156.842 70.7183 154.391 70.3937 152.696 70.7859C153.21 75.6768 155.027 80.3447 155.226 85.4002V85.3979Z" fill="#555555"/>
<g id="Group_18" opacity="0.5">
<path id="Vector_89" d="M155.226 85.3979C155.291 87.0455 155.28 88.7134 155.686 90.3091C156.093 91.9072 156.982 93.4624 158.427 94.2625C157.576 91.071 158.036 87.6969 158.501 84.4287C158.783 82.443 159.065 80.4574 159.347 78.4717C159.444 77.782 159.555 77.063 159.952 76.4905C160.35 75.918 161.131 75.5439 161.765 75.8346C160.918 76.3372 159.817 75.6633 159.307 74.8226C158.797 73.9819 158.594 72.9677 157.989 72.1901C156.842 70.7183 154.391 70.3937 152.696 70.7859C153.21 75.6768 155.027 80.3447 155.226 85.4002V85.3979Z" fill="white"/>
</g>
</g>
<g id="Group_19">
<g id="Group_20">
<path id="Vector_90" d="M141.225 72.1993C140.672 71.7936 140.487 71.0656 140.32 70.3984C140.153 69.7335 139.916 69.0055 139.316 68.6697C136.682 70.3376 138.122 75.2263 135.461 76.8468C134.944 77.1601 134.287 77.3382 133.998 77.8701C133.739 78.3502 133.903 78.9813 134.28 79.3779C134.657 79.7746 135.199 79.973 135.736 80.0699C137.853 80.4508 140.086 79.3689 141.35 77.6312C142.392 76.1977 143.115 73.8807 142.598 72.179C142.194 72.4044 141.618 72.4878 141.223 72.1993H141.225Z" fill="#555555"/>
<path id="Vector_91" d="M113.854 104.207C113.806 104.389 113.773 104.619 113.919 104.739C114.145 104.924 114.445 104.637 114.614 104.398C115.718 102.83 117.905 102.12 119.722 102.742C120.415 102.728 120.652 101.674 120.196 101.151C119.743 100.628 118.971 100.535 118.275 100.533C117.582 100.531 116.84 100.567 116.251 100.199C115.529 99.7464 115.244 98.8291 115.427 98.0425C114.96 100.105 114.384 102.156 113.854 104.207Z" fill="#555555"/>
</g>
<g id="Group_21" opacity="0.5">
<path id="Vector_92" d="M141.225 72.1993C140.672 71.7936 140.487 71.0656 140.32 70.3984C140.153 69.7335 139.916 69.0055 139.316 68.6697C136.682 70.3376 138.122 75.2263 135.461 76.8468C134.944 77.1601 134.287 77.3382 133.998 77.8701C133.739 78.3502 133.903 78.9813 134.28 79.3779C134.657 79.7746 135.199 79.973 135.736 80.0699C137.853 80.4508 140.086 79.3689 141.35 77.6312C142.392 76.1977 143.115 73.8807 142.598 72.179C142.194 72.4044 141.618 72.4878 141.223 72.1993H141.225Z" fill="white"/>
<path id="Vector_93" d="M113.854 104.207C113.806 104.389 113.773 104.619 113.919 104.739C114.145 104.924 114.445 104.637 114.614 104.398C115.718 102.83 117.905 102.12 119.722 102.742C120.415 102.728 120.652 101.674 120.196 101.151C119.743 100.628 118.971 100.535 118.275 100.533C117.582 100.531 116.84 100.567 116.251 100.199C115.529 99.7464 115.244 98.8291 115.427 98.0425C114.96 100.105 114.384 102.156 113.854 104.207Z" fill="white"/>
</g>
</g>
<g id="Group_22">
<path id="Vector_94" d="M148.762 71.5478C147.263 71.3472 145.676 71.3111 144.37 70.5471C142.733 69.5892 141.614 67.5449 139.718 67.4637C138.034 67.3916 136.781 68.931 135.824 70.3172C135.714 68.2278 137.253 66.2737 139.199 65.4961C141.144 64.7185 143.383 64.9642 145.331 65.7395C147.279 66.5126 148.987 67.7725 150.651 69.046C151.319 69.5576 151.998 70.0895 152.45 70.7995C154.565 74.124 150.082 71.7281 148.76 71.5523L148.762 71.5478Z" fill="#555555"/>
<path id="Vector_95" opacity="0.5" d="M148.762 71.5478C147.263 71.3472 145.676 71.3111 144.37 70.5471C142.733 69.5892 141.614 67.5449 139.718 67.4637C138.034 67.3916 136.781 68.931 135.824 70.3172C135.714 68.2278 137.253 66.2737 139.199 65.4961C141.144 64.7185 143.383 64.9642 145.331 65.7395C147.279 66.5126 148.987 67.7725 150.651 69.046C151.319 69.5576 151.998 70.0895 152.45 70.7995C154.565 74.124 150.082 71.7281 148.76 71.5523L148.762 71.5478Z" fill="white"/>
</g>
</g>
<g id="Group_23">
<path id="Vector_96" d="M121.943 120.173C122.047 119.986 122.135 119.792 122.225 119.599C122.045 119.736 121.928 119.928 121.943 120.173Z" fill="#555555"/>
<path id="Vector_97" d="M124.491 106.911C124.322 104.802 124.625 102.679 124.537 100.564C124.449 98.4503 123.896 96.2212 122.352 94.7697C120.14 92.687 114.082 93.7531 116.113 97.7042C116.675 98.7996 118.129 99.3699 119.257 98.8763C120.386 98.3827 120.943 96.8477 120.325 95.7816C122.774 99.4916 122.555 104.759 119.806 108.252C122.948 110.971 123.945 115.837 122.225 119.599C122.593 119.319 123.232 119.281 123.636 119.585C124.236 120.038 124.437 120.829 124.731 121.521C125.022 122.213 125.591 122.934 126.34 122.883C127.371 120.36 127.028 117.493 126.36 114.852C125.692 112.213 124.708 109.625 124.494 106.911H124.491Z" fill="#555555"/>
<path id="Vector_98" d="M146.674 67.2067C145.494 66.3029 144.094 65.6899 142.62 65.4983L146.674 67.2067Z" fill="#555555"/>
<path id="Vector_99" d="M156.754 93.9967C156.429 92.5407 155.757 91.1861 155.355 89.7481C154.42 86.3988 155.007 82.8241 154.578 79.3734C154.025 74.9129 151.694 70.6959 148.209 67.8515L146.674 67.2046C148.143 68.3293 149.27 69.907 149.764 71.6898C150.951 75.7784 151.324 80.0496 151.85 84.2734C152.662 90.7871 153.852 97.2558 155.413 103.632C156.436 100.508 157.47 97.1995 156.754 93.9922V93.9967Z" fill="#555555"/>
<path id="Vector_100" d="M140.431 78.7693C141.492 77.9308 142.061 76.592 142.241 75.2509C142.404 74.0541 142.289 72.8393 142.144 71.6379C142.042 72.1541 141.37 72.5846 140.797 72.4493C140.068 72.2758 139.587 71.6019 139.174 70.9775C139.07 71.3359 138.966 71.6965 138.86 72.0549C138.817 71.8611 138.776 71.665 138.734 71.4711L138.327 71.9895C138.934 73.7093 139.521 75.7017 138.582 77.2659C138.129 78.0232 137.379 78.5484 136.653 79.051C137.763 79.8241 139.37 79.61 140.431 78.7715V78.7693Z" fill="#555555"/>
<path id="Vector_101" d="M142.094 71.2119C142.113 71.3539 142.128 71.4959 142.144 71.6379C142.171 71.4982 142.167 71.3539 142.094 71.2119Z" fill="#555555"/>
<path id="Vector_102" d="M137.614 88.5399C134.608 82.6415 131.599 76.743 128.295 71.0069C126.363 67.6531 124.315 64.3376 121.738 61.4481C120.596 60.1679 117.314 57.204 115.506 59.1559C114.301 60.4586 115.885 62.8275 114.402 64.2361C114.743 64.2564 116.418 64.0739 116.596 64.2925C120.361 68.9378 122.435 74.9219 122.352 80.897C123.562 79.9481 125.218 81.2643 126.164 82.4769C131.974 89.9306 137.402 97.6795 142.429 105.681C141.456 102.144 141.431 98.3917 140.379 94.8779C139.718 92.6668 138.664 90.5977 137.616 88.5399H137.614Z" fill="#555555"/>
<path id="Vector_103" d="M172.54 102.915C173.978 99.0747 175.1 95.1417 175.226 91.0666C175.341 87.3635 174.492 83.5161 172.533 80.3426C172.037 79.5402 169.978 76.2585 168.85 76.5267C166.836 77.0023 169.48 80.4958 169.94 81.3704C171.678 84.6656 173.466 88.1501 173.353 91.8735C173.267 94.7427 172.059 97.4384 171.093 100.141C170.421 102.025 169.872 104.04 169.886 106.014C169.737 106.233 169.601 106.463 169.441 106.673C168.105 108.422 166.229 109.864 164.054 110.218C164.882 107.664 165.71 105.108 166.539 102.555C166.834 101.644 166.94 100.396 166.41 99.7622C166.581 99.4128 166.688 99.0432 166.672 98.6465C166.645 97.9433 166.241 97.3189 165.945 96.6811C164.798 94.2131 165.187 91.3461 165.464 88.6392C165.807 85.3012 165.938 81.8617 164.959 78.6522C163.979 75.4426 161.708 72.4652 158.521 71.4014C158.795 71.6944 159.068 71.9896 159.338 72.2826L158.257 71.4983C158.928 72.8889 159.598 74.2818 160.266 75.6725C160.02 76.0241 159.772 76.3757 159.526 76.7296C160.632 76.1503 162.049 76.991 162.557 78.1293C163.063 79.2697 162.925 80.5747 162.808 81.8166C162.155 88.7406 162.507 95.7547 163.819 102.584C163.692 104.178 163.417 105.794 162.584 107.153C161.686 108.62 160 109.722 158.296 109.474C158.673 107.829 158.038 105.884 156.644 104.91C154.915 107.306 155.933 111.032 156.197 113.761C156.596 117.897 157.26 122.008 158.187 126.058C158.454 122.547 159.192 119.069 160.374 115.751C161.307 119.132 162.239 122.513 163.173 125.894C163.203 124.947 163.243 123.96 163.701 123.131C164.162 122.301 165.18 121.702 166.067 122.035C166.794 122.308 167.186 123.079 167.484 123.795C169.908 129.608 170.518 136.16 169.209 142.318C170.36 142.956 171.883 142.185 172.522 141.036C173.161 139.886 173.154 138.502 173.131 137.186C172.931 125.763 172.732 114.34 172.531 102.918L172.54 102.915Z" fill="#555555"/>
<path id="Vector_104" d="M143.474 106.537C142.923 107.5 145.171 111.318 145.543 112.226C147.433 116.833 149.324 121.44 151.213 126.047C150.588 119.979 149.103 114.002 146.819 108.347C146.433 107.391 144.566 104.628 143.476 106.537H143.474Z" fill="#555555"/>
<path id="Vector_105" d="M146.408 82.1185C146.085 82.6054 145.625 83.2049 145.067 83.0336C144.546 82.8736 144.458 82.1862 144.467 81.643C144.519 78.4379 144.571 75.2329 144.622 72.0278C142.031 73.8828 142.363 76.3125 142.183 79.0803C142.077 80.6828 142.541 88.3235 141.447 89.2611C144.009 87.0794 146.18 84.4401 147.828 81.5077C147.378 81.1358 146.731 81.6317 146.41 82.1185H146.408Z" fill="#555555"/>
<g id="Group_24" opacity="0.5">
<path id="Vector_106" d="M121.943 120.173C122.047 119.986 122.135 119.792 122.225 119.599C122.045 119.736 121.928 119.928 121.943 120.173Z" fill="white"/>
<path id="Vector_107" d="M124.491 106.911C124.322 104.802 124.625 102.679 124.537 100.564C124.449 98.4503 123.896 96.2212 122.352 94.7697C120.14 92.687 114.082 93.7531 116.113 97.7042C116.675 98.7996 118.129 99.3699 119.257 98.8763C120.386 98.3827 120.943 96.8477 120.325 95.7816C122.774 99.4916 122.555 104.759 119.806 108.252C122.948 110.971 123.945 115.837 122.225 119.599C122.593 119.319 123.232 119.281 123.636 119.585C124.236 120.038 124.437 120.829 124.731 121.521C125.022 122.213 125.591 122.934 126.34 122.883C127.371 120.36 127.028 117.493 126.36 114.852C125.692 112.213 124.708 109.625 124.494 106.911H124.491Z" fill="white"/>
<path id="Vector_108" d="M146.674 67.2067C145.494 66.3029 144.094 65.6899 142.62 65.4983L146.674 67.2067Z" fill="white"/>
<path id="Vector_109" d="M156.754 93.9967C156.429 92.5407 155.757 91.1861 155.355 89.7481C154.42 86.3988 155.007 82.8241 154.578 79.3734C154.025 74.9129 151.694 70.6959 148.209 67.8515L146.674 67.2046C148.143 68.3293 149.27 69.907 149.764 71.6898C150.951 75.7784 151.324 80.0496 151.85 84.2734C152.662 90.7871 153.852 97.2558 155.413 103.632C156.436 100.508 157.47 97.1995 156.754 93.9922V93.9967Z" fill="white"/>
<path id="Vector_110" d="M140.431 78.7693C141.492 77.9308 142.061 76.592 142.241 75.2509C142.404 74.0541 142.289 72.8393 142.144 71.6379C142.042 72.1541 141.37 72.5846 140.797 72.4493C140.068 72.2758 139.587 71.6019 139.174 70.9775C139.07 71.3359 138.966 71.6965 138.86 72.0549C138.817 71.8611 138.776 71.665 138.734 71.4711L138.327 71.9895C138.934 73.7093 139.521 75.7017 138.582 77.2659C138.129 78.0232 137.379 78.5484 136.653 79.051C137.763 79.8241 139.37 79.61 140.431 78.7715V78.7693Z" fill="white"/>
<path id="Vector_111" d="M142.094 71.2119C142.113 71.3539 142.128 71.4959 142.144 71.6379C142.171 71.4982 142.167 71.3539 142.094 71.2119Z" fill="white"/>
<path id="Vector_112" d="M137.614 88.5399C134.608 82.6415 131.599 76.743 128.295 71.0069C126.363 67.6531 124.315 64.3376 121.738 61.4481C120.596 60.1679 117.314 57.204 115.506 59.1559C114.301 60.4586 115.885 62.8275 114.402 64.2361C114.743 64.2564 116.418 64.0739 116.596 64.2925C120.361 68.9378 122.435 74.9219 122.352 80.897C123.562 79.9481 125.218 81.2643 126.164 82.4769C131.974 89.9306 137.402 97.6795 142.429 105.681C141.456 102.144 141.431 98.3917 140.379 94.8779C139.718 92.6668 138.664 90.5977 137.616 88.5399H137.614Z" fill="white"/>
<path id="Vector_113" d="M172.54 102.915C173.978 99.0747 175.1 95.1417 175.226 91.0666C175.341 87.3635 174.492 83.5161 172.533 80.3426C172.037 79.5402 169.978 76.2585 168.85 76.5267C166.836 77.0023 169.48 80.4958 169.94 81.3704C171.678 84.6656 173.466 88.1501 173.353 91.8735C173.267 94.7427 172.059 97.4384 171.093 100.141C170.421 102.025 169.872 104.04 169.886 106.014C169.737 106.233 169.601 106.463 169.441 106.673C168.105 108.422 166.229 109.864 164.054 110.218C164.882 107.664 165.71 105.108 166.539 102.555C166.834 101.644 166.94 100.396 166.41 99.7622C166.581 99.4128 166.688 99.0432 166.672 98.6465C166.645 97.9433 166.241 97.3189 165.945 96.6811C164.798 94.2131 165.187 91.3461 165.464 88.6392C165.807 85.3012 165.938 81.8617 164.959 78.6522C163.979 75.4426 161.708 72.4652 158.521 71.4014C158.795 71.6944 159.068 71.9896 159.338 72.2826L158.257 71.4983C158.928 72.8889 159.598 74.2818 160.266 75.6725C160.02 76.0241 159.772 76.3757 159.526 76.7296C160.632 76.1503 162.049 76.991 162.557 78.1293C163.063 79.2697 162.925 80.5747 162.808 81.8166C162.155 88.7406 162.507 95.7547 163.819 102.584C163.692 104.178 163.417 105.794 162.584 107.153C161.686 108.62 160 109.722 158.296 109.474C158.673 107.829 158.038 105.884 156.644 104.91C154.915 107.306 155.933 111.032 156.197 113.761C156.596 117.897 157.26 122.008 158.187 126.058C158.454 122.547 159.192 119.069 160.374 115.751C161.307 119.132 162.239 122.513 163.173 125.894C163.203 124.947 163.243 123.96 163.701 123.131C164.162 122.301 165.18 121.702 166.067 122.035C166.794 122.308 167.186 123.079 167.484 123.795C169.908 129.608 170.518 136.16 169.209 142.318C170.36 142.956 171.883 142.185 172.522 141.036C173.161 139.886 173.154 138.502 173.131 137.186C172.931 125.763 172.732 114.34 172.531 102.918L172.54 102.915Z" fill="white"/>
<path id="Vector_114" d="M143.474 106.537C142.923 107.5 145.171 111.318 145.543 112.226C147.433 116.833 149.324 121.44 151.213 126.047C150.588 119.979 149.103 114.002 146.819 108.347C146.433 107.391 144.566 104.628 143.476 106.537H143.474Z" fill="white"/>
<path id="Vector_115" d="M146.408 82.1185C146.085 82.6054 145.625 83.2049 145.067 83.0336C144.546 82.8736 144.458 82.1862 144.467 81.643C144.519 78.4379 144.571 75.2329 144.622 72.0278C142.031 73.8828 142.363 76.3125 142.183 79.0803C142.077 80.6828 142.541 88.3235 141.447 89.2611C144.009 87.0794 146.18 84.4401 147.828 81.5077C147.378 81.1358 146.731 81.6317 146.41 82.1185H146.408Z" fill="white"/>
</g>
</g>
</g>
</g>
</g>
</g>
<g id="Group_25">
<g id="Group_26">
<path id="Vector_116" d="M114.908 103.736C113.915 104.522 113.059 105.482 112.394 106.56L114.908 103.736Z" fill="white"/>
</g>
</g>
</g>
</g>
<g id="Group_27">
<g id="Group_28">
<path id="Vector_117" d="M150.527 181.648L141.573 153.522C133.17 144.883 117.738 136.976 116.398 125.01C114.673 109.645 112.306 110.27 112.306 106.449C112.306 106.312 113.38 104.534 114.673 100.632C115.095 99.3677 115.305 97.5172 115.535 95.9958C115.775 94.3933 117.206 93.21 118.829 93.3295C119.921 93.4039 121.011 93.8141 121.819 94.4925C123.379 95.811 124.169 97.8643 124.361 99.8973C124.562 101.93 124.241 103.975 123.911 105.99C125.564 109.105 126.498 112.961 127.196 116.416C127.92 113.54 128.426 110.653 129.15 107.777C129.333 107.667 129.252 107.448 129.426 107.328C127.949 104.653 129.049 104.727 126.085 98.8087C121.104 88.8397 115.644 79.2764 111.351 66.623C111.012 65.6426 110.92 64.0018 111.186 62.9943C112.186 59.228 116.039 59.8253 117.838 61.8583C118.323 62.3902 118.691 63.0033 118.993 63.6547C121.05 68.1264 125.259 74.9512 128.232 78.873L138.488 92.4324C138.488 92.4324 141.553 89.5655 141.975 88.3371L141.984 88.3281C142.388 87.0997 141.984 77.462 141.984 77.462C141.984 77.462 141.37 79.3125 139.727 79.3125C138.544 79.3125 136.195 80.1554 134.36 78.3501C132.863 76.885 132.707 74.5297 133.836 72.7717L137.671 66.8079C137.671 66.8079 140.341 64.1415 144.239 65.5705C148.139 67.0085 152.037 70.2879 152.037 70.2879C152.037 70.2879 155.533 69.8754 158.605 71.1038C161.688 72.3412 165.092 76.2517 165.092 76.2517C165.092 76.2517 168.588 76.2337 170.229 77.2592C170.642 77.5161 176.504 85.4228 175.019 91.9817C174.138 95.8944 173.806 101.509 173.396 103.039L173.294 140.887L180.404 165.982" stroke="#0D1C22" stroke-miterlimit="10"/>
<g id="Group_29">
<g id="Group_30">
<g id="Group_31">
<path id="Vector_118" d="M152.974 71.6335C154.488 77.2165 155.276 82.9932 155.312 88.7767C155.319 89.7436 155.307 90.7331 155.617 91.6504C155.928 92.5678 156.632 93.4152 157.583 93.6068" stroke="#0D1C22" stroke-miterlimit="10"/>
<path id="Vector_119" d="M165.101 77.2568C167.647 82.6189 165.04 94.5893 165.234 95.4345C165.426 96.2775 165.909 97.0979 166.679 97.4923" stroke="#0D1C22" stroke-miterlimit="10"/>
<g id="Group_32">
<path id="Vector_120" d="M142.995 70.901C142.695 72.6049 142.444 74.5816 142.147 76.2855C140.154 74.5928 138.885 72.0752 138.709 69.4697" stroke="#0D1C22" stroke-miterlimit="10"/>
<path id="Vector_121" d="M126.568 116.583C125.952 116.853 125.333 117.126 124.717 117.397" stroke="#0D1C22" stroke-miterlimit="10"/>
<path id="Vector_122" d="M127.042 118.066C126.74 119.488 126.733 120.973 127.022 122.398" stroke="#0D1C22" stroke-miterlimit="10"/>
<path id="Vector_123" d="M137.876 102.066C138.56 103.296 139.244 104.525 139.93 105.755" stroke="#0D1C22" stroke-miterlimit="10"/>
<path id="Vector_124" d="M141.817 88.5626C142.496 87.6024 143.178 86.6422 143.857 85.6843" stroke="#0D1C22" stroke-miterlimit="10"/>
<path id="Vector_125" d="M170.52 102.066C170.315 102.816 170.109 103.569 169.904 104.322" stroke="#0D1C22" stroke-miterlimit="10"/>
<path id="Vector_126" d="M165.53 95.8943C166.132 93.9763 166.733 92.0582 167.335 90.1401" stroke="#0D1C22" stroke-miterlimit="10"/>
<path id="Vector_127" d="M171.563 85.6911C172.622 85.0781 174.161 85.5559 174.685 86.6603" stroke="#0D1C22" stroke-miterlimit="10"/>
<path id="Vector_128" d="M159.239 75.864C160.657 75.4516 162.275 75.8212 163.37 76.8084" stroke="#0D1C22" stroke-miterlimit="10"/>
<path id="Vector_129" d="M121.052 81.5731C122.368 80.1104 124.417 79.3418 126.372 79.5717" stroke="#0D1C22" stroke-miterlimit="10"/>
</g>
</g>
<path id="Vector_130" d="M113.317 65.424C114.542 64.5292 116.138 64.1551 117.634 64.4143" stroke="#0D1C22" stroke-miterlimit="10"/>
<path id="Vector_131" d="M114.908 103.736C113.915 104.522 113.059 105.483 112.394 106.56" stroke="#0D1C22" stroke-miterlimit="10"/>
</g>
<path id="Vector_132" d="M115.732 99.8502C117.086 98.8832 119.246 101.047 120.494 99.9426C120.991 99.5031 121.027 98.7412 120.912 98.0876C120.797 97.434 120.566 96.7803 120.663 96.1267" stroke="#0D1C22" stroke-miterlimit="10"/>
</g>
</g>
<path id="Vector_133" d="M153.962 93.9109C155.608 97.2872 155.951 101.279 154.903 104.885" stroke="#0D1C22" stroke-miterlimit="10"/>
<path id="Vector_134" d="M163.923 99.1919C164.194 100.797 163.884 102.492 163.063 103.898" stroke="#0D1C22" stroke-miterlimit="10"/>
</g>
<path id="Vector_135" opacity="0.2" d="M81.0224 112.044C81.0992 112.634 81.0743 113.243 80.9457 113.824C80.3882 116.4 78.7766 123.91 78.1853 128.019C77.4833 133.036 69.3624 148.568 69.3624 148.568C69.3624 148.568 61.8869 157.85 58.0792 162.677C56.2104 165.049 53.2513 174.648 50.7392 183.792C47.5657 182.834 44.4284 181.797 41.3069 180.693C38.727 179.778 36.1449 178.809 33.5989 177.808C30.0147 176.395 25.4441 174.152 20.1987 171.283C21.6229 166.119 22.5731 162.148 22.5573 161.916C22.5144 161.377 25.6089 155.427 25.6089 155.427L22.9072 119.946L21.3114 114.543C20.4808 111.753 19.9572 108.875 19.7427 105.999C19.4087 101.606 19.7766 97.1792 20.8487 92.8742L25.5051 85.9728L27.6831 85.8105L34.4228 76.4095C34.4228 76.4095 38.0657 75.3141 39.0024 78.0526C39.9368 80.8001 35.9666 85.912 35.9666 85.912L34.6033 94.3618L37.8445 102.273L39.526 102.891C39.526 102.891 40.0926 88.9592 39.7066 86.1779L43.2908 73.4637C43.2908 73.4637 45.426 69.2173 46.0851 67.0761C46.7374 64.9439 50.5699 62.8298 52.7728 66.5712C52.7728 66.5712 53.9984 68.4713 53.1159 71.0835C52.2153 73.6958 51.4705 75.7491 51.4705 75.7491C51.4705 75.7491 50.6557 86.5205 50.3984 86.8203C50.1411 87.102 51.9851 102.857 51.9851 102.857L53.3913 103.481L53.8878 88.4543L56.8107 74.3359C56.8107 74.3359 56.5715 67.5472 61.3633 68.3676C61.3633 68.3676 63.6091 68.1107 64.8866 70.5584C66.1641 72.9994 64.9475 89.25 64.9475 89.25L66.1302 106.048L68.0262 119.001L70.2562 110.123C70.2562 110.123 70.3848 97.4001 78.4268 96.3137C78.4268 96.3137 80.8193 95.8855 81.3068 97.5466C81.7966 99.1987 80.1151 102.598 80.3543 105.852C80.5349 108.138 80.8599 110.716 81.0224 112.041V112.044Z" fill="#1C1D22"/>
<g id="Group_33">
<g id="Group_34">
<path id="Vector_136" d="M78.5803 96.3162C78.2124 94.6212 75.7996 94.8692 75.7996 94.8692C67.6989 95.3447 66.6065 108.025 66.6065 108.025L63.7084 116.709L62.801 103.646L62.8936 86.807C62.8936 86.807 65.3425 70.6916 64.2523 68.1627C63.1689 65.6248 60.9028 65.7173 60.9028 65.7173C56.1878 64.5362 55.9124 71.325 55.9124 71.325L51.9309 85.1774L50.2968 100.121L48.9381 99.3973C48.9381 99.3973 48.2948 83.5478 48.5702 83.2819C48.8455 83.0069 50.4774 72.3257 50.4774 72.3257C50.4774 72.3257 51.3757 70.3377 52.4681 67.7999C53.5515 65.262 52.4681 63.274 52.4681 63.274C50.5609 59.3793 46.5772 61.1937 45.7623 63.274C44.9453 65.3544 42.4964 69.4317 42.4964 69.4317L37.9551 81.8371C38.1289 84.641 36.5151 98.4934 36.5151 98.4934L34.881 97.7519L32.247 89.6153L34.2467 81.2872C34.2467 81.2872 38.5961 76.4954 37.8716 73.6825C37.1471 70.8787 33.4319 71.6946 33.4319 71.6946L26.0016 80.5637H23.819L18.6526 87.0865C17.2577 91.3013 16.5512 95.6896 16.5512 100.096C16.5512 102.981 16.8537 105.886 17.4699 108.735L18.6526 114.241V149.826C18.6526 149.826 15.1202 155.524 15.1202 156.065C15.1202 156.313 13.6622 160.811 11.624 166.417C20.5147 171.639 28.1752 175.68 33.5967 177.815C36.1472 178.822 38.7248 179.785 41.3136 180.7C44.5706 171.565 48.3783 161.79 50.4796 159.509C54.644 154.983 62.801 146.287 62.801 146.287C62.801 146.287 72.0776 131.418 73.1588 126.471C74.0571 122.412 76.2329 115.046 76.9845 112.517C77.1583 111.949 77.2328 111.345 77.1944 110.748C77.1312 109.411 77.0026 106.817 77.0026 104.527C77.0026 101.266 78.9391 98.0043 78.5803 96.3184V96.3162Z" fill="white"/>
<g id="Clip path group_2">
<mask id="mask1_2407_638" style="mask-type:luminance" maskUnits="userSpaceOnUse" x="11" y="60" width="68" height="121">
<g id="clippath-1">
<path id="Vector_137" d="M78.5803 96.3162C78.2124 94.6212 75.7996 94.8692 75.7996 94.8692C67.6989 95.3447 66.6065 108.025 66.6065 108.025L63.7084 116.709L62.801 103.646L62.8936 86.807C62.8936 86.807 65.3425 70.6916 64.2523 68.1627C63.1689 65.6248 60.9028 65.7173 60.9028 65.7173C56.1878 64.5362 55.9124 71.325 55.9124 71.325L51.9309 85.1774L50.2968 100.121L48.9381 99.3973C48.9381 99.3973 48.2948 83.5478 48.5702 83.2819C48.8455 83.0069 50.4774 72.3257 50.4774 72.3257C50.4774 72.3257 51.3757 70.3377 52.4681 67.7999C53.5515 65.262 52.4681 63.274 52.4681 63.274C50.5609 59.3793 46.5772 61.1937 45.7623 63.274C44.9453 65.3544 42.4964 69.4317 42.4964 69.4317L37.9551 81.8371C38.1289 84.641 36.5151 98.4934 36.5151 98.4934L34.881 97.7519L32.247 89.6153L34.2467 81.2872C34.2467 81.2872 38.5961 76.4954 37.8716 73.6825C37.1471 70.8787 33.4319 71.6946 33.4319 71.6946L26.0016 80.5637H23.819L18.6526 87.0865C17.2577 91.3013 16.5512 95.6896 16.5512 100.096C16.5512 102.981 16.8537 105.886 17.4699 108.735L18.6526 114.241V149.826C18.6526 149.826 15.1202 155.524 15.1202 156.065C15.1202 156.313 13.6622 160.811 11.624 166.417C20.5147 171.639 28.1752 175.68 33.5967 177.815C36.1472 178.822 38.7248 179.785 41.3136 180.7C44.5706 171.565 48.3783 161.79 50.4796 159.509C54.644 154.983 62.801 146.287 62.801 146.287C62.801 146.287 72.0776 131.418 73.1588 126.471C74.0571 122.412 76.2329 115.046 76.9845 112.517C77.1583 111.949 77.2328 111.345 77.1944 110.748C77.1312 109.411 77.0026 106.817 77.0026 104.527C77.0026 101.266 78.9391 98.0043 78.5803 96.3184V96.3162Z" fill="white"/>
</g>
</mask>
<g mask="url(#mask1_2407_638)">
<g id="Group_35">
<path id="Vector_138" d="M22.9388 92.7345C24.3224 91.0103 27.1708 90.3476 28.7801 91.8645C29.7033 92.7345 30.0147 94.0553 30.2495 95.3017C30.4842 96.5481 30.7167 97.8666 31.5428 98.829C32.3689 99.7915 34.021 100.168 34.89 99.2438C35.0051 101.119 35.1202 102.994 35.2354 104.869C37.2374 101.396 38.2711 97.373 38.1876 93.3656C38.147 91.4182 37.8536 89.4393 38.305 87.5438C38.7564 85.6482 40.2303 83.8046 42.1781 83.7167C44.3382 83.6175 46.0468 85.7204 46.4621 87.839C46.8774 89.96 46.3921 92.1372 46.2589 94.292C46.058 97.5804 46.7036 100.916 48.1165 103.894C48.5702 102.976 49.0238 102.057 49.4775 101.139C49.8861 102.981 50.2946 104.824 50.7054 106.666C51.0597 102.611 51.4141 98.5563 51.7685 94.5038C51.8678 93.3588 51.9784 92.1778 52.5133 91.1613C53.0482 90.1425 54.1203 89.3153 55.2669 89.4303C56.8108 89.5836 57.7001 91.2289 58.2169 92.6894C62.0788 103.598 60.4875 115.585 58.8512 127.039C59.9255 127.23 60.8284 126.153 61.0947 125.096C61.3633 124.039 61.2685 122.901 61.668 121.886C62.0698 120.874 63.3112 120.038 64.2343 120.617C65.584 121.467 64.6406 124.098 66.0625 124.826C66.5027 121.438 67.8569 118.172 69.9447 115.465C70.8949 114.232 72.3237 113.011 73.8314 113.401C74.9577 113.691 75.6912 114.841 75.8583 115.99C76.023 117.14 77.6842 112.393 77.3998 113.518C78.0499 106.914 76.7498 106.217 77.3998 99.6134C77.5172 98.4211 79.447 96.3543 78.6254 95.4798C77.8445 94.6481 75.5129 93.431 74.4769 93.911C73.4409 94.3889 70.0711 96.0635 69.403 96.9854C65.1913 102.794 65.478 111.207 64.1666 118.258C63.0493 107.504 61.9366 96.5729 63.9093 85.9413C64.9972 80.0766 67.006 73.9708 65.11 68.3158C64.2456 65.7351 61.9479 63.1521 59.2665 63.6434C57.1019 64.0401 55.7951 66.2174 54.9148 68.2301C51.9626 74.9963 50.6512 82.3395 49.3624 89.6061C50.974 82.2944 52.5855 74.9805 54.1948 67.6689C54.6124 65.7689 55.0344 63.808 54.6891 61.8922C54.3438 59.9763 53.0324 58.0988 51.1252 57.6977C49.2338 57.301 47.3536 58.4189 45.9271 59.7217C40.8306 64.3782 38.9324 71.4802 37.2712 78.1766C37.8536 76.4276 38.4449 74.6154 38.2644 72.7807C38.0838 70.9461 36.9146 69.0731 35.1135 68.6786C32.7797 68.167 30.658 70.2496 29.6333 72.4043C28.6086 74.5591 28.103 77.0406 26.4689 78.7806C25.2771 77.4418 23.0381 77.5184 21.5417 78.5079C20.0452 79.4974 19.1424 81.154 18.4133 82.7903C15.7319 88.7992 14.5808 95.482 15.0977 102.039C16.2804 99.406 19.2688 97.7066 22.1398 98.0357C21.9682 96.5774 21.799 95.1169 21.6274 93.6586" fill="#555555"/>
<g id="Group_36">
<path id="Vector_139" d="M28.5814 106.666C28.5092 107.745 28.437 108.827 28.3647 109.907C28.6965 109.005 30.0192 108.672 30.7392 109.305C30.5789 108.618 31.0055 107.953 31.2786 107.301C31.5517 106.65 31.5788 105.726 30.9446 105.417C30.1907 105.05 29.4459 105.913 29.0486 106.652C29.0148 106.384 28.9809 106.116 28.9493 105.848L28.5814 106.663V106.666Z" fill="#555555"/>
<path id="Vector_140" d="M40.8825 104.73C39.9978 105.739 39.3929 106.99 39.1514 108.309C39.5238 107.944 39.912 107.57 40.404 107.392C40.8938 107.213 41.519 107.29 41.8305 107.709C42.0246 107.971 42.0923 108.347 42.3812 108.496C42.6724 108.647 43.0448 108.464 43.2186 108.187C43.3924 107.91 43.4172 107.57 43.4376 107.243C43.4759 106.618 43.5143 105.981 43.3337 105.383C43.1532 104.786 42.7063 104.227 42.0946 104.096C41.4829 103.966 40.7584 104.412 40.7539 105.036L40.8825 104.732V104.73Z" fill="#555555"/>
<path id="Vector_141" d="M52.7886 107.68C51.8496 108.942 51.2267 110.437 50.9919 111.99C51.6239 111.899 52.1521 111.485 52.6577 111.097C53.161 110.707 53.7117 110.31 54.346 110.261C54.9825 110.211 55.698 110.671 55.6799 111.307C55.558 110.588 55.6731 109.855 55.7499 109.129C55.8266 108.406 55.8605 107.649 55.5896 106.972C55.3188 106.296 54.6665 105.721 53.9374 105.762C53.2084 105.803 52.5832 106.65 52.924 107.295L52.7863 107.678L52.7886 107.68Z" fill="#555555"/>
<path id="Vector_142" d="M20.0271 111.974C19.368 113.207 19.0204 114.604 19.0295 116.001C19.0385 115.357 19.6457 114.838 20.2821 114.746C20.9209 114.654 21.5619 114.901 22.1149 115.233C22.2436 114.586 22.3699 113.917 22.2345 113.27C22.0991 112.623 21.6296 112.001 20.9773 111.895C20.325 111.789 19.6028 112.42 19.7833 113.053C19.7156 112.889 19.6479 112.724 19.5802 112.56L20.0294 111.971L20.0271 111.974Z" fill="#555555"/>
</g>
<path id="Vector_143" opacity="0.5" d="M22.9388 92.7345C24.3224 91.0103 27.1708 90.3476 28.7801 91.8645C29.7033 92.7345 30.0147 94.0553 30.2495 95.3017C30.4842 96.5481 30.7167 97.8666 31.5428 98.829C32.3689 99.7915 34.021 100.168 34.89 99.2438C35.0051 101.119 35.1202 102.994 35.2354 104.869C37.2374 101.396 38.2711 97.373 38.1876 93.3656C38.147 91.4182 37.8536 89.4393 38.305 87.5438C38.7564 85.6482 40.2303 83.8046 42.1781 83.7167C44.3382 83.6175 46.0468 85.7204 46.4621 87.839C46.8774 89.96 46.3921 92.1372 46.2589 94.292C46.058 97.5804 46.7036 100.916 48.1165 103.894C48.5702 102.976 49.0238 102.057 49.4775 101.139C49.8861 102.981 50.2946 104.824 50.7054 106.666C51.0597 102.611 51.4141 98.5563 51.7685 94.5038C51.8678 93.3588 51.9784 92.1778 52.5133 91.1613C53.0482 90.1425 54.1203 89.3153 55.2669 89.4303C56.8108 89.5836 57.7001 91.2289 58.2169 92.6894C62.0788 103.598 60.4875 115.585 58.8512 127.039C59.9255 127.23 60.8284 126.153 61.0947 125.096C61.3633 124.039 61.2685 122.901 61.668 121.886C62.0698 120.874 63.3112 120.038 64.2343 120.617C65.584 121.467 64.6406 124.098 66.0625 124.826C66.5027 121.438 67.8569 118.172 69.9447 115.465C70.8949 114.232 72.3237 113.011 73.8314 113.401C74.9577 113.691 75.6912 114.841 75.8583 115.99C76.023 117.14 77.6842 112.393 77.3998 113.518C78.0499 106.914 76.7498 106.217 77.3998 99.6134C77.5172 98.4211 79.447 96.3543 78.6254 95.4798C77.8445 94.6481 75.5129 93.431 74.4769 93.911C73.4409 94.3889 70.0711 96.0635 69.403 96.9854C65.1913 102.794 65.478 111.207 64.1666 118.258C63.0493 107.504 61.9366 96.5729 63.9093 85.9413C64.9972 80.0766 67.006 73.9708 65.11 68.3158C64.2456 65.7351 61.9479 63.1521 59.2665 63.6434C57.1019 64.0401 55.7951 66.2174 54.9148 68.2301C51.9626 74.9963 50.6512 82.3395 49.3624 89.6061C50.974 82.2944 52.5855 74.9805 54.1948 67.6689C54.6124 65.7689 55.0344 63.808 54.6891 61.8922C54.3438 59.9763 53.0324 58.0988 51.1252 57.6977C49.2338 57.301 47.3536 58.4189 45.9271 59.7217C40.8306 64.3782 38.9324 71.4802 37.2712 78.1766C37.8536 76.4276 38.4449 74.6154 38.2644 72.7807C38.0838 70.9461 36.9146 69.0731 35.1135 68.6786C32.7797 68.167 30.658 70.2496 29.6333 72.4043C28.6086 74.5591 28.103 77.0406 26.4689 78.7806C25.2771 77.4418 23.0381 77.5184 21.5417 78.5079C20.0452 79.4974 19.1424 81.154 18.4133 82.7903C15.7319 88.7992 14.5808 95.482 15.0977 102.039C16.2804 99.406 19.2688 97.7066 22.1398 98.0357C21.9682 96.5774 21.799 95.1169 21.6274 93.6586" fill="white"/>
<g id="Group_37" opacity="0.5">
<path id="Vector_144" d="M28.5814 106.666C28.5092 107.745 28.437 108.827 28.3647 109.907C28.6965 109.005 30.0192 108.672 30.7392 109.305C30.5789 108.618 31.0055 107.953 31.2786 107.301C31.5517 106.65 31.5788 105.726 30.9446 105.417C30.1907 105.05 29.4459 105.913 29.0486 106.652C29.0148 106.384 28.9809 106.116 28.9493 105.848L28.5814 106.663V106.666Z" fill="white"/>
<path id="Vector_145" d="M40.8825 104.73C39.9978 105.739 39.3929 106.99 39.1514 108.309C39.5238 107.944 39.912 107.57 40.404 107.392C40.8938 107.213 41.519 107.29 41.8305 107.709C42.0246 107.971 42.0923 108.347 42.3812 108.496C42.6724 108.647 43.0448 108.464 43.2186 108.187C43.3924 107.91 43.4172 107.57 43.4376 107.243C43.4759 106.618 43.5143 105.981 43.3337 105.383C43.1532 104.786 42.7063 104.227 42.0946 104.096C41.4829 103.966 40.7584 104.412 40.7539 105.036L40.8825 104.732V104.73Z" fill="white"/>
<path id="Vector_146" d="M52.7886 107.68C51.8496 108.942 51.2267 110.437 50.9919 111.99C51.6239 111.899 52.1521 111.485 52.6577 111.097C53.161 110.707 53.7117 110.31 54.346 110.261C54.9825 110.211 55.698 110.671 55.6799 111.307C55.558 110.588 55.6731 109.855 55.7499 109.129C55.8266 108.406 55.8605 107.649 55.5896 106.972C55.3188 106.296 54.6665 105.721 53.9374 105.762C53.2084 105.803 52.5832 106.65 52.924 107.295L52.7863 107.678L52.7886 107.68Z" fill="white"/>
<path id="Vector_147" d="M20.0271 111.974C19.368 113.207 19.0204 114.604 19.0295 116.001C19.0385 115.357 19.6457 114.838 20.2821 114.746C20.9209 114.654 21.5619 114.901 22.1149 115.233C22.2436 114.586 22.3699 113.917 22.2345 113.27C22.0991 112.623 21.6296 112.001 20.9773 111.895C20.325 111.789 19.6028 112.42 19.7833 113.053C19.7156 112.889 19.6479 112.724 19.5802 112.56L20.0294 111.971L20.0271 111.974Z" fill="white"/>
</g>
</g>
</g>
</g>
</g>
<path id="Vector_148" d="M11.624 166.412C13.6599 160.804 15.1202 156.308 15.1202 156.06C15.1202 155.519 18.6526 149.821 18.6526 149.821V114.237L17.4699 108.73C16.8559 105.881 16.5535 102.976 16.5535 100.091C16.5535 95.6847 17.26 91.2964 18.6548 87.0816L23.819 80.5588H26.0016L33.4319 71.6897C33.4319 71.6897 37.1471 70.8738 37.8716 73.6777C38.5961 76.4905 34.2467 81.2823 34.2467 81.2823L32.247 89.6105L34.881 97.747L36.5151 98.4886C36.5151 98.4886 38.1289 84.6361 37.9551 81.8323L42.4964 69.4268C42.4964 69.4268 44.9453 65.3495 45.7623 63.2691C46.5794 61.1888 50.5609 59.3744 52.4681 63.2691C52.4681 63.2691 53.5515 65.2571 52.4681 67.795C51.3757 70.3329 50.4774 72.3208 50.4774 72.3208C50.4774 72.3208 48.8433 83.0043 48.5702 83.2793C48.2948 83.5452 48.9381 99.3946 48.9381 99.3946L50.2968 100.118L51.9309 85.1748L55.9124 71.3223C55.9124 71.3223 56.1878 64.5336 60.9028 65.7146C60.9028 65.7146 63.1689 65.6222 64.2523 68.1601C65.3448 70.689 62.8936 86.8044 62.8936 86.8044L62.801 103.643L63.7084 116.707L66.6087 108.023C66.6087 108.023 67.7012 95.3421 75.8018 94.8666C75.8018 94.8666 78.2146 94.6186 78.5825 96.3136C78.9414 97.9995 77.0048 101.261 77.0048 104.522C77.0048 106.812 77.1335 109.406 77.1967 110.743C77.2328 111.338 77.1606 111.944 76.9868 112.512C76.2352 115.041 74.0593 122.407 73.161 126.466C72.0776 131.414 62.8033 146.283 62.8033 146.283C62.8033 146.283 54.6462 154.976 50.4819 159.504C48.3806 161.785 44.5729 171.56 41.3159 180.695" stroke="#0D1C22" stroke-miterlimit="10"/>
<g id="Vector_149">
<path d="M36.366 99.8274C36.84 101.516 36.3593 103.436 35.1472 104.703L36.366 99.8274Z" fill="white"/>
<path d="M36.366 99.8274C36.84 101.516 36.3593 103.436 35.1472 104.703" stroke="#0D1C22" stroke-miterlimit="10"/>
</g>
<g id="Vector_150">
<path d="M22.5371 111.798C23.7176 109.977 24.8619 107.475 24.5459 105.329C23.9275 101.128 22.009 96.2887 22.8712 92.1302C23.4219 89.4729 23.9749 86.8155 24.5256 84.1582" fill="white"/>
<path d="M22.5371 111.798C23.7176 109.977 24.8619 107.475 24.5459 105.329C23.9275 101.128 22.009 96.2887 22.8712 92.1302C23.4219 89.4729 23.9749 86.8155 24.5256 84.1582" stroke="#0D1C22" stroke-miterlimit="10"/>
</g>
<path id="Vector_151" d="M56.7227 72.0888C58.1175 71.7236 59.6072 71.7281 60.9998 72.1C61.0156 71.7033 61.0314 71.3044 61.0495 70.9077" stroke="#0D1C22" stroke-miterlimit="10"/>
<path id="Vector_152" d="M45.4644 66.7378C46.2859 67.3261 47.4438 67.405 48.3376 66.9339C49.2314 66.4629 49.8183 65.4621 49.7934 64.4524" stroke="#0D1C22" stroke-miterlimit="10"/>
<path id="Vector_153" d="M76.4541 96.46C74.0751 97.0032 72.2943 99.4554 72.5177 101.883C73.2174 102.092 73.9194 102.3 74.6191 102.509" stroke="#0D1C22" stroke-miterlimit="10"/>
<g id="Vector_154">
<path d="M48.8592 97.5059C48.954 98.9416 48.7779 102.377 48.875 103.812L48.8592 97.5059Z" fill="white"/>
<path d="M48.8592 97.5059C48.954 98.9416 48.7779 102.377 48.875 103.812" stroke="#0D1C22" stroke-miterlimit="10"/>
</g>
<g id="Vector_155">
<path d="M50.4391 99.4983C50.2653 101.851 50.0915 104.204 49.9199 106.557C49.9335 106.258 49.947 105.958 49.9628 105.66" fill="white"/>
<path d="M50.4391 99.4983C50.2653 101.851 50.0915 104.204 49.9199 106.557C49.9335 106.258 49.947 105.958 49.9628 105.66" stroke="#0D1C22" stroke-miterlimit="10"/>
</g>
<g id="Vector_156">
<path d="M63.521 119.339C64.1485 121.916 63.8618 124.704 62.7197 127.095L63.521 119.339Z" fill="white"/>
<path d="M63.521 119.339C64.1485 121.916 63.8618 124.704 62.7197 127.095" stroke="#0D1C22" stroke-miterlimit="10"/>
</g>
<path id="Vector_157" d="M41.7875 107.001C39.9186 109.048 40.1918 113.957 41.5121 116.659" stroke="#0D1C22" stroke-miterlimit="10"/>
<path id="Vector_158" d="M55.6009 110.38C55.6483 112.589 54.8403 114.807 53.3123 116.659" stroke="#0D1C22" stroke-miterlimit="10"/>
<path id="Vector_159" d="M28.1729 107.982C27.8637 110.037 28.3264 112.201 29.4527 113.948" stroke="#0D1C22" stroke-miterlimit="10"/>
<path id="Vector_160" d="M20.2189 114.372C20.1286 115.986 20.6026 117.626 21.5393 118.945" stroke="#0D1C22" stroke-miterlimit="10"/>
<path id="Vector_161" d="M31.1206 74.8993C32.0911 74.4305 33.3461 74.6311 34.1203 75.3794C34.4746 74.9128 34.8267 74.4485 35.1788 73.9819" stroke="#0D1C22" stroke-miterlimit="10"/>
<path id="Vector_162" d="M39.9187 81.1854C41.3361 80.2861 43.4104 80.6377 44.4509 81.9539" stroke="#0D1C22" stroke-miterlimit="10"/>
<path id="Vector_163" d="M53.6577 85.4678C55.188 84.7758 57.0298 84.8142 58.5308 85.5692" stroke="#0D1C22" stroke-miterlimit="10"/>
<path id="Vector_164" d="M23.0854 92.6511C23.9725 91.1207 25.821 90.2034 27.5793 90.4242" stroke="#0D1C22" stroke-miterlimit="10"/>
<path id="Vector_165" d="M17.3345 100.842C17.357 99.735 18.2689 98.7117 19.3681 98.563" stroke="#0D1C22" stroke-miterlimit="10"/>
</g>
</g>
<g id="Group_38">
<g id="Group_39">
<path id="Vector_166" d="M22.5933 12.9622H4.50502C2.15766 12.9622 0.252686 14.8622 0.252686 17.2085V25.9965C0.252686 28.3405 2.1554 30.2428 4.50502 30.2428H9.2336L12.8156 38.3501L17.8669 30.2428H22.5955C24.9429 30.2428 26.8478 28.3428 26.8478 25.9965V17.2085C26.8478 14.8644 24.9451 12.9622 22.5955 12.9622H22.5933Z" fill="white" stroke="#0D1C22" stroke-linecap="round" stroke-linejoin="round"/>
<g id="Group_40">
<path id="Vector_167" d="M11.0347 17.9883C11.0347 17.5262 11.4093 17.1633 11.9149 17.1633C12.4205 17.1633 12.7952 17.5037 12.7952 17.9544C12.7952 18.439 12.4318 18.8132 11.9149 18.8132C11.3981 18.8132 11.0347 18.4503 11.0347 17.9883ZM11.222 19.7824H12.5988V25.656H11.222V19.7824Z" fill="#0D1C22"/>
<path id="Vector_168" d="M15.9236 19.4736V19.8252H17.5419V20.9251H15.9665V25.656H14.5897V20.9251H13.6191V19.8252H14.5897V19.451C14.5897 18.2182 15.3277 17.4158 16.6933 17.4158C17.1673 17.4158 17.63 17.5149 17.9369 17.7358L17.551 18.7704C17.3411 18.6284 17.077 18.5292 16.7903 18.5292C16.217 18.5292 15.9214 18.8493 15.9214 19.4758L15.9236 19.4736Z" fill="#0D1C22"/>
</g>
</g>
<g id="Group_41">
<path id="Vector_169" d="M77.6523 14.1929H59.5641C57.2167 14.1929 55.3118 16.0929 55.3118 18.4392V27.2272C55.3118 29.5712 57.2145 31.4735 59.5641 31.4735H64.2927L67.8747 39.5808L72.926 31.4735H77.6546C80.002 31.4735 81.9069 29.5735 81.9069 27.2272V18.4392C81.9069 16.0952 80.0042 14.1929 77.6546 14.1929H77.6523Z" fill="white" stroke="#0D1C22" stroke-linecap="round" stroke-linejoin="round"/>
<g id="Group_42">
<path id="Vector_170" d="M63.3651 24.3895H58.7494C58.9141 25.2482 59.6296 25.7981 60.6544 25.7981C61.3157 25.7981 61.8325 25.5885 62.2524 25.1603L62.9904 26.0078C62.4623 26.6343 61.6362 26.9634 60.6228 26.9634C58.6501 26.9634 57.3726 25.699 57.3726 23.9499C57.3726 22.2009 58.6614 20.9478 60.4128 20.9478C62.1643 20.9478 63.3877 22.1468 63.3877 23.9838C63.3877 24.0942 63.3764 24.2587 63.3651 24.3917V24.3895ZM58.7381 23.4766H62.0763C61.9657 22.6292 61.3157 22.0454 60.4128 22.0454C59.51 22.0454 58.8713 22.6179 58.7381 23.4766Z" fill="#0D1C22"/>
<path id="Vector_171" d="M64.7058 18.7253H66.0826V26.8867H64.7058V18.7253Z" fill="#0D1C22"/>
<path id="Vector_172" d="M67.2156 26.3028L67.7437 25.257C68.2606 25.5974 69.0551 25.8408 69.7932 25.8408C70.6621 25.8408 71.0278 25.5996 71.0278 25.1917C71.0278 24.0692 67.3916 25.1263 67.3916 22.7822C67.3916 21.6711 68.3938 20.9453 69.9805 20.9453C70.7614 20.9453 71.6553 21.1324 72.1834 21.4524L71.6553 22.4982C71.0932 22.1692 70.5312 22.0587 69.9692 22.0587C69.1318 22.0587 68.7346 22.3337 68.7346 22.7191C68.7346 23.9069 72.3708 22.8499 72.3708 25.1488C72.3708 26.2487 71.3573 26.9632 69.7051 26.9632C68.7256 26.9632 67.7437 26.677 67.2156 26.3028Z" fill="#0D1C22"/>
<path id="Vector_173" d="M79.0653 24.3895H74.4496C74.6143 25.2482 75.3298 25.7981 76.3545 25.7981C77.0159 25.7981 77.5327 25.5885 77.9526 25.1603L78.6906 26.0078C78.1625 26.6343 77.3364 26.9634 76.3229 26.9634C74.3503 26.9634 73.0728 25.699 73.0728 23.9499C73.0728 22.2009 74.3615 20.9478 76.113 20.9478C77.8645 20.9478 79.0879 22.1468 79.0879 23.9838C79.0879 24.0942 79.0766 24.2587 79.0653 24.3917V24.3895ZM74.4383 23.4766H77.7765C77.6659 22.6292 77.0159 22.0454 76.113 22.0454C75.2102 22.0454 74.5715 22.6179 74.4383 23.4766Z" fill="#0D1C22"/>
</g>
</g>
<g id="Group_43">
<path id="Vector_174" d="M131.035 13.6724H112.946C110.599 13.6724 108.694 15.5724 108.694 17.9187V26.7067C108.694 29.0507 110.597 30.953 112.946 30.953H117.675L121.257 39.0603L126.308 30.953H131.037C133.384 30.953 135.289 29.053 135.289 26.7067V17.9187C135.289 15.5747 133.387 13.6724 131.037 13.6724H131.035Z" fill="white" stroke="#0D1C22" stroke-linecap="round" stroke-linejoin="round"/>
<g id="Group_44">
<path id="Vector_175" d="M117.095 20.1838V20.5354H118.713V21.6353H117.138V26.3662H115.761V21.6353H114.793V20.5354H115.761V20.1612C115.761 18.9284 116.499 18.126 117.865 18.126C118.339 18.126 118.801 18.2251 119.111 18.446L118.725 19.4806C118.517 19.3386 118.251 19.2394 117.966 19.2394C117.393 19.2394 117.095 19.5595 117.095 20.186V20.1838Z" fill="#0D1C22"/>
<path id="Vector_176" d="M119.065 23.4294C119.065 21.6691 120.388 20.4272 122.194 20.4272C123.999 20.4272 125.333 21.6714 125.333 23.4294C125.333 25.1875 124.022 26.4429 122.194 26.4429C120.366 26.4429 119.065 25.1897 119.065 23.4294ZM123.945 23.4294C123.945 22.307 123.196 21.5925 122.194 21.5925C121.192 21.5925 120.454 22.307 120.454 23.4294C120.454 24.5519 121.203 25.2664 122.194 25.2664C123.185 25.2664 123.945 24.5519 123.945 23.4294Z" fill="#0D1C22"/>
<path id="Vector_177" d="M130.053 20.425V21.7346C129.931 21.712 129.832 21.703 129.735 21.703C128.687 21.703 128.026 22.3183 128.026 23.5174V26.3663H126.649V20.4927H127.961V21.3514C128.358 20.7361 129.073 20.4273 130.053 20.4273V20.425Z" fill="#0D1C22"/>
</g>
</g>
<g id="Group_45">
<path id="Vector_178" d="M183.645 12.9622H165.557C163.209 12.9622 161.304 14.8622 161.304 17.2085V25.9965C161.304 28.3405 163.207 30.2428 165.557 30.2428H170.285L173.867 38.3501L178.918 30.2428H183.647C185.994 30.2428 187.899 28.3428 187.899 25.9965V17.2085C187.899 14.8644 185.997 12.9622 183.647 12.9622H183.645Z" fill="white" stroke="#0D1C22" stroke-linecap="round" stroke-linejoin="round"/>
<path id="Vector_179" d="M172.251 19.4917H177.329V20.5916H172.251V19.4917ZM172.251 22.1536H177.329V23.2535H172.251V22.1536Z" fill="#0D1C22"/>
</g>
<g id="Group_46">
<path id="Vector_180" d="M50.1636 2.79272H32.0753C29.728 2.79272 27.823 4.69276 27.823 7.03907V15.827C27.823 18.1711 29.7257 20.0734 32.0753 20.0734H36.8039L40.3859 28.1806L45.4372 20.0734H50.1658C52.5132 20.0734 54.4182 18.1733 54.4182 15.827V7.03907C54.4182 4.69502 52.5154 2.79272 50.1658 2.79272H50.1636Z" fill="white" stroke="#0D1C22" stroke-linecap="round" stroke-linejoin="round"/>
<g id="Group_47">
<path id="Vector_181" d="M36.8647 6.44409H39.4988V7.54399H38.2438V15.64H39.4988V16.7399H36.8647V6.44409Z" fill="#0D1C22"/>
<path id="Vector_182" d="M42.9092 16.7421V15.6422H44.1551V7.54619H42.9092V6.44629H45.5319V16.7421H42.9092Z" fill="#0D1C22"/>
</g>
</g>
<g id="Group_48">
<path id="Vector_183" d="M103.941 1.89331H85.8524C83.5051 1.89331 81.6001 3.79335 81.6001 6.13966V14.9276C81.6001 17.2717 83.5028 19.174 85.8524 19.174H90.581L94.163 27.2812L99.2143 19.174H103.943C106.29 19.174 108.195 17.2739 108.195 14.9276V6.13966C108.195 3.7956 106.293 1.89331 103.943 1.89331H103.941Z" fill="white" stroke="#0D1C22" stroke-linecap="round" stroke-linejoin="round"/>
<g id="Group_49">
<path id="Vector_184" d="M91.2151 10.6586C91.6553 10.8006 91.8652 11.0982 91.8652 11.7811V13.8705C91.8652 14.3979 92.1293 14.7066 92.68 14.7066H92.9102V15.8066H92.3595C91.1158 15.8066 90.4884 15.18 90.4884 14.0124V11.7473C90.4884 11.3844 90.301 11.2199 89.9918 11.2199H89.6284V10.0974H89.9918C90.301 10.0974 90.4884 9.93289 90.4884 9.57001V7.30485C90.4884 6.13958 91.1158 5.51074 92.3595 5.51074H92.9102V6.61064H92.68C92.1293 6.61064 91.8652 6.91943 91.8652 7.44684V9.53621C91.8652 10.2191 91.6553 10.5144 91.2151 10.6586Z" fill="#0D1C22"/>
<path id="Vector_185" d="M99.6159 10.0974V11.2199H99.2412C98.9433 11.2199 98.7559 11.3844 98.7559 11.7473V14.0124C98.7559 15.1777 98.1172 15.8066 96.8713 15.8066H96.3206V14.7066H96.5508C97.1128 14.7066 97.3769 14.4001 97.3769 13.8705V11.7811C97.3769 11.1004 97.5755 10.8029 98.0156 10.6586C97.5755 10.5167 97.3769 10.2191 97.3769 9.53621V7.44684C97.3769 6.91943 97.1128 6.61064 96.5508 6.61064H96.3206V5.51074H96.8713C98.1172 5.51074 98.7559 6.13733 98.7559 7.30485V9.57001C98.7559 9.93289 98.9433 10.0974 99.2412 10.0974H99.6159Z" fill="#0D1C22"/>
</g>
</g>
<g id="Group_50">
<path id="Vector_186" d="M157.149 0.112793H139.061C136.714 0.112793 134.809 2.01283 134.809 4.35914V13.1471C134.809 15.4911 136.711 17.3934 139.061 17.3934H143.79L147.371 25.5007L152.423 17.3934H157.151C159.499 17.3934 161.404 15.4934 161.404 13.1471V4.35914C161.404 2.01508 159.501 0.112793 157.151 0.112793H157.149Z" fill="white" stroke="#0D1C22" stroke-linecap="round" stroke-linejoin="round"/>
<path id="Vector_187" d="M147.385 6.61766C147.385 6.06771 147.794 5.70483 148.288 5.70483C148.782 5.70483 149.191 6.06771 149.191 6.61766C149.191 7.16761 148.782 7.53049 148.288 7.53049C147.794 7.53049 147.385 7.14508 147.385 6.61766ZM149.193 10.8077C149.193 11.0488 149.137 11.2472 148.94 11.7543L148.378 13.305H147.487L147.927 11.6213C147.62 11.4906 147.41 11.2043 147.41 10.8077C147.41 10.2577 147.796 9.89483 148.301 9.89483C148.807 9.89483 149.193 10.269 149.193 10.8077Z" fill="#0D1C22"/>
</g>
<g id="Group_51">
<path id="Vector_188" d="M86.4301 153.748H104.518C106.866 153.748 108.771 151.847 108.771 149.501V140.713C108.771 138.369 106.868 136.467 104.518 136.467H99.7898L98.4085 128.36L91.1565 136.467H86.4279C84.0805 136.467 82.1755 138.367 82.1755 140.713V149.501C82.1755 151.845 84.0783 153.748 86.4279 153.748H86.4301Z" fill="white" stroke="#0D1C22" stroke-linecap="round" stroke-linejoin="round"/>
<g id="Group_52">
<path id="Vector_189" d="M92.7884 143.303L88.9875 144.723L92.7884 146.143V147.288L87.71 145.318V144.13L92.7884 142.16V143.303Z" fill="#0D1C22"/>
<path id="Vector_190" d="M96.7946 139.309H98.027L94.3931 149.673H93.1584L96.7946 139.309Z" fill="#0D1C22"/>
<path id="Vector_191" d="M103.37 144.128V145.316L98.2913 147.286V146.141L102.092 144.721L98.2913 143.301V142.158L103.37 144.128Z" fill="#0D1C22"/>
</g>
</g>
</g>
</g>
<defs>
<clipPath id="clip0_2407_638">
<rect width="198" height="185" fill="white"/>
</clipPath>
</defs>
</svg>
