<?xml version="1.0" encoding="utf-8"?>
<!-- Generator: Adobe Illustrator 25.0.0, SVG Export Plug-In . SVG Version: 6.00 Build 0)  -->
<svg version="1.1" id="Layer_1" xmlns="http://www.w3.org/2000/svg" xmlns:xlink="http://www.w3.org/1999/xlink" x="0px" y="0px"
	 viewBox="0 0 1002.6 318.7" style="enable-background:new 0 0 1002.6 318.7;" xml:space="preserve">
<style type="text/css">
	.st0{fill:#3B86FF;}
	.st1{fill:#43425D;}
</style>
<path class="st0" d="M18.9,242.4c-5.7,0-10.3-1.3-13.8-4c-3.4-2.7-5.1-5.9-5.1-9.6V13.6c0-3.8,1.7-7,5.1-9.6s8-4,13.8-4h58.7
	c14.6,0,27.8,2.5,39.6,7.5c11.7,4.9,21.6,13.4,28.2,24.2c7,11.2,10.4,26,10.4,44.6v89.9c0,18.6-3.5,33.4-10.4,44.6
	c-6.6,10.8-16.5,19.3-28.2,24.2c-11.8,5-25,7.5-39.6,7.5L18.9,242.4z M43.1,204.6h34.8c10.8,0,19.3-3.1,25.5-9.5
	c6.2-6.3,9.3-16,9.3-29V76.3c0-13-3.1-22.7-9.3-29c-6.2-6.3-14.7-9.4-25.5-9.5H43.1V204.6z"/>
<path class="st0" d="M267.9,244.3c-14.6,0-27.7-2.5-39.5-7.5c-11.6-4.9-21.4-13.4-28-24.2c-7-11.2-10.4-26-10.4-44.6V76.3
	c0-18.6,3.5-33.4,10.4-44.6c6.6-10.8,16.4-19.3,28-24.2c11.7-5,24.9-7.5,39.5-7.5c14.6,0,27.8,2.5,39.6,7.5
	c11.7,4.9,21.5,13.3,28,24.2c6.9,11.2,10.3,26,10.3,44.6v91.8c0,18.6-3.4,33.4-10.3,44.6c-6.5,10.9-16.3,19.3-28,24.2
	C295.7,241.9,282.5,244.4,267.9,244.3z M267.9,206.5c10.8,0,19.3-3.1,25.5-9.3c6.2-6.2,9.3-15.9,9.3-29.2V76.3
	c0-13.3-3.1-23-9.3-29.2c-6.2-6.2-14.7-9.3-25.5-9.3c-10.8,0-19.3,3.1-25.4,9.3s-9.1,15.9-9.1,29.2v91.8c0,13.3,3,23,9.1,29.2
	S257.1,206.6,267.9,206.5L267.9,206.5z"/>
<path class="st0" d="M404.5,242.4c-5.1,0-10.2-1.2-14.8-3.5c-4.5-2.3-6.8-5.8-6.8-10.5V21.5c0-8,2.3-13.5,6.8-16.7
	c4.3-3.1,9.4-4.8,14.8-4.8c4.5-0.1,9.1,0.5,13.4,1.6c3.9,1.3,7.5,3.6,10.3,6.7c3.2,3.3,6.6,8.2,10.1,14.6l40.8,74.3l40.5-74.3
	c3.1-5.2,6.6-10,10.5-14.6c2.7-3.1,6.2-5.4,10.1-6.6c4.3-1.2,8.8-1.7,13.3-1.6c5.3-0.1,10.6,1.6,14.9,4.8c4.4,3.2,6.6,8.8,6.6,16.7
	v206.9c0,4.7-2.3,8.2-6.8,10.5c-9.3,4.6-20.2,4.6-29.5,0c-4.5-2.3-6.8-5.8-6.8-10.5V86.2l-38.5,69c-1.7,2.8-4.1,5.2-7,6.8
	c-2.4,1.4-5.2,2.1-8,2.2c-2.6-0.1-5.2-0.7-7.5-2c-2.9-1.7-5.2-4.1-6.8-7L426,83.9v144.6c0,4.7-2.2,8.1-6.6,10.5
	C414.8,241.2,409.7,242.4,404.5,242.4z"/>
<path class="st0" d="M633.6,242.4c-4.5,0-9-1.2-12.9-3.5c-3.8-2-6.2-6.1-6-10.5V13.9c-0.2-4.3,2.2-8.4,6-10.4
	c3.9-2.3,8.4-3.5,12.9-3.5h118c4.9,0,8.3,2,10.5,6c2.1,3.9,3.2,8.2,3.2,12.6c0.1,4.8-1.1,9.5-3.5,13.6c-2.1,3.6-6,5.8-10.1,5.6
	h-93.8v66.3h50.5c4-0.2,7.9,1.8,10.1,5.1c2.3,3.6,3.5,7.8,3.4,12c0,3.9-1.1,7.7-3.2,11.1c-2.1,3.7-5.6,5.5-10.4,5.5h-50.4v66.6h93.8
	c4.2-0.1,8.1,2,10.1,5.6c2.4,4.1,3.6,8.8,3.5,13.6c0,4.4-1.1,8.7-3.2,12.6c-2.1,4-5.6,6-10.5,6L633.6,242.4z"/>
<path class="st1" d="M718.6,318.7c4.5-0.4,4.7-4.5,5.8-23.3c1.5-25.3,4.7-78,22.1-84.1l0.2-0.1c0.2-0.1,0.4-0.1,0.7-0.2l0,0h0.1
	c0.3-0.1,0.7-0.1,1-0.2c0.9-0.1,1.9-0.1,2.8,0c0.2,0,0.3,0,0.5,0h44.7c1.3,0.1,2.7,0.1,4,0c9.1-1,14.5-8.1,19.1-14.4l0-0.1
	c4-5.3,8.1-10.8,14.3-13.2c3.8-1.5,8-1.8,12-0.9c6.8,1.8,11.3,7.9,15.7,13.8c5.1,6.8,10.8,14.5,20.3,15c1.6,0.1,3.1,0,4.7-0.3h90.8
	c2.7,6.7,10.3,10,17,7.3c3.4-1.3,6.1-4.1,7.4-7.5c0.6-1.5,0.8-3.1,0.8-4.7c0-1.1-0.1-2.1-0.4-3.2c-1.8-7-8.9-11.3-15.9-9.5
	c-4.6,1.2-8.2,4.7-9.5,9.3h-90.6c-0.3,0-0.6,0-0.9,0.1c-1,0.2-1.9,0.3-2.9,0.2c-5.7-0.3-9.4-5.3-14.2-11.7l-0.1-0.1
	c-5-6.7-10.6-14.3-20.1-16.8c-5.6-1.4-11.6-1-17,1.1c-8.5,3.2-13.5,10-18,16l-0.1,0.1c-4.4,5.9-7.8,10.5-13.4,11.1
	c-0.8,0.1-1.7,0.1-2.5,0c-0.2,0-0.3,0-0.5,0H752c-0.6-0.1-1.2-0.1-1.8-0.1c-0.4,0-0.8,0-1.2,0c-0.4,0-0.8,0-1.1,0.1
	c-0.9,0.1-1.7,0.2-2.6,0.5l-0.3,0.1c-0.2,0.1-0.5,0.1-0.8,0.2c-0.3,0.1-0.6,0.2-0.9,0.4l0,0c-0.3,0.1-0.7,0.2-1,0.4
	c-18,8.2-23.1,45.8-25.5,82c-1.2-11-2.7-25.7-4.4-44.9c0-0.2,0-0.3,0-0.5l-0.1-0.5c0-0.3-0.1-0.7-0.1-1v-0.2h-0.2h-0.2l0.3-0.9l0,0
	c0-0.4-0.1-0.8-0.1-1.2s-0.1-0.9-0.1-1.3c-0.1-0.8-0.1-1.6-0.2-2.5c-1.7-19.8-3.5-41-5.2-61.6l-0.1-0.8
	c-3.1-37.6-6.3-76.6-9.3-105.9c-5.3-52.7-7.5-52.7-12-52.7c-4.1,0-5.8,4.3-7.8,19.9c-1.9,14.8-4.3,41.5-8.5,95.5
	c-3.5,45.3-8.3,107-12.6,130c-0.1-0.7-0.3-1.4-0.4-2.1l-0.3-1.5c-2.3-11.3-5.6-26.8-12-37.8c-0.5-0.8-0.9-1.5-1.3-2.1
	s-0.8-1.2-1.3-1.8c-1.2-1.6-2.6-3.1-4.1-4.5c-0.3-0.3-0.7-0.6-1.1-1l-0.1-0.1c-0.3-0.2-0.7-0.5-1-0.8c-2.1-1.4-4.4-2.4-6.8-3
	c-2-0.5-4-0.6-6.1-0.5h-27.3c-0.2,0-0.4,0-0.6,0.1c-0.4,0-0.7,0-1.1,0c-0.2,0-0.5,0-0.7,0l-0.3-0.1c-0.3-0.1-0.6-0.2-0.9-0.3
	c-2-0.8-3.5-2.7-5.4-5.2c-2.5-3.2-5.6-7.2-10.8-9.1c-0.8-0.3-1.6-0.5-2.5-0.7c-0.5-0.1-1-0.2-1.4-0.2c-0.5-0.1-1-0.1-1.5-0.2
	c-1.1-0.1-2.1-0.1-3.2,0c-0.3,0-0.5,0-0.8,0.1H565h-0.2h-0.3c-2.3,0.3-4.5,1-6.6,2c-1.5,0.7-2.9,1.6-4.2,2.6c-1.4,1-2.7,2.1-3.9,3.2
	l-0.5,0.5c-1.5,1.4-2.8,2.5-4.2,3.5c-1.5,1.5-3.1,3-4.9,4.7c-1,0.9-1.9,1.7-2.8,2.6l-0.2,0.2c-0.1,0.1-0.2,0.2-0.3,0.3
	c-0.8,0.7-1.5,1.3-2.2,2v0c-0.7,0.6-1.4,1.2-2.1,1.8c-11.4,9.6-20,14.2-26.4,14.2c-3.5,0-4.2-0.8-4.8-2.8c-0.5-1.4,0.3-5.8,2-10.9
	c0-0.1,0.1-0.3,0.2-0.4c0.5-1.2,0.7-1.5,1.2-1.7c0.6-0.2,1.1-0.3,1.7-0.3c1.3-0.4,2.6-0.9,3.8-1.5l0.7-0.4c0.9-0.6,1.8-1.2,2.7-1.8
	c0.6-0.5,1.2-1,1.9-1.6l0.3-0.2c6.6-5.5,14.7-17,18.2-24.2c2.1-4.4,2.4-8.5,0.9-11.3c-1-1.9-2.9-3.2-5.1-3.4
	c-7.4-0.9-18.1,10.6-24.9,20.7c-8.9,4.1-11.8,4.8-13.4,3.2c-0.4-0.4-0.5-0.4-0.8-9c-0.4-10-0.7-12.6-5.6-12.6c-4,0-12.7,8-19.1,15.5
	c-0.4,0.6-0.9,1.2-1.4,1.8c2.4-6.5,2.8-9.9,1.4-12.8c-1-1.7-2.9-2.8-4.9-2.7c-2.2,0.2-4,1.7-4.8,3.8c-0.8,2.4-1.5,4.9-2,7.4
	c-0.3,0.6-0.6,1.3-0.8,1.9l-0.2,0.4c-0.4,1.2-0.9,2.4-1.4,3.7c-0.4,1.7-1.3,4.2-2.3,7l-1.1,3c-3.6,3.2-6.7,6-10.5,9
	c-12.5,9.3-19.7,12.9-23.5,11.8c-0.7-0.1-1.2-0.5-1.6-1.1c-1.9-3-0.8-11.6,3.7-28.9c1.6-6.1,3.1-11.8,3.1-12.7
	c0-2.2-0.6-3.6-1.7-4.2c-1.3-0.7-3.3-0.1-5.7,1.7c-0.8,0.8-1.7,1.4-2.8,1.9v-0.9c0-1.7-2-5.3-3.6-6.9c-4-3.1-9.2-4.1-14-2.8
	c-3.5,1.4-6.7,3.4-9.5,5.9c-0.2-0.1-0.4-0.2-0.6-0.2l-0.5-0.1c-0.7,0-0.9,0-8.7,7c-40.6,37-71.2,62.5-99.1,82.6
	c-35.4,25.2-60.8,34.7-79.7,30.1c-10.1-2.6-17-9.1-20.4-19.3c-7.5-21.7,1.5-61.6,23.9-106.4c22.9-45.4,56.5-84.7,92.1-107.8
	c11.5-7.8,24.1-13.8,37.4-17.9c4.4-1.1,8.9-1.7,13.5-1.5c7.1,0,7.9,0.3,10.5,1.5c3,1.4,4.5,3.4,5.2,7.4c1,4.5-0.1,10.2-3.8,18.4
	c-1.4,2.5-3.7,7.1-3.7,8.5c0.1,1.3,0.8,2.5,1.9,3.3c1.3,1,3.2,1.9,4.6,1.5c5.2-0.8,11-8.1,14-17.3c2.1-6.2,2-16,0-21.3
	c-2.9-7.4-7.7-12-15.3-14.5c-4.9-1.7-16.1-1.7-23.1,0c-36.8,7.9-76.9,38.7-112.9,86.7c-26.8,36.3-48.8,85.1-54.6,121.3
	c-1.6,9.5-1.6,27.9,0,35.1c1.3,6.9,4.4,13.4,9,18.6H172l2.1,2.1c5.3,5.3,9.4,7.7,16.3,9.8c3.5,0.8,7.1,1.1,10.6,1.1
	c8.3,0,16.5-1.5,24.3-4.2c26.2-8.8,62-32.2,106.3-69.5c13.3-11,28-24.6,33.3-29.7c-7.3,15.1-10.1,28.2-7.1,33.5
	c2,4.4,5.6,5.7,10.1,3.7c3.9-1.6,11-10,33.5-38.3c7.9-9.6,12.3-14.3,13.3-14.8c-0.5,1.8-1.2,3.5-1.9,5.2c-5,16.6-6.3,22-5.9,28.4
	c0,4.2,0.8,7.2,2.5,9.2c2.4,1.8,5.4,2.5,8.4,2c2.9,0,5.2-1.3,7.7-2.6l1.9-1l1.2-0.8c5.4-3.6,11-7.3,16.1-11.5
	c-4.2,11.2-4.3,12.2-2.1,14.5c0.7,0.8,1.8,1.2,2.8,1.2c1.1,0,2.1-0.5,2.9-1.2c1.8-2.1,3.2-4.4,4.1-7c4.4-8.4,13.2-20.6,21.9-30.5
	c2.8-3.6,5.9-7,9.4-10c0.2,1.7,0.3,3.3,0.3,5c0,6.3,0,7.3,1.4,10.5c1.2,2,2.2,3.1,4.1,3.6c2.8,1.6,5.8,1.4,11.4-0.9
	c-2.1,3.6-3.9,7.4-5.4,11.3c-0.3,0.7-0.5,1.3-0.7,1.8c-0.3,0.7-0.5,1.3-0.6,1.8c0,0.1-0.1,0.2-0.1,0.3c0,0,0,0.1,0,0.1v0.1l0,0
	c-0.2,0.6-0.5,1.2-0.6,1.7s-0.3,1.1-0.5,1.6l-0.1,0.3c-0.4,2.2-0.6,4.5-0.5,6.7c0,4.1,0,5.4,1.3,8.1c2.2,4.4,5.4,6.5,10.5,7
	c2.2,0.1,4.5-0.2,6.7-0.7c0.2,0,0.3-0.1,0.5-0.1c2.9-0.6,5.6-1.7,8.2-3h0.3l0.2-0.2c10.7-5.3,22.8-15.8,31.1-23.6
	c1.4-1,2.7-2.2,3.7-3.1h0c3.6-3.2,6.4-5.7,10.9-6.3c0.6-0.1,1.2-0.1,1.8-0.2c0.4,0,0.7,0,1.1,0c0.4,0,0.7,0,1.1,0.1
	c0.7,0.1,1.5,0.3,2.2,0.6c0.7,0.3,1.4,0.6,2,1c0.5,0.3,0.9,0.6,1.3,1c0.4,0.4,0.9,0.8,1.4,1.4c0.9,1,1.8,2,2.6,3.1
	c2.5,3.2,5.3,6.8,9.9,8.2c0.3,0.1,0.7,0.2,1,0.2c0.3,0.1,0.6,0.1,0.9,0.2h0.1c1.2,0.2,2.4,0.2,3.6,0c0,0,0.1,0,0.1,0h27.6
	c1.3-0.1,2.5,0,3.8,0.2c3.8,0.9,7.2,3.8,10.2,8.7c0.5,0.8,0.9,1.5,1.4,2.3c0.5,1,1,2,1.4,2.9c2.6,6.1,4.6,12.4,6.1,18.9
	c1,4.2,1.8,8.2,2.6,12c0.1,0.5,0.2,0.9,0.3,1.4c0.7,3.6,1.5,7.1,2.5,10.5c1.3,4,3,5.5,5.8,5.6c7.8,0,10.6-13.4,20.8-145.1
	c2.7-34.6,5.7-73.7,8.3-94.6c3.9,27.9,9,89.3,13,138.8c0.5,6.1,1,11.9,1.5,17.4l0.2,2.6c0.1,1.4,0.3,2.8,0.4,4.1
	c0.2,2,0.3,3.9,0.5,5.8c0.7,8.1,1.4,16.3,2.2,25.1c0.1,0.8,0.2,1.7,0.2,2.5c0,0.6,0.1,1.3,0.2,1.9s0.1,1.5,0.2,2.2
	c0,0.4,0.1,0.9,0.1,1.3c2.6,29.3,4.3,46.9,5.8,59c2.5,20.3,4.3,24.2,8,24.4 M513.5,189.9c5.2-7.7,13.1-15.6,14.3-15.6h0.1v0.1
	c1.1,3.3-10.7,19.6-19.2,26.5c-0.6,0.6-1.3,1.1-2,1.5C507.1,201.1,513.5,189.9,513.5,189.9z M501.8,190.1l-0.5,1h0L501.8,190.1z
	 M403.1,181.7c-2.4,2.1-9.9,11.2-16.5,19.3c-7.6,8.8-14.7,16.6-16.1,17.7c-1.1,1.2-2.4,2.2-3.8,3.1h-0.1h0c-0.3,0.2-0.5,0.4-0.7,0.4
	c0-0.2,0.1-0.5,0.2-0.9c0.5-1.2,0.9-2.4,1.2-3.7c0.3-1,0.5-2,0.9-3c6.8-19.3,17.1-35.5,25.1-39.3c1.4-0.7,2.9-1,4.4-1.1
	c2,0.1,3.9,0.7,5.6,1.8c0.8,0.8,1.7,1.5,2.8,2C405,179.3,404.1,180.5,403.1,181.7L403.1,181.7z"/>
</svg>
