<svg xmlns="http://www.w3.org/2000/svg" xmlns:xlink="http://www.w3.org/1999/xlink" width="24" height="24" viewBox="0 0 24 24">
  <defs>
    <clipPath id="clip-path">
      <rect id="Rectangle_1477" data-name="Rectangle 1477" width="24" height="24" transform="translate(105 514)" fill="#5219a4"/>
    </clipPath>
  </defs>
  <g id="ic_password" transform="translate(-105 -514)" clip-path="url(#clip-path)">
    <path id="ic_password-2" data-name="ic_password" d="M15.25,7h-.583V4.667a4.667,4.667,0,1,0-9.333,0V7H4.75A1.752,1.752,0,0,0,3,8.75v8.167a1.752,1.752,0,0,0,1.75,1.75h10.5A1.752,1.752,0,0,0,17,16.917V8.75A1.752,1.752,0,0,0,15.25,7ZM6.889,4.667a3.111,3.111,0,1,1,6.222,0V7H6.889Zm3.889,8.339v1.772a.778.778,0,1,1-1.556,0V13.006a1.556,1.556,0,1,1,1.556,0Z" transform="translate(107.333 516.667)" fill="#3b86ff"/>
  </g>
</svg>
