<svg xmlns="http://www.w3.org/2000/svg" xmlns:xlink="http://www.w3.org/1999/xlink" width="24" height="24" viewBox="0 0 24 24">
  <defs>
    <clipPath id="clip-path">
      <rect id="Rectangle_3210" data-name="Rectangle 3210" width="24" height="24" transform="translate(-8729 -22651)"/>
    </clipPath>
  </defs>
  <g id="Mask_Group_46" data-name="Mask Group 46" transform="translate(8729 22651)" clip-path="url(#clip-path)">
    <g id="ic_languge" transform="translate(-8726 -22648.256)">
      <g id="Group_3248" data-name="Group 3248" transform="translate(9.843 0.256)">
        <g id="Group_3247" data-name="Group 3247" transform="translate(0 0)">
          <path id="Path_2205" data-name="Path 2205" d="M260.113.256a18.229,18.229,0,0,1,2.372,4.837,10.45,10.45,0,0,0,3.557-1.246l.323-.2A9.022,9.022,0,0,0,260.113.256Z" transform="translate(-260.113 -0.256)" fill="#3b86ff"/>
        </g>
      </g>
      <g id="Group_3250" data-name="Group 3250" transform="translate(6.446 6.543)">
        <g id="Group_3249" data-name="Group 3249">
          <path id="Path_2206" data-name="Path 2206" d="M175.15,166.4a19.846,19.846,0,0,1-4.521,0,12.337,12.337,0,0,0-.3,2.067h5.128A12.336,12.336,0,0,0,175.15,166.4Z" transform="translate(-170.326 -166.4)" fill="#3b86ff"/>
        </g>
      </g>
      <g id="Group_3252" data-name="Group 3252" transform="translate(7.104 13.131)">
        <g id="Group_3251" data-name="Group 3251">
          <path id="Path_2207" data-name="Path 2207" d="M189.638,340.48a18.749,18.749,0,0,0-1.905.1,17.334,17.334,0,0,0,1.905,3.945,17.337,17.337,0,0,0,1.905-3.945A18.749,18.749,0,0,0,189.638,340.48Z" transform="translate(-187.733 -340.48)" fill="#3b86ff"/>
        </g>
      </g>
      <g id="Group_3254" data-name="Group 3254" transform="translate(12.552 9.902)">
        <g id="Group_3253" data-name="Group 3253">
          <path id="Path_2208" data-name="Path 2208" d="M332,255.147a13.683,13.683,0,0,1-.308,2.264,11.561,11.561,0,0,1,3.9,1.4l.365.227a8.982,8.982,0,0,0,1.2-3.894Z" transform="translate(-331.69 -255.147)" fill="#3b86ff"/>
        </g>
      </g>
      <g id="Group_3256" data-name="Group 3256" transform="translate(12.552 4.716)">
        <g id="Group_3255" data-name="Group 3255">
          <path id="Path_2209" data-name="Path 2209" d="M335.958,118.118l-.365.227a11.561,11.561,0,0,1-3.9,1.406,13.682,13.682,0,0,1,.308,2.26h5.159A8.982,8.982,0,0,0,335.958,118.118Z" transform="translate(-331.69 -118.118)" fill="#3b86ff"/>
        </g>
      </g>
      <g id="Group_3258" data-name="Group 3258" transform="translate(6.446 9.902)">
        <g id="Group_3257" data-name="Group 3257">
          <path id="Path_2210" data-name="Path 2210" d="M170.325,255.147a12.33,12.33,0,0,0,.3,2.067,19.919,19.919,0,0,1,4.521,0,12.333,12.333,0,0,0,.3-2.067Z" transform="translate(-170.325 -255.147)" fill="#3b86ff"/>
        </g>
      </g>
      <g id="Group_3260" data-name="Group 3260" transform="translate(0 4.716)">
        <g id="Group_3259" data-name="Group 3259">
          <path id="Path_2211" data-name="Path 2211" d="M1.564,118.345l-.365-.227A8.982,8.982,0,0,0,0,122.012H5.159a13.681,13.681,0,0,1,.308-2.26A11.561,11.561,0,0,1,1.564,118.345Z" transform="translate(0 -118.118)" fill="#3b86ff"/>
        </g>
      </g>
      <g id="Group_3262" data-name="Group 3262" transform="translate(1.924 13.42)">
        <g id="Group_3261" data-name="Group 3261">
          <path id="Path_2212" data-name="Path 2212" d="M54.722,348.109a10.462,10.462,0,0,0-3.557,1.245l-.323.2a9.019,9.019,0,0,0,6.252,3.39A18.215,18.215,0,0,1,54.722,348.109Z" transform="translate(-50.842 -348.109)" fill="#3b86ff"/>
        </g>
      </g>
      <g id="Group_3264" data-name="Group 3264" transform="translate(7.104 1.337)">
        <g id="Group_3263" data-name="Group 3263">
          <path id="Path_2213" data-name="Path 2213" d="M189.638,28.826a17.344,17.344,0,0,0-1.905,3.945,18.418,18.418,0,0,0,3.811,0A17.345,17.345,0,0,0,189.638,28.826Z" transform="translate(-187.733 -28.826)" fill="#3b86ff"/>
        </g>
      </g>
      <g id="Group_3266" data-name="Group 3266" transform="translate(9.841 13.42)">
        <g id="Group_3265" data-name="Group 3265">
          <path id="Path_2214" data-name="Path 2214" d="M265.993,349.353a10.464,10.464,0,0,0-3.557-1.245,18.212,18.212,0,0,1-2.374,4.836,9.019,9.019,0,0,0,6.252-3.39Z" transform="translate(-260.062 -348.108)" fill="#3b86ff"/>
        </g>
      </g>
      <g id="Group_3268" data-name="Group 3268" transform="translate(1.926 0.256)">
        <g id="Group_3267" data-name="Group 3267" transform="translate(0 0)">
          <path id="Path_2215" data-name="Path 2215" d="M50.893,3.648l.321.2a10.45,10.45,0,0,0,3.557,1.246A18.228,18.228,0,0,1,57.145.257,9.022,9.022,0,0,0,50.893,3.648Z" transform="translate(-50.893 -0.257)" fill="#3b86ff"/>
        </g>
      </g>
      <g id="Group_3270" data-name="Group 3270" transform="translate(0 9.902)">
        <g id="Group_3269" data-name="Group 3269">
          <path id="Path_2216" data-name="Path 2216" d="M5.159,255.147H0a8.981,8.981,0,0,0,1.2,3.894l.365-.227a11.562,11.562,0,0,1,3.9-1.4A13.671,13.671,0,0,1,5.159,255.147Z" transform="translate(0 -255.147)" fill="#3b86ff"/>
        </g>
      </g>
    </g>
  </g>
</svg>
